<?xml version="1.0" encoding="UTF-8"?>
<svg id="Layer_1" xmlns="http://www.w3.org/2000/svg" version="1.1" viewBox="0 0 612 792">
  <!-- Generator: Adobe Illustrator 30.0.0, SVG Export Plug-In . SVG Version: 2.1.1 Build 123)  -->
  <defs>
    <style>
      .st0 {
        fill: #7b837e;
      }

      .st1 {
        fill: #12242c;
      }

      .st2 {
        fill: #636360;
      }

      .st3 {
        fill: #e1dac9;
      }

      .st4 {
        fill: #12262e;
      }

      .st5 {
        fill: #e7e6da;
      }

      .st6 {
        fill: #7d1a19;
      }

      .st7 {
        fill: #d7eff5;
      }

      .st8 {
        fill: #1f4454;
      }

      .st9 {
        fill: #731a1b;
      }

      .st10 {
        fill: #9faeae;
      }

      .st11 {
        fill: #26434e;
      }

      .st12 {
        fill: #8b1d1c;
      }

      .st13 {
        fill: #938b85;
      }

      .st14 {
        fill: #11242d;
      }

      .st15 {
        fill: #d6eff5;
      }

      .st16 {
        fill: #57585b;
      }

      .st17 {
        fill: #97a09b;
      }

      .st18 {
        fill: #821d1d;
      }

      .st19 {
        fill: #564845;
      }

      .st20 {
        fill: #151517;
      }

      .st21 {
        fill: #ddd5c3;
      }

      .st22 {
        fill: #9a2022;
      }

      .st23 {
        fill: #90988f;
      }

      .st24 {
        fill: #a02023;
      }

      .st25 {
        fill: #ddf1f6;
      }

      .st26 {
        fill: #711a1a;
      }

      .st27 {
        fill: #272729;
      }

      .st28 {
        fill: #ebe8d8;
      }

      .st29 {
        fill: #434643;
      }

      .st30 {
        fill: #839293;
      }

      .st31 {
        fill: #676e69;
      }

      .st32 {
        fill: #c7cdc4;
      }

      .st33 {
        fill: #d1edf4;
      }

      .st34 {
        fill: #12252e;
      }

      .st35 {
        fill: #7f8b84;
      }

      .st36 {
        fill: #b9d5e2;
      }

      .st37 {
        fill: #be2226;
      }

      .st38 {
        fill: #e3f3f5;
      }

      .st39 {
        fill: #1e404f;
      }

      .st40 {
        fill: #e1dcce;
      }

      .st41 {
        fill: #dd2726;
      }

      .st42 {
        fill: #9fa296;
      }

      .st43 {
        fill: #11242c;
      }

      .st44 {
        fill: #541c1b;
      }

      .st45 {
        fill: #8d1c1f;
      }

      .st46 {
        fill: #13232b;
      }

      .st47 {
        fill: #d8eff6;
      }

      .st48 {
        fill: #e8e6dc;
      }

      .st49 {
        fill: #d1cfbf;
      }

      .st50 {
        fill: #711719;
      }

      .st51 {
        fill: #ba2226;
      }

      .st52 {
        fill: #d4cfbf;
      }

      .st53 {
        fill: #555759;
      }

      .st54 {
        fill: #6d2829;
      }

      .st55 {
        fill: #e72527;
      }

      .st56 {
        fill: #9a1f21;
      }

      .st57 {
        fill: #13232a;
      }

      .st58 {
        fill: #437483;
      }

      .st59 {
        fill: #9acbe5;
      }

      .st60 {
        fill: #cecfc5;
      }

      .st61 {
        fill: #11252d;
      }

      .st62 {
        fill: #a6b8ad;
      }

      .st63 {
        fill: #e6e3d6;
      }

      .st64 {
        fill: #838b89;
      }

      .st65 {
        fill: #bb2226;
      }

      .st66 {
        fill: #a4a69f;
      }

      .st67 {
        fill: #788990;
      }

      .st68 {
        fill: #8c9393;
      }

      .st69 {
        fill: #88a8ac;
      }

      .st70 {
        fill: #821c1c;
      }

      .st71 {
        fill: #565658;
      }

      .st72 {
        fill: #0d0d0f;
      }

      .st73 {
        fill: #b2bdbb;
      }

      .st74 {
        fill: #d4eef3;
      }

      .st75 {
        fill: #8b1e1d;
      }

      .st76 {
        fill: #13242c;
      }

      .st77 {
        fill: #ebe7d7;
      }

      .st78 {
        fill: #1b1b1d;
      }

      .st79 {
        fill: #404541;
      }

      .st80 {
        fill: #e7e4d9;
      }

      .st81 {
        fill: #383838;
      }

      .st82 {
        fill: #111115;
      }

      .st83 {
        fill: #353536;
      }

      .st84 {
        fill: #ece7d6;
      }

      .st85 {
        fill: #252526;
      }

      .st86 {
        fill: #def2f6;
      }

      .st87 {
        fill: #daedf3;
      }

      .st88 {
        fill: #d2cebe;
      }

      .st89 {
        fill: #e3f4f7;
      }

      .st90 {
        fill: #571e1f;
      }

      .st91 {
        fill: #555558;
      }

      .st92 {
        fill: #171619;
      }

      .st93 {
        fill: #12252c;
      }

      .st94 {
        fill: #555557;
      }

      .st95 {
        fill: #d8eff5;
      }

      .st96 {
        fill: #dcd8c8;
      }

      .st97 {
        fill: #18181b;
      }

      .st98 {
        fill: #af2324;
      }

      .st99 {
        fill: #dbf0f5;
      }

      .st100 {
        fill: #898e84;
      }

      .st101 {
        fill: #891d1f;
      }

      .st102 {
        fill: #e0f2f6;
      }

      .st103 {
        fill: #8e968e;
      }

      .st104 {
        fill: #1a1a1b;
      }

      .st105 {
        fill: #aab1ab;
      }

      .st106 {
        fill: #666c63;
      }

      .st107 {
        fill: #12252d;
      }
    </style>
  </defs>
  <path class="st74" d="M264.56,432.67c-.01.32-.53,1.12-.57,1.95-.14,3.3.11,6.64,0,9.93-1.35-1.18-.17-9.09-.56-11.32H103.29c-.56.56.85,9.81-.56,11.32.39-2.79.22-8.93,0-11.88.1-.5.3-.48.57,0,2.68-.29,5.37-.56,8.06-.74s5.38-.35,8.06-.35c43-.03,86.02.03,129.02.14,5.39.01,10.76.46,16.12.95Z"/>
  <g>
    <g>
      <g>
        <g>
          <path class="st4" d="M182.51,287.81c31.49.04,63.01-.03,94.5,0,.06,3.95-.09,7.94,0,11.89-31.49.02-63.01-.01-94.5,0,.47-3.96.06-7.93,0-11.88Z"/>
          <path class="st61" d="M182.51,287.81c-12.63-.02-25.28.01-37.91,0v-11.88h37.06c.12,0,.64-.85.84-.57.05,4.14-.05,8.31,0,12.45Z"/>
        </g>
        <path class="st0" d="M400.93,336.47c-.31,3.91-.66,8.08.57,11.88-8.47-.06-16.98.01-25.47,0,.07-2.84.06-5.67,0-8.49.44-.98.39-2.05.34-3.11,5.61.17,11.15.07,16.63-.28,2.63-.07,5.29.04,7.92,0Z"/>
        <g>
          <path class="st1" d="M400.37,275.36v11.88h12.45v9.05c.44.94.82,1.89,1.15,2.86,2.71-.21,5.34-.22,7.9-.03l9.05.57c47.9-.41,95.81-.41,143.73,0v12.45l-186.17.57c.22,3.68.39,6.89.52,9.62l.33.86c11.8-.2,23.58-.11,35.36.26,1.71,1.7-1,12.45.85,12.45h48.38v11.6c0,1.26,1.32.28,1.41.28h22.92c-.07,4.14.1,8.31,0,12.45-7.47,1.26-15.01,1.59-22.64.98v9.52s-1.13.81-1.13.81c.17.42.34.94.1,1.28-.61.83-10.69.95-11.98-.71.44.05,1.09.18,1.13.5.14,1.04.19,10.51,0,11.14l-1.13.81c11.66-1.54,23.43-1.58,35.08,0,.1-.5.3-.48.57,0,.49.16.49.35,0,.57l-.38,1.13h-22.37c.71,7.55.37,14.91-1.02,22.07-4.18,1.39-8.28,1.41-12.45,0-.44,0-1.11-.11-1.13-.38-.27-4.47-.8-19.1,0-22.72l1.13-.67c-3.99,1.4-7.9,1.42-11.88,0-.44-.06-1.06-.17-1.13-.5-.23-1.06-.19-9.91,0-11.14l1.13-.81c3.3-1.77,7.59-1.42,11.18-.57-.78-3.95-.69-8.07.7-11.88-.01-3.74-.3-7.42-.85-11.04-12.06.15-24.03.06-35.93-.28-1.19.19-1.48-.36-1.64-1.4l-.04-9.35c-.64.12-.92-.49-1.16-1.13-6.9.31-14.01.45-20.94,0-.1.51-.3.49-.57,0-2.26,1.68-5.6,1.62-7.92,0-5.5.34-11.03.44-16.59.28.26,1.39.14,2.42-.39,3.11,1.46,2.48,1.55,5.13.53,7.78,8.27-.63,16.77-1.08,24.93.71,3.89-1.38,8.25-1.56,12.3-.75.95.19.85,9.91.71,11.26l-1.13.81c.75.8.43,1.09-.57.57-.52-.11-1.08-.29-1.7-.57-.64,1.43-1.05,1.43-1.7,0l-1.7.74c-3.82-.76-5.99-.56-6.51.61v9.73c.71.38.58.64-.28.8-4.02.51-8.05,1.01-12.1,1.03-18.14.12-36.31.16-54.46.07-2.02,0-4.03-.18-6.05-.36s-4.04-.45-6.05-.74c-19.05.38-38.11.67-57.15,0l-.57.57-.54,1.13H104l-.7-1.13-1.13-.64v-10.45l1.13-.8-.66,1.13h-12.1l-.83-1.13-1.13-.64v-10.45l1.13-.8c-8.84,1.87-17.73,1.25-26.6,0-1.1-.71-1.1-1.55,0-2.26-.8-3.13-.43-6.43,0-9.62l-.26.75c-3.59-.77-8.75-.74-12.37,0l-.38-.75c.7,2.41.94,5.8,0,7.92,1.28.76,1.71,2.45.45,3.22,4.21-.78,8.45-.45,12.57.74.51.1.48.3,0,.57.45,3.4.34,6.79,0,10.19.51.1.48.3,0,.57.51.1.48.3,0,.57.07.73-.54.84-1.85.35l-10.83-.06-.33,1.98c1.63,2.92,1.68,6.74,0,9.62.5.1.48.3,0,.57h-27.73v-12.45h14.15l.56-24.33h13.02c.02-.56-.02-1.13,0-1.69-.51-3.17-.37-6.44,0-9.62-.5-.1-.48-.3,0-.57h13.01v-36.78h13.01v36.78c4.51.09,9.07-.12,13.58,0,0,3.95,0,7.93,0,11.88h13.01v11.88c2.65.46,12.08-.86,13.58.57.5,3.78.58,7.58.25,11.4,49.9.34,99.8.5,149.7.48,8.29-.02,16.61.02,24.9,0v-12.45h11.88v-12.45h24.33c-.28-3.89.64-8.16-.57-11.88l36.1-.28c.25-.72.48-.57.68.28-.86-.08-.99-.29-.28-.64v-10.09c-1.29-.25-.94-.67.28-1.16-.05,1.09-.38,1.55-.69.57h-85.88c.67-4.06.09-8.31,0-12.45.19,0,.38,0,.57,0,24.43-.16,48.86-.37,73.28-.63-.15-3.76-.06-7.51.28-11.25,3.51-1.03,7.33-1.3,11.46-.8.38-.72.71-.61.99.23l-.75-.26c.41-3.76.66-7.63.75-11.62,12.26-.77,24.52-.77,36.78,0Z"/>
          <g>
            <path class="st7" d="M400.37,275.36h-36.78v11.88c-4.06.3-8.56-.67-12.45.57v-.57c1.39-1.39,9.47-.14,11.88-.57v-11.03c0-.62,1.38-.81,1.95-.88,8.93-1.05,22.83-.08,32.29.02.96.01,2.52-.36,3.1.58Z"/>
            <g>
              <path class="st99" d="M116.31,348.36c2.26,2.14-.12,8.4.56,11.32l149.39.56c-49.97.14-99.98-.11-149.95,0v-11.89Z"/>
              <g>
                <path class="st41" d="M322.28,371.56c-2.3,1.64-6.24.56-8.76.54-15.45-.09-31.02.6-46.4.02l-.29.56c-1.34.02-1.96.38-1.7-1.13,19.04-.01,38.11.02,57.15,0Z"/>
                <g>
                  <path class="st47" d="M389.05,312.71v10.19c4.5.59,34.06-1.01,35.65.56h-36.22s0-10.75,0-10.75h.57Z"/>
                  <path class="st5" d="M363.59,335.91v23.77h-48.67s0-11.32,0-11.32h12.45c.58-1.87-.91-12.45.85-12.45h35.37Z"/>
                  <path class="st69" d="M409.42,359.67c-.27,1.22-2.15,1.94-3.11,1.56-.31-.12-.23-.88-.65-.98-.2-.05-3.97.48-4.14.59-.06.04-.02,1.11-.02,1.38v8.77c1.6.05,3.22-.07,4.82,0,.69.03,2.1-.43,1.97.56h-7.35s0-11.88,0-11.88c2.82.03,5.67-.03,8.49,0Z"/>
                  <path class="st105" d="M393.01,336.47c-.07,0-.64.57-1.37.59-5,.16-10.05-.17-15.04-.02.54.98-.41,1.9,1.13,1.7l-1.69,1.12c-.02-1.13.01-2.27,0-3.4h16.98Z"/>
                  <g>
                    <path class="st89" d="M574.65,312.14l-185.6.57c-.16.49-.35.49-.57,0l186.17-.57Z"/>
                    <path class="st33" d="M412.82,296.3c.05-.52.9-2.01.85-2.83l.28,5.1,160.7,1.13c-47.9-.08-95.83.1-143.73,0l-9.05-.57c-1.22.04-8.74.89-9.05.57.07-1.11-.11-2.3,0-3.4Z"/>
                    <polygon class="st87" points="277.01 312.14 363.59 311.58 363.59 323.46 326.81 323.46 363.02 322.89 363.02 312.71 277.01 312.14"/>
                    <path class="st15" d="M351.14,287.81v11.89c-24.51,0-49.05-.02-73.56,0l.28-5.66c.83,0-.75,5.26,1.7,5.1h71.01c.43-2.42-.82-10.5.57-11.88.49.16.49.35,0,.57Z"/>
                    <rect class="st48" x="364.15" y="287.81" width="36.21" height="11.32"/>
                    <path class="st59" d="M430.92,299.69c-2.88,0-6.53.48-9.05-.57,2.8-.09,6.58-.4,9.05.57Z"/>
                  </g>
                </g>
              </g>
              <g>
                <path class="st36" d="M36.52,360.24c-.1.44-.25.98-.65,1.13-.59.23-11.4.13-12.69,0l-.81-1.13c.44.05,1.1.19,1.13.5.26,2.69.26,8.44,0,11.14l-1.13.81.52-1.13h26.53l.68,1.13c1.57,3.92,1.54,7.96,0,11.88-1.41-1.51,0-10.76-.56-11.32h-27.73s0-13.58,0-13.58h14.15v-23.77c1-.13.54,1.28.57,1.97.31,7.43-.23,14.93,0,22.36Z"/>
                <path class="st60" d="M50.1,344.4c-.07-2.63.05-5.29,0-7.92h13.01c.02,3.2-.02,6.42,0,9.62-2.3-1.19.95-4.74-2.26-3.97-.11-.92,1.06-.5,1.5-1.36.25-.49.02-2.93.19-3.72h-11.88c1.1,1.52.22,2.89.27,4.28.03.79,1.76,3.18-.83,3.07Z"/>
              </g>
            </g>
          </g>
        </g>
        <g>
          <path class="st2" d="M422.43,336.47c.75.05,1.52-.04,2.27,0,.11,3.3-.16,6.64,0,9.94.04.83.56,1.64.57,1.95.51.1.49.3,0,.57,1.86,2.71,1.69,7.92,0,10.75-3.95.03-7.93-.02-11.88,0v-11.32c-3.95-.02-7.93.03-11.88,0l-1.41-.83c-.9-2.29-1.25-9.58.84-11.06.19,0,.38,0,.57,0,6.65.64,14.27.51,20.94,0Z"/>
          <path class="st13" d="M422.43,336.47c-.59.94-2.15.57-3.1.58-4.9.05-9.83.06-14.73,0-.96-.01-2.52.36-3.1-.58,6.71-.09,14.32-.4,20.94,0Z"/>
          <rect class="st1" x="413.38" y="347.23" width="10.75" height=".57"/>
        </g>
      </g>
      <g>
        <path class="st61" d="M277.01,420.79c24.84-1.25,49.72-1.49,74.59-.75.57,4.25.66,8.49-.46,12.63-7.73,1.41-15.47,1.4-23.2,0-13.66,1.75-27.64,1.65-41.31,0-2.97,1.57-6.08,1.54-9.05,0-.59,3.94-.53,7.72.19,11.35l-.75.53c0,.19,0,.38,0,.57-2.66-.62-11.28.95-13.01-.57-.42-3.64-.47-7.27-.17-10.9-1.03-.38-.78-.7.74-.98l.44-1.13c3.41.17,6.81.09,10.19-.22l.11-9.73,1.14-.8c.1-.5.3-.48.57,0Z"/>
        <path class="st18" d="M437.15,457c.29,3.87-.66,8.18.57,11.88-.19,0-.38,0-.57,0-8.1-.01-16.23,0-24.33,0-1.09-3.49-1.86-9.14.57-11.88,7.88-1.57,15.88-1.53,23.77,0Z"/>
        <path class="st56" d="M265.13,371.56c.59.27,1.15.65,1.7,1.13,2.2-.43,1.39,1.53-.68,2.23-.21.27-.12,6.45.03,6.75,1.14,2.28,5.09,2.04,7.48,1.67,12.82.32,25.79.53,38.81.08,2.3-.3,2.39-.09,2.16,1.43-.32,2.11-.57,22.55.06,23.55.41.64,12.37.45,12.85,0,.67-.64.58-2.28.11-3.05.37-5.66.28-11.27-.28-16.82-1.71-.2-1.64-3.62,0-3.96l.85-1.1,8.34.37c1.63-1.42,4.42-.61,2.61.89-.31,7.64-.32,15.39.08,23.05l.93-.73c3.43.25,6.88.29,10.34.11l.05-21.92,1.13-.67,1.83-1.14c1.85-.22,15.44-1.47,16.1.2.12.29.16.61.18.94-1.63.95-3.32,1.42-5.06,1.41l.52,21.66-1.12.69-.8,1.08c-2.08-.63-2.87-.17-2.38,1.36,3.76.45,4.02,4.49-.25,4.09-.91,3.71.13,5.41,3.11,5.1,7.57-.09,15.11-.06,22.63.08l1.46.74c1.18-2.07,12.77-1.67,13.06-.54-.81,1.58-1.14,3.56-.05,5.07,1.39,1.49,1.48,7.56.54,8.08-1.87,1.04-7.19.51-9.88.03-1.05-.19-2.08-.46-3.11-.75-8.26,1.58-16.64,1.55-24.9,0-4.14,0-8.31,0-12.45,0,0-3.95,0-7.93,0-11.89-24.7,0-49.43.02-74.13,0l-.77-.07c-.31-3.71-.47-7.57-.48-11.58-4.87.44-9.88.62-14.76.25-5.86-.45-1.54-6.35,2.41-3.31.04-6.86-.12-13.63-.49-20.31l1.07-1.19c0-.08.57-.66.58-1.37.05-3.13-.53-8.34-.02-11.07.07-.37.15-.56.57-.57Z"/>
        <path class="st98" d="M400.93,371.56l6.37.03c.39-1.14,1.66-1.15,3.81-.03,1.25-.85,1.82-.85,1.7,0l2.75-.78c11.09.64,22.18.85,33.25.62l1.35.73v12.45c-4.17,1.38-8.27,1.38-12.45,0-3.03,1.33-6.36,1.41-9.6.92.37,2.23-.2,3.25-1.72,3.04-1.1-.33-1.49-1.46-1.16-3.4h-11.25c.1.87-.31,1.35-1.16,1.7-.92.37-1.58-.19-1.97-1.68h-8.17s-.1,20.85-.1,20.85c.14,1.8-.41,2.58-1.64,2.34l-1.13-.38v-22.93s-9.31.64-9.31.64c-1.14-.18-2.02-.34-2-1.66-3.6-.04-7.19.15-10.75.57-2.43,1.63-5.45,1.61-7.92,0-1.51-.99-4.18-.63-5.96-.58-4.03.11-8.14.63-12.15.58l-.36.67c-3.42-.21-7.28-.4-10.88.08-.17,7.26-.17,14.53-.01,21.83l-1.2.62c-1.31-1.33-.17-3.8-.55-5.3-.16-.64-1.16-.12-1.15-.65s.99-.07,1.15-.56c.58-1.76-1.16-1.25-1.15-1.7,0-.54.81-.09,1-.38.35-.55.4-12.14.16-13.12-.16-.63-1.13-.12-1.15-.65-.05-.31,2.25-.33,1.13-1.41-.2-.19-1.24.91-1.98.93-2.42.05-6.46-.29-9.33-.36-1.81,1.01-9.49,1.02-11.22.21-.43-.2-.83-.48-1.23-.77.44,0,1.12.11,1.13.38.32,6.1.48,14.89,0,20.88.35,1.7-.03,2.73-1.13,3.07.05-.44.19-1.1.5-1.13,1.43-.14,11.02-.16,11.58.38.19.18.29.46.37.75-1.11-6.59-1.11-13.22,0-19.8,1.88,1.11.3,4.87.68,6.52.08.36.99.21.97.51-.03.43-.62,1.05-.57,1.68.04.48,1.14.29,1.18.34.21.27-1.21,1.29-1.47,1.97-.1.26-.26,5.35-.24,5.63.04.38,1.11.3,1.1.56-.02,1.08-.72,2.92-1.93,3.16-.75.15-11.01.42-11.64.3-2.79-.53-.03-6.16-2.23-5.97v-.55s1.13-.01,1.13-.01c.27-1.03-1.1-.2-1.14-.84l1.18-.65v-12.29c-2.56-1.14-.19-.63-.02-1.29.21-.86-.13-2.09-.01-3.04-8.56-.14-17.09.34-25.65.36-4.54.01-11.05-.91-15.42-.4-1.23.14-.63,1.4-1.08,1.18s-.65-.89-1.73-1.1c-1.67-.32-3.66-.27-5.34-.03l1.14-1.41c-.02-.53-.99-.02-1.15-.65-.17-.67-.2-8.85.02-9.26.05-.1,1.68.49,2.26,0l-.57-.55-.17-.69c18.95.22,37.49.07,55.62-.44,26.2-.03,52.46-.29,78.65,0Z"/>
        <path class="st77" d="M450.16,384.57c3.95.02,7.93-.01,11.88,0v23.77c4.14.01,8.31-.02,12.45,0,.01,4.14,0,8.31,0,12.45,3.37.52,21.7-.94,23.2.56l.31,2.47c.29,6.69.56,13.38.82,20.07l-1.13.67c-.91,1.1-1.92,1.11-2.83,0-.61-.98-.19-1.59,1.27-1.86l-.29-8.71c-23.95.04-47.86-.17-71.74-.62-.61-3.81-.79-7.7-.55-11.67-3.35-2-3.83-4.44.14-5.92l-.37-5.17c-1.32,2.7-3.27,5.67-5.19,1.29.98-1.56-2.86-1.78-3-1.5-.18.37-.06,5.54,0,6.56.77,2.15,1.22,6.21-1.76,3.83-1.84-3.36-1.66-8.97,0-12.45l.53-1.13h35.21c-.29-7.56.17-15.12,1.05-22.63Z"/>
        <path class="st8" d="M498.26,385.14l1.13.65v9.49c3.44-.05,6.85.34,10.19,1.17,1.8,2.27,2.3,9.34,0,11.32-11.7.31-23.37.62-35.08.57-.02-7.74.15-15.47,0-23.2h23.77Z"/>
        <path class="st6" d="M425.26,359.67c.71-1.1,1.55-1.1,2.26,0,5.57-1.08,11.4-1.08,16.98,0l1.82-1.1c2.92-.22,10.52-.21,13.3.15.71.09,1.32.5,1.86.95.16-.49.35-.49.57,0,.02,4.14-.02,8.31,0,12.45-3.95.05-7.93-.07-11.89,0-12.42.22-25.18,1.23-37.35-.57l-.75-.26c.53-3.63.78-7.31.75-11.05l.57-.57c3.92-1.56,7.96-1.54,11.88,0Z"/>
        <path class="st28" d="M497.69,371.56c-.08,4.33.06,8.69,0,13.01-11.68-.03-23.4.02-35.08,0v-12.45c3.49-.14,7.03.18,10.51.02.73-.03,1.3-.59,1.37-.59.95-.57,1.96-1.11,3.07-1.21,4.91-.44,12.03-.24,17.03.12,1.11.08,2.13.57,3.1,1.08Z"/>
        <path class="st65" d="M498.26,360.24c-.09,3.75-.5,7.51-.57,11.32-7.71.21-15.5-.28-23.2,0v-11.32c7.91.04,15.85-.04,23.77,0Z"/>
        <path class="st58" d="M498.26,384.57c3.29,0,6.64-.13,9.93,0,1.09.04,2.27-.58,1.95,1.13.24.11.46.24.63.42.39.42,1.24,11.2-1.19,10.33,3.95-1.11,7.94-1.11,11.88,0,0,1.74,1.06,10.29.32,11.36-.66.96-9.74.5-11.63.53-.07-.37-.15-.56-.57-.57.6-3.72-.05-7.61,0-11.32-3.77,0-7.55,0-11.32,0v-11.32s0-.57,0-.57Z"/>
        <path class="st67" d="M411.12,359.67c.62.1,1.08.19,1.37.77.24.48.33,10.28.05,10.74-1.3.02-1.77.14-1.42.37-3.35.11-6.84.04-10.19,0l.25-.75c.61.84,1.57.52.31.19-.49-2.62-.48-6.1,0-8.77-2.24-3.01,5.49-2.33,5.21-1.75-.1.2,2.46-.46,2.71-.8.56,0,1.13-.02,1.7,0Z"/>
        <path class="st69" d="M412.82,360.24v11.32c-.49-.07-1.17-.02-1.7,0l-2.26-.56c.7-.14,3.21.18,3.4,0,.33-.33.12-8.14.04-9.39-.08-1.14-.09-1.39-1.17-1.93.62.03,1.42-.17,1.7.57Z"/>
        <path class="st23" d="M462.04,444.55c1.56,4.11,1.54,8.33,0,12.45-8.28.12-16.61-.03-24.9,0s-15.85-.02-23.77,0c-.47.29-.95.56-1.45.75-1.97.75-16.65.28-18.67-.56-.48-.2-.94-.47-1.38-.76-5.06-.18-10.34-.37-15.84-.57-2.05-.44-1.79-6.66,0-7.36.41-1.08.67-2.24.81-3.49l9.97.12c1.3.09,2.02-.37,2.15-1.36,19.82-.48,40.04-.48,60.06-.37,2.17.01,4.34.19,6.51.38s4.35.47,6.51.77Z"/>
        <path class="st35" d="M497.69,444.55c.09-.53.37-1.08.87-1.1l4.74.11c1.11-1.87,2.61-1.88,3.48.26,1.49-.4,2.42-.15,2.8.72,1.92-.02,11.16-.28,11.92.25,1.36.96.07,3.93.05,5.21-.01,1.01.52,6.07.22,6.43-.58.87-1.41-.06-2.27,0-5.65.37-11.03.24-16.71,0-5.33-.56-10.61-.56-15.84,0-.19,0-.38,0-.57,0-2,0-1.28-1.6-.07-2.74l-.49-7.34,1.13-.67c-.74-3.14,6.65-3.28,7.92-1.13.94,0,1.89,0,2.83,0Z"/>
        <path class="st22" d="M462.04,444.55c8.35-1.48,16.86-1.42,25.3-.75.56.4.43,1.03-.41,1.88-.05,2.7.66,6.84.46,8.78-.02.23-1.69.52-1.03,1.97-.33.01-1.6.51-2.83.57-2.52-.46-5.74-.51-8.41-.26-3.65,1.59-9.35,1.94-13.09.26-.02-4.14.02-8.31,0-12.45Z"/>
        <path class="st106" d="M498.82,432.67c.19.85.38,1.03.57.57,3.28-.54,6.48-.54,9.62,0,1.22,2.68-.27.11-.22-.08.06-.22.38-.36.79-.49.87.29.59,1.28.6,1.98.05,3.06-.1,6.89-.6,9.9-.84.01-1.67.6-2.94.4-2.7-.44-.72-1.29-1.02-1.52-1.13-.89-1.08,1.03-1.5,1.13-2.1.51-4.77,0-6.42,0v-23.2c1.22,1.22.35,7.66.54,9.95.07.77.53,1.11.59,1.37Z"/>
        <path class="st39" d="M510.14,385.7c.32-.62.63-1.06,1.41-1.17,3.13-.43,7.22.39,10.48.03-.28,3.13.04,6.25.03,9.37,0,1.04-.6,2.12-.6,2.51-3.95,0-7.93,0-11.88,0,0-.4.58-1.48.61-2.52.05-2.12-1.01-6.37-.04-8.23Z"/>
        <g>
          <path class="st107" d="M498.26,360.24c3.76.02,7.55-.01,11.32,0v11.03c0,.06.79.85.85.85h11.6v11.88h11.88v12.45c3.07.61,9.93-.82,12.45,0,.26,3.53.37,7.1.33,10.72l.74.48,26.66.12c1.23,4.08.27,8.76.57,13.01h12.45v24.33l-12.45-.57c-.5.5.58,10.76,0,12.45-12.77.35-25.57.35-38.41,0-1.15-.11-1.74.27-1.76,1.13-1.29,3.23-.23,7.32-.57,10.75h-24.33v11.32c-3.76.05-7.56-.07-11.32,0-1.81-2.89-1.98-8.56,0-11.32-.05.44-.18,1.1-.49,1.13-1.24.14-9.61.18-10.18-.38-.19-.18-.29-.46-.37-.75-.42.41-.26,1.76.49,4.04l-.14,6.4,9.88-.23.81,1.1c.01,4.14-.01,8.31,0,12.45l-23.77.56v-24.33c-12.25-.01-24.53.02-36.78,0l-1.35-.64c-.8-1.68-.86-10,.79-11.25,8-1.78,16.87-1.65,24.9,0,1.57,3.73,1.54,7.58,0,11.32.05-.44.18-1.08.5-1.13,1.19-.18,10.13-.23,11.14,0l.81,1.13c-.44-.12-1.09-.3-1.13-.65-.12-1.12-.25-10.36.21-10.64,3.23-.51,6.74-.49,9.97-.03.04-1.58,2.12-1.99,2.83-.57.1-.51.3-.49.57,0,5.27-.55,10.55-.55,15.84,0l2.64-1.03,15.3.02c-.41-3.26-.2-6.43.2-9.63l-10.5-.13-.84-1.12c-1.2-1.94-.86-6.75-.52-9.31,1.09-.45.95-1.67.52-2.57-3.53.01-6.97.29-10.31.83l-.44-.83-.61.11c-.11-3.81-.28-7.62-.52-11.43l-.84.82c-7.53-.19-15.02-.37-22.47-.55-2.24-1.24-.82-9.77.1-13.28,11.49-1.74,23.56-2.04,35.08-.57.88-.91,1.25-.55.57.57-.1.51-.3.49-.57,0-3.73,1.57-7.58,1.54-11.32,0l1.13.64v10.45l-1.13.8c-.01-.53.17-1.07.69-1.23.72-.22,8.3.13,9.56.29l1.07.94c.34-3.99.53-7.95.57-11.88l.63-1.13c3.37.18,6.73.12,10.07-.18l-.48-9.72,1.1-.86c-.5-.04-.85-.27-.99-.72.46-2.29.88-7.75.34-9.76-.14-.52-9.31-.33-10.67-.27h-9.67c-.84-.18-1.57-.56-2.21-1.13-.19,0-.38,0-.57,0-1.68-3.97-1.78-9.08,0-13.01-1.68-3.14-1.28-8.25.57-11.32Z"/>
          <g>
            <path class="st95" d="M574.65,457c-.64,1.87-35.32-.26-39.61.57v11.32c-1,.13-.54-1.28-.57-1.97-.12-2.92.08-5.86,0-8.78-.01-.43-1.17-.84.27-1.6l39.91.47Z"/>
            <g>
              <path class="st86" d="M546.36,396.45c.57.19.51.24.58.82.21,1.61-.37,9.58-.02,9.93l27.16.56-27.18.32c-1.25-.9-.21-9.59-.55-11.64Z"/>
              <g>
                <rect class="st11" x="521.8" y="432.64" width="24.58" height="12.51"/>
                <path class="st63" d="M546.36,420.22h-24.33v-11.88l23.79.25c1.43,1.17-.14,9.29.54,11.63Z"/>
                <path class="st26" d="M483.55,457c-3,.14-6.05-.1-9.06,0v11.32s-12.45,0-12.45,0c-.02-3.76.02-7.55,0-11.32,6-.09,12.19-.64,18.4-.58.96,0,2.52-.36,3.1.58Z"/>
                <path class="st29" d="M498.26,480.2c-1.85.04-11.23.66-11.62.04-.73-2.27-.02-4.64-.04-6.9,0-1.24-.8-3.74-.77-4.18.09-1.36,1.32-.27,1.4-.27h11.03c-.25,3.77-.01,7.54,0,11.32Z"/>
                <path class="st80" d="M509.58,408.34c.66,3.66.55,8.08,0,11.88-2.31.75-8.5-.56-11.32,0v-11.88c3.76-.02,7.55.02,11.32,0Z"/>
                <path class="st62" d="M502.79,456.44c-5.26.13-10.62-.18-15.84,0l4.24-.82c3.86-.43,8.07.67,11.6.82Z"/>
                <path class="st42" d="M509.58,432.67c-.28,4.86-.34.57-.57.57h-9.62c-.06,0,.06.82,0,1.13h-.56c-.09-.54.11-1.22,0-1.7,2.66.53,8.61-.72,10.75,0Z"/>
                <path class="st8" d="M509.58,420.22v-11.88c.19,0,.38,0,.57,0,.33,1.77.26,9.13.02,11.06-.07.57,0,.63-.58.82Z"/>
              </g>
            </g>
          </g>
        </g>
        <path class="st79" d="M391.88,456.44c6.93-.01,14.29.58,21.5.57.48,2.02-.55,4.17-.57,5.94s1.43,3.97,0,5.94c-16.4,0-32.86-.09-49.23,0-.44-.12-1.1-.3-1.13-.64-.25-2.41-.24-8.04,0-10.45l1.13-.8c3.88-1.65,9.15-1.99,13.02-.55l9.61-.02c1.86-.43,3.8-.44,5.66,0Z"/>
        <path class="st37" d="M327.94,432.67c.95,1.54,1.17,3.53.64,5.97.43,2.36.22,4.33-.64,5.92-.44,1.43-1.58,1.5-3.4.2l-3.39.36c-1.87.33-3.76.33-5.66,0-.74,1.25-1.61,1.29-2.26,0-5.64.12-11.33,0-16.98,0l-8.71-.21c.03-1.07.15-1.71,1.19-1.78l.28-8.45c-2.1-.17-2.89-.84-2.38-2.01,13.76-.11,27.55.02,41.31,0Z"/>
        <path class="st50" d="M315.49,445.12l5.35.3c2.17.17,2.27.07.31-.3,1.68-1.03,4.66-.57,6.79-.57,2.41-1.79,8.9-1.2,11.32.57v11.88h-36.21v-11.32h10.48s-.29-.57-.29-.57c.84-.02.22-.47,2.26,0Z"/>
        <path class="st44" d="M388.48,432.67c.44.12,1.1.3,1.13.64.14,1.39.21,10.95-.56,11.15-4.58,1.22-8.25.93-13.02.09-.05.44-.18,1.09-.5,1.13-1.17.17-10.22.23-11.14,0l-.81-1.13v-11.88c8.29-.01,16.61.04,24.9,0Z"/>
        <path class="st12" d="M351.14,432.67c0,3.95,0,7.93,0,11.89-3.49.06-7.01-.09-10.51-.02-.71.01-1.3.58-1.38.58-3.4.05-7.67-.55-11.32-.57-.77-3.79-.53-8.06,0-11.88,7.73-.01,15.47.01,23.2,0Z"/>
        <path class="st31" d="M376.03,444.55c1.36.39,1.41.45.35,1.19.51,1.55.39,2.47-.35,2.77,0,1.63-.34,6.31,0,7.36,3.45.21,6.85.4,10.19.57-7.29.03-15.13.53-22.63.57v-12.45h12.45Z"/>
        <path class="st45" d="M286.63,432.67c.48,1.13,3.13.3,3.4.56.48.46-.66,9.06,0,10.75l-2.27.57,8.48.57c-5.46,0-12.44.6-17.54-.57,2.81-.19,5.64-.38,8.49-.57-2.91.49-6.65.47-9.62,0-.65-3.53-.32-7.59,0-11.32,3.01-.02,6.04.02,9.05,0Z"/>
        <g>
          <path class="st93" d="M363.59,432.67l1.13.64v10.45l-1.13.8c.44.05,1.09.18,1.13.5.17,1.17.23,10.22,0,11.14l-1.13.81c-3.98,1.42-7.89,1.4-11.88,0,.44.05,1.09.18,1.13.5.17,1.17.23,10.22,0,11.14l-1.13.81.84-1.36c2-.8,9.62-.96,11.04.8,16.31-1.82,32.92-1.76,49.23,0,8.1-1.4,16.23-1.41,24.33,0v11.88l-97.2.28c.72.22.49.39-.44.52.15,3.93.07,7.81-.25,11.65h-24.33v-12.45h-12.45c1.03-3.89,0-7.94.57-11.88h-12.45v-12.45h-13.58c-.01-3.76.02-7.55,0-11.32-.51-.1-.49-.3,0-.57,0-.72.56-.72,1.7,0l8.3.36c.46-1.01.91-1,1.36.02l7.89.19c5.35-1.71,11.61-1.63,16.98,0,1.73.04,1.24.92-.21,1.7-.47.25-10.05.42-9.98-1.13l1.13.65v9.86l-1.13.81.53-1.13h35l.68,1.13-1.13-.64v-10.45l1.13-.8c-.83-1.1,0-1.61,1.26-1.7,3.18-.24,6.92-.27,9.89.64-.74-3.82-.15-7.63.73-11.39,4.13-1.12,8.31-1.11,12.45,0Z"/>
          <path class="st25" d="M437.15,480.77l-97.33.56c-.37.37.24,8.82.03,10.5-.07.55.19,1.32-.59,1.38v-12.45s97.89,0,97.89,0Z"/>
          <path class="st54" d="M363.59,457v11.88c-3.89.02-8.21-.46-11.88.57v-12.45c3.95-.01,7.93.02,11.88,0Z"/>
          <path class="st19" d="M326.81,468.88v11.88h-11.03c-.06,0-.85-.79-.85-.85v-11.03h11.88Z"/>
        </g>
        <path class="st37" d="M277.58,432.67v11.32h9.62v.56s-8.49,0-8.49,0c-.48-.11-1.16.07-1.7,0,0-3.81-.47-8.28.57-11.88Z"/>
        <path class="st9" d="M264,384.57c-.03,1.54.6,4.14.58,5.94-.06,5.28-.74,10.48-.08,15.76-1,2.15-2.27.08-3.05.02-1.35-.1-4.58,1.76-.06,1.99,4.95.25,10.13.17,15.08-.25,1.26.9.2,10.61.55,12.77-.19,0-.38,0-.57,0-3.99,1.4-7.9,1.41-11.88,0-4.32,1.11-8.69,1.11-13.01,0-.44-.05-1.1-.19-1.13-.5-.14-1.43-.16-11.02.38-11.58.18-.19.46-.29.75-.37,0-7.91,0-15.85,0-23.77h12.45Z"/>
        <path class="st101" d="M276.44,420.79l-.08,11.24c-.65,1.04-9.88.62-11.8.65-1.66-3.27-1.84-8.73,0-11.88,3.95,0,7.94,0,11.88,0Z"/>
        <path class="st49" d="M413.38,420.79c2.72-.38.89-1.14.67-3.29-.25-2.43.15-5.51-.1-8.02,3.04-.77,4.2.21,6.78,1.13l-1.69.57,1.14,2.26c1.13-1.45,2.03-2.16,1.13-3.96h3.39c-.35,1.87.5,5.44.04,7.01-.12.4-2.59.53-2.87,2.34-.02.13,1.81,1.76,2.27,1.4.3-.23-1.72-2.07.56-1.69v14.15s72.42,0,72.42,0c-.55,2.98.52,8.32.04,11-.12.68-2.03-.04-2.3.88-2.39,0-6.77-.82-7.92,1.13,0-.38,0-.75,0-1.13-8.29-.02-16.61.02-24.9,0-23.88-.06-47.74.15-71.61-.03-1.95.28-3.11,2.14-5.34.6,1.48,3.21-1.08.71-3.4,1.12l1.69-1.12c-1.22.68-6.76-.44-6.77.84,0,.18,2.38,3.98-.58,2.55v-3.96c4.14,0,8.31,0,12.45,0v-11.89c4.14-.02,8.31.01,12.45,0,.01-2.45-.03-4.91,0-7.36-.35-.13-.64-.27-.69-.48-.09-.37-.09-4.43-.04-4.66.2-.89,10.84-.61,12.35-.47l.83,1.08Z"/>
        <path class="st57" d="M388.48,384.01c.7-.02,1.63.59,2.53.56,3.06-.09,6.62-1.08,9.92-.57v24.33c.07.44.1,1.08-.22,1.21-1.04.4-10.39.16-12-.07l-.8-1.14c-7.53,1.83-16.2,1.67-23.77,0l-.57-23.77c2.07-.02,4.16.03,6.23,0,2.63-.04,5.29.02,7.92,0,3.57-.41,7.15-.6,10.75-.57Z"/>
        <path class="st70" d="M400.93,408.34c1.27-.43.21-21.45.57-24.33l10.15.02,1.16,2.81c.49.78.98,1.63,1.05,2.57.26,3.09.93,15.91.22,17.66-.18.45-.43.86-.71,1.27.14,4.13-.1,8.31,0,12.45-1.93.27-11.93-.36-12.4.04-.56,1.53-.03,2.99-.04,4.48-2.1-.03-1.43.81-1.29-1,.09-1.2.21-2.42.73-3.52-4.16-.61-8.34-.02-12.45,0-.44-.06-1.05-.16-1.13-.5-.23-.99-.18-9.92,0-11.14l1.13-.81c2.53-.02,11.5.52,13.01,0Z"/>
        <path class="st51" d="M364.15,408.34c7.91-.13,15.85.07,23.77,0v12.45c-7.69.03-15.73.57-23.39.35-2.36-.07-5.21-1.06-7.73-.92l2.83-.56c-.51-1.21.35-1.55-1.14-1.98,2.26-.3.58-3.36,1.14-4.25.09-.14,2.52.72,3.39,0-.72-1.4-3.06-2.82-1.69-.56h-1.7c.61-.95-.13-3.36.26-3.94.96-1.45,2.86-.56,4.27-.58Z"/>
        <path class="st76" d="M327.37,384.57v23.77h-12.45v-24.33c3.68.08,7.39-.1,11.08-.02.72.02,1.3.58,1.37.59Z"/>
        <path class="st76" d="M351.7,384.57v23.77c-1.89-.26-11.94.57-12.45-.57.49-3.14-.71-21.96.23-23.22.68-.9,8.52-.61,10.3-.59,1.01.01,1.81.61,1.91.61Z"/>
        <path class="st46" d="M412.82,386.84c.04-.94-.04-1.89,0-2.83h13.59s0,4.53,0,4.53l1.13.63v6.45c3.08-.04,6.1-.1,9.05-.19v-10.05s1.14-.81,1.14-.81c4.14-.02,8.31-.02,12.45,0,0,7.91,0,15.85,0,23.77h-36.78c-.24-7.02-.89-14.3-.57-21.51Z"/>
        <path class="st75" d="M437.71,384.57v12.45c-3.78-.93-7.52,0-11.33-.26v-8.22c.98-1.09.52-2.64.57-3.96,3.58-.01,7.18.02,10.75,0Z"/>
        <path class="st56" d="M388.48,384.01c-3.34.08-7.14.53-10.75.57,3.23-1.29,7.32-.23,10.75-.57Z"/>
        <path class="st32" d="M376.03,455.87h18.67s-2.83.57-2.83.57c-1.85,0-3.74,0-5.66,0-1.75-.31-9.78.66-10.19-.57Z"/>
        <path class="st93" d="M321.15,445.12c1.13,0,3.95-.51,4.52.56-3.57.03-6.73.24-10.18-.56,1.88,0,3.78-.01,5.66,0Z"/>
        <g>
          <path class="st55" d="M425.26,348.36h36.78c.01,3.76-.02,7.55,0,11.32h-.57l-1.13-.5v-9.1s-34.4-.02-34.4-.02l-.68-1.13c0-.19,0-.38,0-.57Z"/>
          <path class="st24" d="M425.26,348.92h36.22s0,10.75,0,10.75c-5.6.7-11.31.04-16.98,0-2.2-.39-3.8-1.14-4.79-2.25l-1.68,1.28c-3.52.37-7.03.7-10.51.97-.75,0-1.51,0-2.26,0-.1-3.57.14-7.19,0-10.75Z"/>
          <path class="st55" d="M427.53,359.67c.56-1.02,2.11-.36,3.01-.58.47-.12.39-1.11.7-1.15,1.35-.16,1.94,1.48,3.77,1.05.36-.08,2.68-1.3,3.03-1.57,1.25-.99.14-2.69,2.48-.8.69.56.34,1.86,1.91,1.26,2.94-1.1.65-1.59.36-2.01-.19-.26-.63-2.88-.53-3,.88,1.09,2.41.51,3.12,1.06,3.47,2.71-1.04,2.9-1.62,4.04-.42.82.57,1.02.76,1.69-5.65-.04-11.33-.04-16.98,0Z"/>
          <path class="st55" d="M437.15,352.31c-2.89,1.62-4.51-2.23-1.66-1.46.55.15,1.55.81,1.66,1.46Z"/>
          <polygon class="st55" points="435.45 354.59 433.19 356 434.88 356.84 432.62 356.84 435.45 354.59"/>
        </g>
      </g>
    </g>
    <g>
      <path class="st61" d="M63.12,420.79c1.52.47,1.96,1.9.57,2.83.04,2.91.21,5.73.51,8.45,12.87-.02,25.72.19,38.53.6.88-.25.97.07.26.96.34,3.68.25,7.32-.26,10.92-.03.18.02.38,0,.57h-39.61v-12.45h-13.01v-11.88c4.33-.02,8.68.02,13.01,0Z"/>
      <path class="st4" d="M22.38,324.59v-24.9h14.15v12.45h13.58c.02,3.95-.02,7.93,0,11.88,0,.19,0,.38,0,.57.3.85.01.94-.85.28l-26.88-.28Z"/>
      <path class="st43" d="M63.12,372.12c.51.1.48.3,0,.57l1.13.96-.07,9c-.57.22-.74.68-.5,1.36l.31-.48c3.84.14,7.69.3,11.57.48.16-.49.35-.49.57,0,.7-.67.94-.35.57.57.87,1.39,1.05,3.13.53,5.21.37,2.71,0,4.93-1.1,6.67h-13.01v-11.88h-13.01c-.02-3.95.02-7.93,0-11.88,0-.19,0-.38,0-.57.16-.49.35-.49.57,0,4.19-.11,8.21-.36,12.08-.75l.37.75Z"/>
      <path class="st43" d="M76.13,408.34l1.12,1.19c.18,1.23.38,11.57-.11,11.92-2.33,1.64-10.63.2-14.03-.66-.05-4.33.03-8.69,0-13.02,3.84.53,7.7-.03,11.54.04.64.01,1.26.52,1.47.53Z"/>
      <path class="st4" d="M89.71,324.03v-11.88h13.58v11.6c0,.61-1.38.82-1.96.89-2.94.33-8.34-.52-11.62-.6Z"/>
      <path class="st100" d="M76.7,384.57c4.01-.64,8.12-.84,12.33-.61,1.6-1,1.54.26.68,1.74l.87.78c.14,1.27.24,8.53-.07,9.39-.14.41-.85.51-1.37.58l-.5,1.13c-4.09-.25-8.07-.07-11.95.57-.74-.27-.54-1.08-.57-1.7-.16-3.86-.2-8.1.57-11.88Z"/>
      <path class="st34" d="M89.15,396.45l1.35.56c.81,1.59.86,10.14-.79,11.33-4.29,1.68-9.31,1.75-13.58,0,0-.19,0-.38,0-.57l.57-9.05c0-.19,0-.38,0-.57.02-.57-.03-1.14,0-1.7h12.45Z"/>
      <path class="st38" d="M102.73,445.12h-39.61,39.61Z"/>
      <path class="st102" d="M50.1,324.59c-.02,3.19.09,6.43,0,9.62-1.38-1.26-.04-8.54-.56-9.06l-27.16-.56h27.73Z"/>
      <path class="st100" d="M76.13,407.77c0-2.88-.48-6.52.57-9.05-.15,2.92.59,6.49-.57,9.05Z"/>
      <path class="st90" d="M76.13,359.67c.58,4.33.35,8.67,0,13.01-.16.49-.35.49-.57,0-3.95.48-7.92.48-11.88,0-.16.49-.35.49-.57,0,0-.19,0-.38,0-.57-.59-3.91-.72-7.99,0-11.88,0-.19,0-.38,0-.57,3.2.63,10.39-.86,13.01,0Z"/>
      <path class="st66" d="M50.1,344.4c.6-1.77.78-4.23.57-7.36,3.7-.46,8.06-.45,11.88,0,.03,3,.21,6.01.57,9.05,0,.75,0,1.51,0,2.26-4.33-.02-8.69.01-13.02,0-.03-1.32.04-2.65,0-3.96Z"/>
      <path class="st68" d="M50.1,362.5l.42-1.98c1.27-.22,11.49-.19,11.95.19.43.36.81,10.74.36,11.08-4.08-.09-8.13.02-12.17.33h-.57c.01-3.2-.06-6.42,0-9.62Z"/>
      <path class="st73" d="M63.12,360.24c.01,3.95-.02,7.93,0,11.88h-12.45c3.63-1.3,8.07-.21,11.89-.57-.39-1.69.31-2.35-1.71-3.11,2.29-.84,2.36-2.93.57-4.53,3.26-1.38-.57-1.38-.57-1.69l1.7-.56c-.63-.99-1.32-.66-2.19-.7-3.17-.16-6.49-.04-9.69-.14l-.57,1.69c.01-.76-.02-1.51,0-2.27h13.02Z"/>
      <path class="st30" d="M89.71,408.34c5.25-1.54,10.6-1.56,15.84,0-.02,1.57-.5,3.39-1.43,5.45,2.26,1.82,2.35,3.1.27,3.85.37,1.64,2.03,2.29,4.98,1.96l.71,1.19c-1.68.95-3.57,1.4-5.66,1.36v9.73s-1.13.8-1.13.8c-.19,0-.38,0-.57,0-12.57-.64-25.48-.89-38.72-.74-.07-2.77-.17-5.54-.32-8.31,0-.35-.55-1.5-.57-2.83,4.52-.02,9.06.02,13.58,0-1.01-3.85-.57-8.38-.57-12.44,4.52.07,9.06-.02,13.58,0Z"/>
      <path class="st10" d="M63.68,423.62l.6-.29-.04,8.22c9.72.57,19.45.21,29.16.43.58-1.62,3.96-.24,5.69-.1,1.21.1,2.47.15,3.63-.33.03.37-.02.76,0,1.13-12.88-.02-25.79.09-38.67-.09l-.86-.81c.09-2.41.55-5.86.49-8.16Z"/>
      <path class="st64" d="M75.57,372.69h.57c1.61,2.04,1.58,4.71,0,6.79.04,1.5-.03,3.02,0,4.53h-.57c-3.94-.42-7.9-.42-11.88,0-.57-.19-.51-.24-.58-.82-.38-2.99.04-7.3.02-10.5h.57c3.94.48,7.94.48,11.88,0Z"/>
      <path class="st96" d="M63.68,384.01l.53-1.32c-.01.29.07.74.4.77,3.51.3,7.65-.72,10.95.55-2.95-.58-9.47.79-11.88,0Z"/>
      <path class="st88" d="M89.71,385.7c.42-.63.54-1.05,1.41-1.17,1.23-.16,11.09-.26,11.52.13,1.45,1.31.29,3.03.31,4.13.05,2.95.82,6.3-.22,8.79,1.03-.22,3.46.69,4.19.58.66-.1-.07-1.38.89-1.14-.3,1.84.43,4.79.02,6.42-.16.64-1.16.12-1.15.65,0,.47,1.7-.1,1.15,1.7-3.1.83,2.41,1.21-1.71,1.42l1.69,1.13c-.71,1.1-1.55,1.1-2.26,0-5.27-.01-10.57.02-15.84,0-.33-3.85.72-8.31-.57-11.88,1.17-2.33-.54-9.11.57-10.75Z"/>
      <path class="st14" d="M110.08,420.79c4.59-.62,9.21-1.18,13.85-1.26,27.73-.06,55.47-.11,83.2.12,2.31.02,4.62.2,6.93.39s4.62.46,6.93.76c10.17-1.12,20.38-1.12,30.56,0,4.33,0,8.68,0,13.01,0-.1,3.95.14,7.94,0,11.88-53.7.72-107.56.09-161.27,0v-11.89c2.25-.02,4.53.03,6.79,0Z"/>
      <path class="st103" d="M251.55,408.34v12.45c-10.18,0-20.38,0-30.56,0l1.69-1.12c-3.8-2.06-.68-3.11,2.27-2.28-.53-1.79-.96-1.95-2.83-1.69l.28-1.12,1.98-.59c-.77-1.52-1.48-2.78-3.38-2.82l1.69-1.68c-2.13-1.19-4.15-.08-5.97-.15-2.47-.09-8.66-1.81-8.47,1.28-2.42-.02-4.31-2.11-6.78-1.7-.66.11.75,1.02,0,1.14l-.84-1.7h50.93Z"/>
      <path class="st91" d="M141.21,384.57c.85.41,1.53.81,2.05,1.19l-.05,19.95c-.19.32-3.69.14-4.26-.2-1.08,0-1.46-.67-1.12-2.05-2.86.06-4.16-2.94-1.71-4.18-.56.02-.95-.19-.84-.64.52-2.2-.95-1.89-2.17-.57l-.94-1.05c-.36.82-.37,1.94.57,1.7.56,2.07.4,4.68,0,6.79-.53.29-3.92.49-4.19.26-.79-.66-.88-19.6-.34-20.47.18-.28,4.17-.23,4.25.04-.28,1.97-.19,3.79.28,5.46,2.13.78,3.62.61,5.91.6.7-.19.16-1.24.31-1.73.04-2.01.42-3.71,1.13-5.09.37-.02.76-.01,1.13,0Z"/>
      <g>
        <path class="st84" d="M63.12,348.36c8.86.04,17.74-.03,26.6,0v11.88h13.58v11.88h161.27c.89.24.93,1.09.12,2.55l.16,7.79c.87.76.15,2.46-.85,2.1l-.5,1.13h-11.14c.68,7.55.07,15.11-.8,22.63l-.39,1.13h-28.01l-.65-.61c-3.82-.07-7.65-.17-11.48-.31-3.43.81-6.9.73-10.4-.22-12.25,1.11-24.53,1.11-36.78,0-1.68-.26-2.46-.88-2.33-1.85,4.94-.29,9.87-.24,14.78.16.24-.58,1.09-1.06,2.55-1.44v-19.4c-.72-.25-.57-.46.28-.66-5.71-.2-11.36-.39-16.98-.57-.19-1.59-.12-3.95.85-1.37.35.94-2.77,4.05-4.45,1.45l-5.27,1.11c-3.48-1.05-3.95-.04-5.2,2.84-3.79-1.07-2.7,3.56-1.58,5.86-1.05,2.86-1.23,6.1-.54,9.71.57,2.51-.63,3.9-3.61,4.17-1.1,1.11-2.29,1.11-3.4,0-.77-1.9-.1-2.55,2.04-1.94,2.68.55,3.51-.31,2.49-2.59-.39-5.76-.45-11.6-.17-17.52-.16-.86-.86-1.44-2.1-1.72-.62,1-1,1-1.13,0-.66,1.36-1.04,3.05-1.13,5.09,4.34,2.84-6.01,4.44-6.22,1.13-.53-.48-.64-1.48-.33-3-.51-2.83-1.2-3.78-4.19-1.78v19.4c.39.36.12.56-.56.66.83.7.45,1.46-1.13,2.26-6.19,1.55-12.49,1.56-18.67,0l-2.13-.57c.32-1.48.47-2.96.46-4.44,1.84-2.8.47-4.57-4.08-5.31-.08-4.13-.08-8.25,0-12.35-4.17-.2-8.28-.19-12.34.03.32-1.71-.86-1.1-1.95-1.13-3.68-.12-7.39.09-11.06,0l-.57-.57c-1.62-1.27-1.58-3.24,0-4.53,1.37-3.37,2.78.42,2.31,2.83.41.14,8.37.29,8.69,0,.19-.17,1.11-1.39,1.22-1.61.27-.56.21-11.81-.09-12.34-2.33-.52-1.66-3.09-.8-4.89-.7-.98-.96-1.62.07-2.41l-2.46-.15c-2.25.33-4.46.41-6.63.25.17,1.42.3,10.95-.51,11.54-.47.34-.95.64-1.52.77.19-4.68.09-9.28-.28-13.79-.99,1.17-11.72,1.56-12.26,1.24l-.75-1.24c0-.19,0-.38,0-.57l.53-6.49c1.48.76,2.06,2.54,1.76,5.33.4.27,9.25-.02,9.68-.23,1.58-.78-.88-2.78-1.91-3.37l-.61-1.92c-3.1-.1-4.33-.98-3.67-2.62-1.08.47-2.32.62-3.71.44-.69,4.47-2.28,1.8-2.06-1.32,0-.19,0-.38,0-.57Z"/>
        <g>
          <path class="st52" d="M63.12,348.92l.57,3.39.56-3.39c2.26.76,6.1-.86,7.35,1.13l-2.83.57c.83.03,5.46.93,5.66,1.14.44.45-2.35,1.5,1.43,3.04.28.11.8-.26.82-.22.28.54-.64,3.21.01,4.23l-12.45.3-.29-6.23-.85,6.23c-.01-3.39.02-6.8,0-10.19Z"/>
          <path class="st96" d="M76.13,359.67c.57.19.51.25.58.82.5,3.9-.4,8.74,0,12.76l.81-5.18-.25-8.4c1.73,1.04,3.64-1.22,4.23,1.13,1.78-1.67,11.12-1.58,5.95,1.69l3.4.29c.02.47-2.7,1.17-2.85,1.7-.53,1.82,3.14,1.85-.55,1.98-.17,1.05,1.04.3,1.59.65.78.5.32,7.69.34,8.98.02,1.43.25,1.52.05,3.65-.16,1.68,1.4,1.87-1.41,2.28l1.7,1.41h-12.45c-.49-.63,1.09-5.79-1.13-3.96-.06-2.25,0-4.54,0-6.79,0-4.33,0-8.68,0-13.01Z"/>
          <path class="st16" d="M188.74,402.11l-.38,1.03c.54,2.39-.28,3.18-2.45,2.37-.27-6.38-.45-12.86-.57-19.43l.57-.38c1.8-1.67,2.74-.35,2.83,3.96,1.61-.79,8.76.12,9.62-.57-.16-2.53-.14-5.48,2.83-3.4.48,6.33.46,13.42,0,19.8.04.47-2.3.41-2.47.29-.18-4.28-.16-8.63-.08-12.92,0-.04.42.37-.28.19-1.12.18-3.1-.28-3.96,0,.27,6.26-2.89,5.86-2.83,0-.65-.21-2.02.14-2.83,0-.03,1.13.05,2.27,0,3.4-.91,1.53-.98,3.6,0,5.09,0,.19,0,.38,0,.57Z"/>
          <path class="st71" d="M207.98,385.7c1.22-.75,11.04-.87,11.64-.41.41.31.45,4.8.09,5.11-2.6-.55-3.68-.04-3.24,1.53,0,.38,0,.75,0,1.13-1.45,2.89-.96,5.46,3.16,4.55.34.3.44,7.86.18,8.18-.1.12-2.94.1-3.06,0-.13-.12.15-3.43.23-3.59.48-1.02.68.96-.51-.08.74-2.93-3.03-1.35-5.09-1.7-.15.23-.29.18-.42-.17.18.85.29,5.59.01,5.81-.09.07-2.14-.15-2.21-.23-.3-.32-.32-7.99.41-8.47l2.21-.34-1.01-.62c.34-2.55-.27-4.42-1.82-5.6-.82-.82-.8-3.95-.57-5.09Z"/>
          <path class="st94" d="M109.52,406.64l-.28-21.17c.39-.62,3.59-.35,4.52-.15l.28,15.66c2.34.14,5.26,1.07,7.92.56v5.1s-12.45,0-12.45,0Z"/>
          <path class="st21" d="M207.98,398.15c-.11-.7.49-2.35-.56-2.26v9.62s-1.41-.58-1.41-.58l-.02,1.15c-1.57-.02-2.46-2.76,0-2.27.83-.53,0-.68-.57-.59-2.75.46-1.1,1.28-2.53,2.28v-20.94c1.97-.34,2.24.96,2.68,1.12.56.21,1.64-.13,1.84.02,1.35.94-1.49,1.04-1.13,1.69,2.23-.42.6,3.27,1.13,3.97.71.25,1.07-.56,1.13-.56,1.05-.14,2.3.1,3.39,0-1.25,1.66-.06,4.82-.57,6.22-1.34.11-2.47.49-3.4,1.13Z"/>
          <path class="st3" d="M126.49,408.34c.08-1.99-2.68-1.02-3.69-2.82-1.18-2.09.51-1.49.86-1.72.83-.54-1.4-.33-1.12-1.12l1.69-1.13c-1.68-.65-3.26-2.22-3.39-3.97.81.36,2.87.33,3.36.6.1.06-.61,1.68.88,2.22l-.03-1.7,2.01-.55v8.48c.46.14.52-.56.57-.57.23-1.36.8-1.63,1.28-.3l2.12.3v.62c-3.08.49-2.33.38,2.26-.34l-.75-.26c.42-2.88.67-5.71.75-8.52,1.82-1.11,2.39-.26,2.83,1.7.01.61-.1,2.73,0,2.83.21.2,2.63-.21,2.84,0,.23.23-.23,2.7,0,3.4,2.88.98,4.38.42,4.53-1.7.04.45,1.1,1.76.57,2.83h-5.09s2.83.85,2.83.85l-2.83.85c-4.12,0-8.3,0-12.45,0Z"/>
          <path class="st81" d="M127.63,406.07v-21.5s5.1,0,5.1,0v6.23c-.29-.11-1.02.14-1.14,0-.31-.36,2.21-4.34-1.69-3.96l2.26-1.12h-3.4s0,19.8,0,19.8c1.91-.06,3.29.76,2.84-1.7l1.13,1.69c.62,1.1-1.28,1.62-1.7.57-1.07.12-2.38-.17-3.4,0Z"/>
          <path class="st20" d="M198.36,389.1c-1.53-3.51-.52-5.12,3.4-4.53v21.5h-3.4s0-13.01,0-13.01c.05,0,.11-.71.56-.57.36,1.72-.46,12.57,0,13.02.08.08,2.26.11,2.26,0v-19.8c0-.11-1.86.08-2.26,0-.11,1.15.46,2.57-.57,3.4Z"/>
          <path class="st97" d="M109.52,406.64l-.57-22.07h5.1s0,16.41,0,16.41c-.08,0-.12.46-.28.55l-.28-15.83h-3.97v20.94Z"/>
          <path class="st85" d="M188.74,402.11c-.04,1.32.03,2.65,0,3.96h-3.4c.5-6.91-.43-13.83-.58-20.65-.04-1.73,3.03-.52,3.99-.86v5.1s-.54-.31-.54-.31c-.65-2.23,1.48-4.3-2.29-3.66v19.8h2.26c-.58-1.44-1.4-3.84.57-3.4Z"/>
          <path class="st83" d="M207.98,385.7c.07-.35.26-.6.54-.81.55-.44,10.7-.54,11.38-.07.73.51.75,5.77.53,5.98s-2.77-.23-3.6-.01c-.58.15-.32,1.11-.36,1.14-.1.08-2.43-.53-2.26-1.13,1.22.22,2.31-.88,3.25-1.04,1.56-.27,3.54,1.33.14-1.79,2.57,1.16,1.56-.04,1.7-2.27h-11.32Z"/>
          <path class="st83" d="M216.46,393.06c0,.73-.14,3.82,0,3.96.18.18,3.19-.13,3.96,0v9.05h-3.96s0-3.96,0-3.96l1.13-.57-.56,3.96h2.26c-.22-2.2.32-4.91.02-7.03-.13-.89-2.8.29-3.47-.65-.28-.4-1.55-5.31.63-4.76Z"/>
          <path class="st78" d="M141.21,384.57c.75.02,1.51-.02,2.27,0,.4,6.22-.55,13.1,0,19.24-.1.52.15,2.12,0,2.27-.17.16-4.25.29-4.53-.57h3.96c-.52-2.54.69-19.09,0-19.81-.37-.39-3.31.91-1.7-1.13Z"/>
          <path class="st104" d="M211.37,397.02c-.38,1.06-2.16.13-2.3.88-.38,2.13.34,5.32.04,7.61h1.7s0-5.66,0-5.66c.46-.14.51.56.56.57v6.22s-3.4-.57-3.4-.57c.76-2.74.42-5.19,0-7.92.65-1.55,1.93-1.18,3.4-1.13Z"/>
          <path class="st72" d="M191.57,393.06c1.3.43,0,3.82.85,3.96,2.94.51.31-3.41,1.98-3.96l.57,4.52c-4.7.65-3.27-.81-3.39-4.52Z"/>
          <path class="st85" d="M188.74,396.45c-.07,1.69.04,3.4,0,5.09-.33-.07-.99.11-1.13,0-.2-.15-.15-4.89,0-5.09.07-.09.81.05,1.13,0Z"/>
          <path class="st78" d="M140.07,384.57c-.17,1.79-.59,3.37-1.13,5.09v-5.1c.37-.03.76.03,1.13,0Z"/>
        </g>
      </g>
      <path class="st96" d="M75.57,372.69c-3.44.95-8.44.95-11.88,0h11.88Z"/>
      <g>
        <path class="st17" d="M126.49,408.34c4.12-.79,8.41-1.28,12.45,0,1.13,0,2.26,0,3.4,0,7.16-1.11,14.35-1.11,21.5,0,12.27,0,24.52,0,36.78,0l6.39,1c1.77-1.15,16.08-.8,16.46-.05l-.19,1.42c1.38,1.07,2.6,2.6,1.41,4.18,2.31,2.16.98,3.88-1.97,3.36,1.47,1.87.05,2.18-1.71,2.55-36.94.02-73.97-.45-110.91,0l-7.92-.57c-.18-1.11,1.35-.31,1.7-.57.14-.11-1.26-3.26-1.14-3.39.18-.19,2,1.07,2.26-.56-1.28-.5-3.93.67-3.4-1.14h1.7c-1.76-2.49,2.22-1.44-.57-2.55,3.56-1.96.04-.58.56-2.83.15-.63,2,.08,2.27-.85.75,0,1.51,0,2.26,0,6.26.01,12.44,0,18.67,0Z"/>
        <path class="st103" d="M220.99,419.65c-.95-.29-3.67.7-3.96-.55,1.31,0,3.24-1.41,3.96.55Z"/>
      </g>
      <path class="st84" d="M132.15,397.02c3.63-.29,3.9-.79,3.96,2.26h-2.26s1.69-1.69,1.69-1.69h-2.26s0,8.76,0,8.76c0,1.08-3.62.91-4.52.84v-.55c.99.27,1.58-.34,2.26-.57.46-.15,1.43.31,1.7-.57-.15-2.21.21-4.62,0-6.79-.88.1-1.22-1.15-.57-1.7Z"/>
      <path class="st81" d="M132.15,397.02c-.05.58.53,1.29.57,1.7l-1.13,4.52c-.1-2.09.4-4.28-.57-6.22.37-.03.76.02,1.13,0Z"/>
      <g>
        <path class="st91" d="M175.16,385.7c1.13.04,2.27-.03,3.4,0v19.81c-2.72-.62-14.31.82-15.85,0-.1-.05.78-1.73-.56-2.26-.06-1.12.01-2.27,0-3.4.2-4.8.34-9.61.41-14.43,4.24-.16,8.44-.06,12.6.28Z"/>
        <g>
          <path class="st92" d="M179.12,385.14v21.5c-1.12-1.01-2.39.03-2.83,0-.15-.01-.89-.59-1.91-.61-4.07-.08-8.17.14-12.24.04-.04-.94.05-1.89,0-2.83.96-.85,1.69-.39,2.18,1.37l13.05-.37.05-17.33c-1.02.02-1.8-.18-2.27-1.21-.49-.16-.49-.35,0-.57,1.25-.29,2.57-.29,3.96,0Z"/>
          <path class="st91" d="M179.12,385.14c-1.31-.03-2.65.04-3.96,0-4.29.35-8.72.54-13.01,0,.02-.19-.01-.38,0-.57,5.56.35,11.57-.73,16.98.57Z"/>
          <path class="st97" d="M175.16,385.14v.57c-4.13-.15-8.32.11-12.45,0-.84.84,1.31,12.13-.56,14.15-.06-4.49-.44-10.4,0-14.71,4.33.09,8.69-.12,13.01,0Z"/>
          <path class="st40" d="M167.24,390.23c1.84.31,4.29-.22,6.22,0v11.32h-6.22c-.45-3.73-.49-7.69,0-11.32Z"/>
          <path class="st82" d="M167.24,390.23v11.32c-1.29-3.62-.23-8.07-.56-11.88.45-.14.51.56.56.57Z"/>
        </g>
      </g>
      <g>
        <path class="st3" d="M142.34,408.34c.14-1.21,2.12-.84,2.3-1.48.69-2.42-.81-9.71.07-11.85.2-.49,1.08.01,1.03-.54.04-.53-.98,0-1.15-.65-.08-.31-.28-6.27,0-6.41.47-.23,1.71.32,1.71-.31-1.42.26-2.52-1.49-1.7-2.54,1.24-1.59,2.31,3.39,2.54,3.4,2.51-1.85-1.77-3.15-.84-3.97.13-.11,1.71.93,2.55.9,1.06-.04,2.24-1.34,2.83-1.47.34-.07-.02,1.15,1.1,1.2,1.77.08,5.36-1.32,6.78-1.22.35.03.28,1.17.66,1.19,2.42.14,1.58-1.37,1.64-2.86,1.74,2.69,4,.56,5.94,1.98l-5.66.85c.51.06.48.25,0,.57.39,4.89.39,9.8,0,14.71,1.58.9,1.56,2.48,0,3.4.07,1.72.48,2.6,1.24,2.64l11.65-.15c1.01-.06,1.43.25,1.26.91h-14.14s1.69,1.7,1.69,1.7c-7.16,0-14.34,0-21.5,0Z"/>
        <g>
          <polygon class="st27" points="158.18 392.49 157.62 398.15 148 398.15 148 392.49 158.18 392.49"/>
          <path class="st53" d="M148.56,397.59l.57-4.53c2.42.59,5.28.88,7.63,0l.29,4.54h-8.49Z"/>
        </g>
      </g>
    </g>
  </g>
</svg>