<?xml version="1.0" encoding="UTF-8"?>
<svg id="Layer_1" xmlns="http://www.w3.org/2000/svg" version="1.1" viewBox="0 0 612 792">
  <!-- Generator: Adobe Illustrator 29.8.2, SVG Export Plug-In . SVG Version: 2.1.1 Build 3)  -->
  <defs>
    <style>
      .st0 {
        fill: #5c6f7c;
      }

      .st1 {
        fill: #1c3b61;
      }

      .st2 {
        fill: #e2e4dd;
      }

      .st3 {
        fill: #6e7679;
      }

      .st4 {
        fill: #19619c;
      }

      .st5 {
        fill: #154c7d;
      }

      .st6 {
        fill: #112635;
      }

      .st7 {
        fill: #154f80;
      }

      .st8 {
        fill: #fff;
      }

      .st9 {
        fill: #2478b3;
      }

      .st10 {
        fill: #15426d;
      }

      .st11 {
        fill: #2d232c;
      }

      .st12 {
        fill: #bbcbd3;
      }

      .st13 {
        fill: #4e616e;
      }

      .st14 {
        fill: #173244;
      }

      .st15 {
        fill: #8e9da5;
      }
    </style>
  </defs>
  <g id="XNZQpc.tif">
    <g>
      <path class="st11" d="M50.99,439.2l.21.42.21-.42c.28.01.59-.04.85,0,.06.19.24.4.43.43.42.05.87-.05,1.28,0,.98.13,1.13,1.2,1.28-.43,3.13-.15,6.22.47,9.4.43.69,0,1.42,0,2.14,0,1.13.38,4.33,1.07,3.85-.43.28,0,.57,0,.85,0-.26,1.27,1.09,1.34.85,0,.43,0,.85,0,1.28,0,.45,1.19.98.83,1.71,0,1,0,2,0,2.99,0-.17,1.21.6,1.21.43,0,.57,0,1.14,0,1.71,0l.21.42.21-.42c.71,0,1.42,0,2.14,0,.06.64,1.22.64,1.28,0,.85,0,1.71-.01,2.56,0l.43.43c.43.02.86-.02,1.28,0,1.53.08,1.19-.42,1.28-.43.81-.06,1.74-.03,2.56,0-.19,1.65.65.47,1.28.43.71-.05,1.43.04,2.14,0,.57-.04,1.5.46,2.14-.43.57-.03,1.14,0,1.71,0-.17,1.21.6,1.21.43,0,1.28-.02,2.57,0,3.85,0,.01,3.04,1.34.47,1.47.46.55-.02,1.74,1.22,1.52-.46.28,0,.57,0,.85,0-.42,1.51,2.28.99,2.99,0,.43.01.86-.01,1.28,0,.04.38-.22.77.26.87.59.12,3.92.07,3.16-.87.28.02.57-.02.85,0l1.28.43c.28.03.59-.05.85,0,.88.16,2.28,1.24,2.99-.43.42,0,.86-.01,1.28,0-.17,1.21.6,1.21.43,0,.28.01.57,0,.85,0,2.81.09,5.98.42,8.97.43.43,0,.85,0,1.28,0,.69.77,1,.55.85-.43.28,0,.57,0,.85,0l.21.42.21-.42c.71,0,1.42,0,2.14,0l.21.42.21-.42c1.43,0,2.68.43,3.85.43l.22.42.21-.42c.09,0,.76-.42,1.71-.43l.43.43c.54,0,1.22-.43,1.71-.43-.26,1.27,1.09,1.34.85,0,.28,0,.57,0,.85,0l.21.42.21-.42c2.06,0,4.28,0,6.41,0l.21.42.21-.42c1.71,0,3.42,0,5.13,0-.47,1.27,2.1,1.38,1.71,0,1.14,0,2.28,0,3.42,0,.14,0,.28,0,.43,0,.43,0,.85,0,1.28,0,.06.64,1.22.64,1.28,0,.85,0,1.71,0,2.56,0-.47,1.27,2.1,1.38,1.71,0,.43,0,.85,0,1.28,0,.45,1.07,1.5,1.38,1.28,0,.85,0,1.71,0,2.56,0-.16.97.19,1.21.85.43.28,0,.57,0,.85,0l.43-.43c.71,0,1.42,0,2.14,0l.21.42.21-.42c.28,0,.57,0,.85,0-.47,1.27,2.1,1.38,1.71,0,.57.01,1.14-.01,1.71,0-.47,1.27,2.1,1.38,1.71,0,.28,0,.57-.01.85,0l.21.42.21-.42c2.14.07,4.29.35,6.41.43,1.44.06,2.71-.03,3.85,0,.57.01,1.14,0,1.71,0,4.28-.04,8.81.07,13.25,0,.7-.01,1.21-.43,1.28-.43.43,0,.85,0,1.28,0l.21.42.21-.42c.28,0,.57,0,.85,0,.45,1.07,1.5,1.38,1.28,0,.43,0,.85,0,1.28,0-.17,1.21.6,1.21.43,0,.43,0,.85,0,1.28,0l.21.42.21-.42c.43,0,.85,0,1.28,0l.21.42.21-.42c.57,0,1.14,0,1.71,0l.21.42.21-.42c1.42,0,2.85,0,4.27,0,.06.64,1.22.64,1.28,0,1,0,2,0,2.99,0l.21.42.21-.42c.57,0,1.14,0,1.71,0-.17,1.21.6,1.21.43,0,.28,0,.57,0,.85,0l.43.43c.14,0,.28,0,.43,0l.43-.43c.28,0,.57,0,.85,0-.38,1.27,1.61,1.36,1.28,0,.71,0,1.42,0,2.14,0-.26,1.27,1.09,1.34.85,0,.43,0,.86,0,1.28,0l.43.43c.43,0,.86-.02,1.28,0,.94.04,1.62.03,2.56,0,.28,0,.57.02.85,0l.43-.43c.42-.04.86.02,1.28,0-.56,1.26,2.13.53,3.42.43.56-.05,1.14.03,1.71,0,.7.76,1,.56.85-.43.43-.02.86.02,1.28,0l.43.43c.28-.01.57,0,.85,0l.43-.43c.57-.01,1.14,0,1.71,0l.21.42.21-.42c.57,0,1.14-.01,1.71,0,.13.15.27.3.43.43.91.77,1.45.7,1.28-.43.57.02,1.14-.03,1.71,0-.15.98.16,1.19.85.43.57.03,1.14-.04,1.71,0h.43c.28.02.57-.02.85,0,1.09.08,4.19,1.21,3.85-.43,1.07.04,2.06.42,2.99.43.86.57.94.69.85-.43.71,0,1.43-.02,2.14,0,.06.64,1.22.64,1.28,0,.26.04.76-.07.85,0,.07.06-.19.85.22.87.55.03,1.06-.79,2.11-.89,2.86-.29,5.8,1.08,7.67.74.46-.08.64-.71.69-.71.83-.08,1.72.04,2.56,0,.45,1.07,1.5,1.38,1.28,0,.99-.03,2,.02,2.99,0,.06.64,1.22.64,1.28,0,.28,0,.57,0,.85,0l.21.42.21-.42c.28,0,.57,0,.85,0,.06.64,1.22.64,1.28,0,.71,0,1.42,0,2.14,0l.21.42.21-.42c1.68,0,3.41.43,4.7.43.11,0,.33-.43.43-.43,1.14,0,2.28,0,3.42,0l.64.43.22-.43c1.56,0,3.14,0,4.7,0l.21.42.21-.42c.57,0,1.14,0,1.71,0l.21.42.21-.42c2.89,0,5.65,0,8.55,0l.21.42.21-.42c1.6,0,3.18,0,4.7,0,.55.71,2.44.71,2.99,0,.71,0,1.42,0,2.14,0l.21.42.21-.42c.76,0,1.53.43,2.14.43l.43-.43c2.42,0,4.85,0,7.27,0-.17,1.21.6,1.21.43,0,2.84,0,5.7,0,8.55,0,.06.64,1.22.64,1.28,0,1,0,2,0,2.99,0l.21.42.21-.42c2.61,0,5.34.43,7.69.43l.85-.43c2.13,0,4.28,0,6.41,0l.21.42.21-.42c3.14,0,6.26.01,9.4,0,.47,1.05,3.89.95,4.91.89,1.57-.08,3.42-.83,4.49-.89.14,0,.29,0,.43,0,.28-.01.57.01.85,0-.38,1.27,1.61,1.36,1.28,0,.28,0,.57,0,.85,0-.24,1.3.65.82,1.48.86,2.27.09,4.6,0,6.86,0h7.27c.6,0,3.19.07,3.36.03.46-.11.23-.86.27-.88.1-.05.29.04.43,0,.11-.04.28.02.43,0l.21.42.21-.42c.84-.06,1.72.02,2.56,0,.14,0,.28,0,.43,0,.64.87,2.47,1.52,2.14,0,1.14-.02,2.28.01,3.42,0,.82,1.03,3.19.86,4.48.85.82,0,1.75.44,1.5-.85,1.28,0,2.57,0,3.85,0-.38,1.27,1.61,1.36,1.28,0,.43,0,.85,0,1.28,0-.38,1.27,1.61,1.36,1.28,0,.28,0,.57,0,.85,0-.38,1.27,1.61,1.36,1.28,0,1.28,0,2.34.43,3.42.43h.43c.52,0,1.22-.43,1.71-.43,1.14,0,2.28,0,3.42,0,1.01,0,2.42,0,3.42,0,1.28,0,2.57,0,3.85,0l.21.42.21-.42c.43,0,.85,0,1.28,0l.43.43c.57,0,1.14,0,1.71,0l.43-.43c.71,0,1.42,0,2.14,0,.14,0,.28,0,.43,0,.43,0,.85,0,1.28,0,.64,0,1.53,0,2.14,0,.28,0,.57,0,.85,0l.21.42.21-.42c1,0,2,0,2.99,0l.21.42.21-.42c.43,0,.85,0,1.28,0l.21.42.21-.42c.57,0,1.14,0,1.71,0l.21.42.21-.42c.85,0,1.71,0,2.56,0l.21.42.21-.42c1.99,0,3.99,0,5.98,0l.21.42.21-.42c1.14,0,2.28,0,3.42,0,.06.64,1.22.64,1.28,0,.85,0,1.71,0,2.56,0l.64.43.22-.43c.28,0,.57,0,.85,0l.21.42.21-.42c.76,0,1.53.43,2.14.43l.43-.43c.71,0,1.42,0,2.14,0,.06.64,1.22.64,1.28,0,.71,0,1.42,0,2.14,0l.21.42.21-.42c.28,0,.57,0,.85,0,.44.7,2.15.69,2.56,0,.71,0,1.42,0,2.14,0l.21.42.21-.42c.57,0,1.14,0,1.71,0l.21.42.21-.42c.43,0,.85,0,1.28,0,.55.71,2.44.71,2.99,0,.28,0,.57,0,.85,0,.14,0,.28,0,.43,0,.68.72,2.75.71,3.42,0,2.83.01,20.93-.44,21.82.19.72.5.6,15.4-.03,17.35h-6.41c-8.33,0-16.68-.11-25.01,0-.73,0-1.89-.27-2.34.44h-3.85c-.66-.75-2.08-.42-2.99-.43-2.13-.02-4.28,0-6.41,0-1,0-2,0-2.99,0-3.7,0-7.41,0-11.11,0h-3.85c-1.56,0-3.14,0-4.7,0-7.26,0-14.54,0-21.8,0h-1.28c-3.56,0-7.13,0-10.68,0-1.28,0-2.57,0-3.85,0-2.89,0-6.2-.36-8.97.43h-3.42c-.55-.71-2.44-.71-2.99,0h-3.42c-1.28-.79-3.51-.42-5.13-.43-1.14,0-2.28,0-3.42,0-2.7,0-5.42,0-8.12,0-2.13,0-4.28,0-6.41,0-.85,0-1.71,0-2.56,0-1.13,0-2.29-.05-3.42,0-.47.02-1.06-.13-1.28.43h-.85c-2.06-.79-4.95-.42-7.27-.43-.57,0-1.14,0-1.71,0-.43,0-.85,0-1.28,0-10.82,0-21.66,0-32.48,0-1.42,0-2.85,0-4.27,0h-2.99c-8.9,0-17.82-.12-26.72,0-.73,0-1.89-.27-2.34.44h-103.42c-3.66-.71-8.3-.71-11.97,0H69.8c-4.7-.78-9.74-.43-14.53-.43h-2.14c-2.42,0-4.85,0-7.27,0-.3-.76.41-8.13,0-8.13h-8.55c-.62,0,.4-6.04.43-6.42l.42-.21-.42-.21c0-.13.03-.31,0-.43l.42-.21-.42-.21c-.02-.06-.39.06-.43,0v-.86c.78.21,3.21-.48,4.27-.43.28.01.57,0,.85,0,1.44.04,2.84.34,4.48.27.76-.03,1.25.65,1.08-.7,1,0,2-.02,2.99,0Z"/>
      <path class="st2" d="M385.2,141.5c.9,1.37,1.37,5.34.48,6.59-.6.84-3.7-.45-4.32.67l4.7.43c-.29-.29-6.96.21-8.12,0,.05-2.25-.94-6.56,1.48-6.87,1.44-.18,3.76,1.2,3.22-.83h2.56ZM380.92,148.35c-.7-.29-2.31.17-1.7.42.7.29,2.31-.17,1.7-.42Z"/>
      <path class="st8" d="M286.05,457.16h-70.09,70.09Z"/>
      <path class="st8" d="M179.63,457.16h-56.41,56.41Z"/>
      <path class="st8" d="M387.34,456.73v.43h-32.48v-.43c10.82,0,21.66,0,32.48,0Z"/>
      <path class="st8" d="M317.68,457.16h-29.06,29.06Z"/>
      <path class="st8" d="M347.59,456.73v.43h-29.06c.45-.71,1.62-.43,2.34-.44,8.9-.11,17.82,0,26.72,0Z"/>
      <path class="st3" d="M548.46,456.73v.43h-27.35c.45-.71,1.62-.43,2.34-.44,8.33-.11,16.68,0,25.01,0Z"/>
      <path class="st8" d="M96.72,457.16h-26.07,26.07Z"/>
      <path class="st14" d="M485.21,456.73v.43h-21.8v-.43c7.26,0,14.54,0,21.8,0Z"/>
      <path class="st8" d="M202.28,457.16h-20.51,20.51Z"/>
      <path class="st8" d="M118.95,457.16h-19.66,19.66Z"/>
      <path class="st8" d="M69.8,457.16h-14.53v-.43c4.79,0,9.84-.36,14.53.43Z"/>
      <path class="st8" d="M215.11,457.16h-11.97c3.66-.71,8.3-.71,11.97,0Z"/>
      <path class="st14" d="M504.87,456.73v.43h-11.11v-.43c3.7,0,7.41,0,11.11,0Z"/>
      <path class="st14" d="M462.13,456.73v.43h-10.68v-.43c3.56,0,7.13,0,10.68,0Z"/>
      <path class="st8" d="M447.6,456.73v.43h-8.97c2.77-.79,6.09-.43,8.97-.43Z"/>
      <path class="st8" d="M420.25,456.73v.43h-8.12v-.43c2.7,0,5.42,0,8.12,0Z"/>
      <path class="st1" d="M53.13,456.73v.43h-7.27v-.43c2.42,0,4.85,0,7.27,0Z"/>
      <path class="st8" d="M397.59,457.16h-7.27v-.43c2.32,0,5.21-.36,7.27.43Z"/>
      <rect class="st12" x="548.46" y="456.73" width="6.41" height=".43"/>
      <path class="st1" d="M514.27,456.73v.43h-6.41v-.43c2.13,0,4.28-.02,6.41,0Z"/>
      <path class="st14" d="M412.13,456.73v.43h-6.41v-.43c2.13,0,4.28,0,6.41,0Z"/>
      <path class="st8" d="M428.79,457.16h-5.13v-.43c1.62,0,3.85-.36,5.13.43Z"/>
      <path class="st8" d="M489.91,456.73v.43h-4.7v-.43c1.56,0,3.14,0,4.7,0Z"/>
      <path class="st13" d="M354.86,456.73v.43h-4.27v-.43c1.42,0,2.85,0,4.27,0Z"/>
      <rect class="st1" x="489.91" y="456.73" width="3.85" height=".43"/>
      <path class="st1" d="M451.44,456.73v.43h-3.85v-.43c1.28,0,2.57,0,3.85,0Z"/>
      <path class="st13" d="M423.66,456.73v.43h-3.42v-.43c1.14,0,2.28,0,3.42,0Z"/>
      <path class="st12" d="M403.15,456.73v.43h-3.42v-.43c1.13-.05,2.28,0,3.42,0Z"/>
      <path class="st8" d="M435.2,457.16h-2.99c.55-.71,2.44-.71,2.99,0Z"/>
      <path class="st8" d="M507.86,456.73v.43h-2.99v-.43c1,0,2,0,2.99,0Z"/>
      <rect class="st2" x="347.59" y="456.73" width="2.99" height=".43"/>
      <path class="st8" d="M517.26,457.16h-2.99v-.43c.92,0,2.33-.32,2.99.43Z"/>
      <path class="st2" d="M405.71,456.73v.43h-2.56v-.43c.85,0,1.71,0,2.56,0Z"/>
      <rect class="st13" x="53.13" y="456.73" width="2.14" height=".43"/>
      <path class="st3" d="M390.33,456.73v.43h-1.71v-.43c.57,0,1.14,0,1.71,0Z"/>
      <path class="st0" d="M388.62,456.73v.43h-1.28v-.43c.43,0,.85,0,1.28,0Z"/>
      <rect class="st8" x="462.13" y="456.73" width="1.28" height=".43"/>
      <path class="st8" d="M399.73,456.73v.43h-1.28c.22-.55.81-.41,1.28-.43Z"/>
      <path class="st10" d="M529.23,368.19c1.36-.5,1.63,1.17,1.76,1.23.21.1.69-.38.98-.38.4,0,.02,1.38,1.11.86-.41-.67.03-2.42-.09-2.74-.17-.48-2.1-.96-.69-1.88,2.03-1.32,2.76.66,2.87,2.33.06.89-.62,2.43,1.13,3.13,1.37.55.68-.73,1.47-.82-.9,2.8-.1,1.24.66,1.33.29.03.17.67.4.71.29.05,5.88-1.22,5.78-.12-.03.37-1.26-.09-.87,1.29.1.37,1.06-.06.86.63-1.9-.92-6.71.83-7.9.45-.13-.04-.62-2.79-1.06-.22-.19,1.1.67.32,1.16.73.31.26.62,2.58,2.24,2.04l-2.56.43c-.1.77,1.59.7,1.71.86.41.54-1.69,1.79-1.71,1.92-.03.19,1.2.38,1.27,1.31s-.72.49-.82.63c-.65.89.7.84.76.92.21.31-.32.92-.24,1.35.09.47.9.9.74,1.12-.03.04-.83-.09-.89.27-.2,1.19,1.79,2.2-1.24,1.89.2.63,2.83,1.41,2.56,2.34-.47,1.6-1.92-1.2-2.56-.63-.44.39,1.68,1.99,1.28,2.56-.13.18-1.78.05-1.71.86,1.14-.26,2.08-1.01,1.71.63-.2.88-6.63,3.45-.43,2.37,0,.9-1.91.66-2.13.88-.14.14.62,3.62.42,3.82-.18.18-4.59.23-5.06.93-.69,1.04.09,4.29-.08,4.79s-.84.06-.85.48.81,0,.89.48c.02.1-.09,1.85-.13,2.09-.24,1.59-.21,2.11-.33,4.06-.01.18-.39.85-.43,1.71-1.83-1.03-2.42-.27-1.71-2.57-1.38,1.93-1.33,1.1-3.21.94-.78-.06-1.65,1.04-1.49-.51-.74-.17-.27.63-.46.8-.13.11-1.39-.63-1.67-.37-.14.13,1.06,2.86-.42,3.64,2.41-.13-.01.75-.02.88-.02.26.54.93.45,1.04-.89.98-4.44-1.35-4.28,1.07.11,1.57,4.14-.82,4.27-.64,1.09,1.53-1.41,1.64-1.7,2.78.52.1,1.08-.19,1.7-.22v8.98c-1.06-.24-.87-.79-1.04-.8-.44-.02-3.48.51-3.89.36-.12-.04.41-2.31-.84.02-1.14.08-.37-.21-.29-.65.11-.64-1.1-.15-.99,1.07-1.17-.54-1.34-.98-1.71-2.14-.12,3.63-3.56,1.75-5.51,2.15-.92.19.96.92-1.85.15-.27-.07-.68.21-.87.11-.82-.41-.65-1.57-.74-1.55-.82.18.52,1.95-1.93,1.27l.85-.85c-1.48-.51-1.25.93-1.96,1.19-.3.11-5.99-.26-6.3-.33-.33-.07-.31-.88-.48-.86-.66.05-2.32,1.33-3,1.3-.22-.01-.18-.83-.5-.89-1.16-.23-6.12.78-7.55.45-.34-.08-.31-.87-.53-.89-.72-.05-2.58,1.25-3.7,1.48-1.22.25-1.71-1.47-1.62.25-.72.2-.21-.83-.65-.88-.54-.06-3.14,1.08-4.21.91-.36-.06-.22-.8-.29-.85-.82-.62-.86.61-.97.66-.79.42-2.2.49-2.64,1.44-.38.8-.12,2.48-.21,2.57-.14.14-3.5-.13-3.85.43-.13.2.43,1.02.35,1.46-.09.48-.69.54-.78.67-1.64-5.13,1.72-1.97,3.45-3.18.57-.4.55-2.33.34-2.96-.47-1.42-3.66-.31-4.21-.71-.15-.11,1.25-2.79.03-3.66-.39-.27-3.33-.31-3.45-.19-.23.23.36,3.1-.18,3.88-.6.86-3.43.16-3.66.4-.11.11-.08,2.93,0,3.18.28.89,3.28-.43,3.65.22.56.98.03,3.11.2,4.3-.49,0-1.19.43-1.71.43-.14,0-.29,0-.43,0-1.08,0-2.14-.43-3.42-.43-.43,0-.85,0-1.28,0-.28,0-.57,0-.85,0-.43,0-.85,0-1.28,0s-.85,0-1.28,0-.85,0-1.28,0c-1.28,0-2.57,0-3.85,0-1.99,0-3.99-.02-5.98,0-1.14.01-2.28-.02-3.42,0-.71.01-1.43-.02-2.14,0-.14,0-.29,0-.43,0,.12-.73-.17-4.12,0-4.28.19-.19,3.66.19,3.85,0,.12-.12.12-3.31,0-3.43-.4-.4-3.51.91-3.81-1.04-.34-2.23,2.11-3.11-2.41-3.01-2.18.05-.5,3.51-1.05,4.05-.16.16-2.4-.19-3.15.06-.57.19-.86,3.27-.7,3.35,2.16,1.18,4.7-2.77,3.85,4.28-.14.04-.33-.05-.43,0h-19.23c-.28,0-.57,0-.85,0-.43.01-.86-.02-1.28,0-.28.01-.57-.01-.85,0,.03-.42-.04-.86,0-1.28,1.66.39.5-2.21.85-2.57.18-.19,3.66.19,3.85,0,.15-.15.11-4.1,0-4.28s-.64.42-.85.43c-.56.02-3.3.12-3.41,0-.63-.66.81-4-1.08-4.26-4.53-.63-2.09,3.35-2.78,4.27-.12.15-3.43-.38-3.84,0-.14.13-.17,3.23.41,3.67.45.33,3.01-.67,3.43-.25.16.16-.12,3.55,0,4.28-2.13,0-4.29,0-6.41,0-3.14.01-6.26,0-9.4,0-.14,0-.28,0-.43,0-2.13,0-4.28,0-6.41,0-.86,0-.81.43-.85.43-2.35,0-5.09-.43-7.69-.43-.14,0-.28,0-.43,0-1,0-2,0-2.99,0-.43,0-.85,0-1.28,0-2.84,0-5.7,0-8.55,0-.14,0-.28,0-.43,0-2.42,0-4.85,0-7.27,0-.28,0-.4.43-.43.43-.6,0-1.37-.43-2.14-.43-.14,0-.28,0-.43,0-.71,0-1.42,0-2.14,0-1,0-2,0-2.99,0-1.52,0-3.1,0-4.7,0-.14,0-.28,0-.43,0-2.89,0-5.65,0-8.55,0-.14,0-.28,0-.43,0-.57,0-1.14,0-1.71,0-.14,0-.28,0-.43,0-1.56,0-3.14,0-4.7,0-.28,0-.57,0-.85,0-1.14,0-2.28,0-3.42,0l-.42-.43v.85c-1.29,0-3.03-.44-4.71-.43-.14,0-.28,0-.43,0-.71,0-1.42,0-2.14,0-.43,0-.85,0-1.28,0-.28,0-.57,0-.85,0-.14,0-.28,0-.43,0-.28,0-.57,0-.85,0-.43,0-.86,0-1.28,0-1,.02-2-.03-2.99,0-.43.01-.86-.02-1.28,0-.84.04-1.73-.08-2.56,0-.7-.21-1.47.58-1.51-.47-.1-2.43.16-4.8.23-7.23,2.25.49.84-.16,1.28-.43.18-.11.93.09,1.28,0-.34,1.85,2.45-.49,3.64.85l-.22-.85c1.42.01,3.54.5,4.27-.86,1.01,2.08,4.96.14,6.21.51.29.09.15.73.21.77.14.1.79-.57,1.19-.74.46-.19,1.36-.04,1.36-.11v-7.06c0-.26-1.2-.64.76-.97,2.28-.37,6.01-.07,8.44-.07,2,0,2.36.36,2.51.36,3.86.03,4.08-.33,8.16.47.24.05.13-.77.49-.85,1.06-.25,5.66.07,6.13-.44.06-.06-.5-.95-.44-1.48.07-.67,1-1.32.86-1.5-.23-.31-1.3.27-.89-2.39.16-1.04.96-.26.89-1.03-1.5.21-.76-1.5-.36-2.51,5.04.05,10.08.14,15.13.17.61,0,1.06-.63,1.27-.67.3-.05.16.85.39.84.4-.01,1.41-.7,2.23-.69,1.54.02,3.95.66,5.43.28.32-.08.27-1.51,1.12-.83.08.06-.11,1.49,1.46.78,1.34-.6.33-1.8.35-2.73.01-.68.49-1.49.38-2.09-.08-.43-.82-.22-.88-.27-.41-.37.67-.44.71-.53.73-1.51.73-3.08,2.28-4.59l.43,1.28c.78.17.27-.71.43-.85.12-.11,1.76,1.23,3.14.87.43-.11.13-.98.49-.87.55.18.46.85,2.07.83,1.84-.03,2.07-1.28,2.2-1.27.4.03,0,.73.5.86.98.26,2.45-.3,3.35.84-.33-3.71.34-.23.64,0,.12.1,1.27-.83,1.96-.86.79-.04,1.32.65,1.67.65,2.13,0,4.82-.55,6.84-.56.91,0,2.48.85,2.96.73.58-.15.62-1.2.68-1.25.15-.11,2.17,1.13,3.56.89.74-.13.98-4.87,1.14-5.81-2.34.22-.24-.69-.17-.79.83-1.32.54-2.22,2.78-2.17s.02.98,1.45,1.04c-.01-.96,2.23-.99,2.96-.86,1.89.34,2.21,3.24,2.38.42,2.64-.06,5.29.08,7.94.01.53-.01.97-.44,1.04-.44,2.25-.06,5.8-.39,7.02-.39.31,0,1.62.73,1.95.39.15-.14.38-3.6.36-4.08-.02-.38-.29.4-.11-1.88.07-.88-.55-2.51.52-3.01.85-.4,5.14-.11,6.29,0s2.07.79,2.58.85c.17.02.15-.75.48-.84,1.88-.54,1.92.79,2.04.8.83,0,2.1-.73,3.38-.38.48.13.09.87.49.87s0-.74.49-.87c1.25-.33,3.79.48,3.96.38s-.18-.8.25-.81,0,.69.41.78c.58.13,6,.3,6.22.08.1-.1.09-2.37,0-2.72-.12-.48-.87-.09-.87-.49s.71.02.86-.5c.12-.43.23-1.96.24-2.52,0-.63-1.77-1.2.62-1.05-.35-1.07-1.62.39-1.28-1.48.02-.11,1.07-.46.87-1.08.83-.14.23,1.05.42,1.28.16.19,1.52-.6,1.7-.43.93.83-1.09.72-.85,1.28,1.48.45,1.22-.83,1.96-1.15,2.04-.87,5.29.22,6.73-.11.44-.1.12-.99.49-.87.59.19,1.65,2.21,1.5-.43.84-.14.22,1.06.43,1.28.15.16,3.19-.89,3,.85.84-1.07,1.07-.99,2.56-.85-1.54-1.49-.13-1.71.04-3.19.15-1.31-.68-3.39-.06-4.65.31-.65,1.3.01,1.31-.49,0-.55-1.44.24-1.28-.64.81-.31,1.23.18,1.68.34,1.16.4,11.32-.4,14.13-.34.23,0,.85.41,1.47.43,1.2.03,8.89.33,9.21,0,.15-.15-.06-3.48,0-4.28,1.6,2.8-.19,4.01,4.14,4.23,1.94.1,1.29-.76,1.67-.8,1.04-.12,5.68.76,6.16.42.04-.03-.51-.79-.43-.85.27-.19,1.54.54,2.28.44.23-.03.45-1.39,1.57-.87.06.42-.1,1.62,0,1.71.36.35,9.53.15,10.01,0s.21-1.2.25-1.72ZM533.71,368.19v.43l.21-.21-.21-.21ZM537.99,372.47v.43l.21-.21-.21-.21ZM528.37,380.17c-.47-.47-1.32.38-.85.85s1.32-.38.85-.85ZM529.23,387.44h-26.5c.33,1.94-.74,6.25-.46,7.84.04.25.99.71,1.11.71h8.33v8.13h8.97v-8.13h7.05c.08,0,1.5-.35,1.5-.43v-8.13ZM523.03,411.82v.43l.21-.21-.21-.21ZM509.99,428.51c-.46-.31-1.17.2-.85.42.46.31,1.17-.2.85-.42ZM509.35,429.36v.43l.21-.21-.21-.21ZM518.33,429.36v.43l.21-.21-.21-.21ZM440.33,431.93c-.66-.3-1.74.21-1.28.42.66.3,1.74-.21,1.28-.42Z"/>
      <path class="st6" d="M70.65,396c.14,0,.28,0,.43,0,.28,0,.57,0,.85,0,.09,0,.64,0,.85,0,64.73,0,128.82-.35,193.17-.43,13.66-.02,27.28.11,40.8-.01,5.06-.05,10.13.07,15.19.01v8.55h-7.27v8.98c0,.41-7.02-.55-8.07.49-.19.18-.01.56-.05.79-.04.26.01.58,0,.86,0,.14,0,.29,0,.43-.04,1.42.02,2.86,0,4.28v.43c0,.43,0,.86,0,1.28,0,.71,0,1.43,0,2.14,0,1.84.74,5.06,0,6.42s-2.85.87-4.27.86-1.39-.49-3.42,0c-.36.09-1.1-.11-1.28,0l-1.28-1.71c.08-.2-.06-.59,0-.86,0-.03.41-.15.43-.43s0-.57,0-.86c0-.27-.43-.4-.43-.43.04-1.56-.03-3.14,0-4.7,0-.09.42-.71.43-1.71,0-.43,0-.86,0-1.28,0-.27-.43-.4-.43-.43,0-.29,0-.57,0-.86,0-.15,0-.26,0-.43-.01-.42-.01-.86,0-1.28.01-.45,0-1.07,0-1.28.02-.41-.07-1.64,0-1.71.24-.24,5.79.02,6.84,0,.15,0,.26,0,.43,0,.57-.02,2.89.11,2.99,0,.32-.31-.25-7.74,0-8.99-18.31.07-36.63-.07-54.94-.01-2.47,0-16.68-.6-17.29.01-.32.32.05,7.61,0,8.98-.1,2.72-.8,5.7-.43,8.55-.71,0-1.42-.01-2.14,0-.79.01-2.03-.3-2.56.43-.57-.03-1.14.03-1.71,0-.13,0-1.28-.86-1.71-.43-.39.39.42,1.83.43,2.14,0,.28.01.57,0,.86,0,.07-.4.34-.43,1.28,0,.28.02.57,0,.86-.06,1.02-.13.97,0,2.14.06.56-.04,1.15,0,1.71-3.26.83-5.71-.15-8.97.43-.08-.16-.42-.35-.43-.43-.4-3.39-.42-12.68-.02-16.06.05-.43.2-1.48.66-1.48h8.76v-8.98h-74.15s-.64.6-.64.64v8.34c-.98-.19-8.97.45-8.97,0v-8.34s-.6-.64-.64-.64h-57.91c-.45,0,.02,8.98-.43,8.98h-8.55c.38,2.08-.5,15.62,0,16.25-.49.68-.12.98-1.06,1.31-1.98.7-8.02-.32-8.74.43-.47.48.59,7.13-.03,8.53-3.18.04-6.27-.58-9.4-.43.23-2.35-.33-5.52-.03-7.5.14-.93.65-.72,1.31-1.05.74.61,1.72.35,2.56.43.28.02.57,0,.85,0,.43,0,.86.02,1.28,0,.63-.03,1.22.11,1.71-.43.26,0,.67.06.85,0,.75-.24.74-.62.85-1.28.1-.62-.04-1.46,0-2.14,0-.14,0-.29,0-.43.03-.71-.02-1.43,0-2.14,0-.14,0-.29,0-.43,0-.28,0-.57,0-.86,0-.14,0-.29,0-.43,0-.57,0-1.14,0-1.71,0-.29,0-.57,0-.86s0-.57,0-.86c0-.71,0-1.43,0-2.14,0-.43-.4-4.28,0-4.28h9.4v-8.98H20.22c.05-2.7-.02-5.42,0-8.13h50.43Z"/>
      <path class="st4" d="M492.47,352.8h.43c-.3.03-.36,0-.43,0Z"/>
      <path class="st4" d="M404.86,299.33c.56.12,1.79,1.14,2.56,0,28.53-.04,58.88-1.28,87.18,0,.07,0,.49.41,1.04.44,1.36.08,6.78-.4,7.32.38.69,1-.13,6.94.19,8.58-.11,0-.37-.71-.65-.73-4.04-.39-6.35.49-10.25-.55-.38-.1-.06.83-.45.87-1.19.12-3.88-.33-5.15-.41-.66-.04-1.3.44-1.64.42-.38-.03-.07-.97-.45-.88-5.07,1.28-7.73.53-12.75.6-.92.01-2.15.65-2.67.64-.19,0-.15-.77-.46-.82-.36-.07-6.55-.37-7.23-.38-.18,0-.14.74-.47.82-.59.14-2.16-.12-2.28,0-.57.58.43,7.77,0,8.98.71-.28,1.49-.63,2.29-.45.49.12,0,1.06.69.87-.25-1.6,5.31-.93,6.01-.21.22.23.1,5.03-.02,5.5-.12.5-1.05,0-.86.7,1.77-.12-.67,1.45,2.03,2.03,3.96.84,10.6-.24,15.24.07.65.04,1.81-1.2,1.11,1.47-.13.51-1.04,0-.86.7,1.13-.13,1.01.25.44,1.08l1.27.21c.18.7-.73.2-.86.7-.97,3.81.86,4.27,4.09,4.44,2.03.11,5.41.02,7.66.02,1.14,0,6.1-.71,6.6-.43.36.2,0,4.86.03,5.75.02.55.5,1.43.44,1.48-.5.38-2.06-.91-.6,1.74l18.11-.02v9.41c-8.01-.04-14.63-.09-22.93.26-1.21.05-2.47-1.05-2.93.6-1.24.21-.09-.76-.21-.86-.95-.78-.82.8-.86.85-.4.47-.38-.84-.63-.86-.06,0-.57.38-1.08.43l-.21-.42-.21.42c-.98.05-7.69.38-7.69,0v-9.84l-25.36.36c-1.4-.51-.23-1.6-.26-2.26-.01-.26-.86-.24-.85-.42.04-.98,1.42-5.04,0-6.05s-18.41.74-18.41-.19v-8.34c0-.23-.72-.69-1.08-.66-2.21.16-14.74.71-15.93-.06-.43-.28-.22-8.48-.94-8.48h-8.33c-1.19,0-.66-4.59-.54-5.24.09-.46.9-.96.74-1.16-.05-.06-.63.06-.7-.1-.17-.37.2-.08-.45-1-.05-.06.31-.54.26-.58-.96-.87-8.61-.14-8.93-.47-.2-.2.06-4.8,0-5.78-.07-1.35-1.48-2.66,0-3.21.28,0,.57,0,.85,0Z"/>
      <path class="st14" d="M207.41,370.76c.46-1.93,7.94-.16,8.93-.91,1.2-.91-.99-8.93.69-8.93h7.91c.06,0,.43,1.01.43,1.07v7.49c.78-.3,8.97.45,8.97,0v-8.34c0-1.32-8.55.3-8.55-.64v-7.91s-.6-.64-.64-.64h-8.12c-1.41,0-.05-8.98-.64-8.98h-9.4v8.98h-8.76s-.64.6-.64.64v7.91h-8.12v16.89s-.6.64-.64.64h-8.33v-8.55h-8.97v-16.04s.6-.64.64-.64h7.69s.64-.6.64-.64v-8.34h8.33s.64-.6.64-.64v-8.13s.6-.64.64-.64h43.38v7.06c0,3.75,3.36,1.88,5.34,1.9.38,0,4.06.25,4.06.45v8.98h8.55v16.47c0,.35,1.34,1.25,1.9,1.09l24.75-.39c1.41.47.4,6.57.7,8.06-.08-.06-1.17.47-1.9.45-8.01-.25-16.37-.04-24.39-.05-1.98,0-6.43.75-8.07.44-.31-.06-.27-.86-.45-.84-5.13.42-7.02,1.3-12.42-.43-.34-.11-.07.65-.53.85-1.95.81-15.51-.28-18.7-.33-.8-.01-4.07.76-4.49.34-.19-.19-.11-4.85,0-5.28.13-.5,1.05,0,.86-.7-1.23.2-.61-1.11-1.28-1.72Z"/>
      <path class="st2" d="M367.68,246.3c.14,0,.28,0,.43,0,.43,0,.86,0,1.28,0,.14,0,.28,0,.43,0,1.14-.02,2.28.01,3.42,0,.28,0,.57,0,.85,0,3.98-.05,7.98.02,11.97,0,3.27-.02,6.56,0,9.83,0,5.55-.01,11.12-.03,16.67,0,3.41.02,6.84-.03,10.26,0,.14,0,.28,0,.43,0,5.39.04,11.89-.49,17.1,0,1.86.18,3,1.29,3.19,1.27,3.46-.37,4.07-.46,7.71-.38,1.46.03,3.07-.65,4.25-.47.74.11,1.14.81,1.31.86.38.1.04-.71.48-.83.82-.23,3.2.31,4.18.37.51.03,1.19-.49,1.71-.42.29.04.22.91.47.9.15,0,2.77-1.19,2.77-.45v7.7h15.39s-.16.83.26.89c.75.11,1.77-1.08,2.23.25l.22,7.66c1.1,1.9,11.73.96,14.18,1.02,2.07.05,4.29.43,6.39.48,1.07.03,4.7-.79,5.29.01.32.43.47,6.46-.35,7.04-.99.71-3.63-.41-4.9-.23-.72.1-1.24.8-1.97.84-5.98.31-12.34-.05-18.38,0-.23-1.21.31-8.26,0-8.56-.09-.09-1.66.03-2.14,0-.28-.02-.57,0-.85,0-.14,0-.29,0-.43,0-.57-.01-1.14,0-1.71,0-.14,0-.28,0-.43,0-1.56-.02-3.14.01-4.7,0-.14,0-.28,0-.43,0-.85,0-1.71,0-2.56,0-1.28,0-2.57,0-3.85,0-2.13,0-4.28,0-6.41,0-3.56,0-7.13,0-10.68,0-.71,0-1.42,0-2.14,0-.14,0-.28,0-.43,0-1.99,0-3.99,0-5.98,0-4.55,0-9.12,0-13.68,0-.43,0-.85,0-1.28,0-.28,0-.57,0-.85,0-.43,0-.85,0-1.28,0-.14,0-.28,0-.43,0-1.56,0-3.14,0-4.7,0-2.42,0-4.85,0-7.27,0-1.28,0-2.57,0-3.85,0-.28,0-.57,0-.85,0-.57,0-1.14,0-1.71,0-.28,0-.57,0-.85,0-.14,0-.28,0-.43,0-.28,0-.57,0-.85,0-1.42,0-2.85,0-4.27,0-.57,0-1.14,0-1.71,0-.14,0-.28,0-.43,0-1.28,0-2.57,0-3.85,0-.14,0-.28,0-.43,0-.71,0-1.42,0-2.14,0-.57,0-1.14,0-1.71,0-5.26,0-10.55,0-15.81,0-.71,0-1.42,0-2.14,0-1.56,0-3.14,0-4.7,0-.14,0-.28,0-.43,0s-.28,0-.43,0-.28,0-.43,0c-5.12,0-10.26,0-15.39,0h-.43c-2.41,0-4.85.04-7.27,0,.38-1.36-1.18-.54-1.31-1.1-.2-.85-.25-7.61.03-7.89.39-.4,7.19.69,8.59-1.06.54-.68-1.55-6.74.68-7.45.59-.19,2.97.46,4.21.41,1.42-.07,3.37-.82,4.48-.88.14,0,.29,0,.43,0,2.68-.14,5.43.06,8.12,0Z"/>
      <path class="st3" d="M404.86,264.26l.21.42.21-.42c.28,0,.57,0,.85,0,.18.66,1.57.64,1.71,0,.28,0,.57,0,.85,0,.8.72,3.04.72,3.85,0,2.42,0,4.85,0,7.27,0,1.11.73,3.64.72,4.7,0,.14,0,.28,0,.43,0-.38,1.27,1.61,1.36,1.28,0,.28,0,.57,0,.85,0,.06.64,1.22.64,1.28,0,4.55,0,9.12,0,13.68,0,1.15-.05,2.17,1.59,2.32,1.62.8.16,4.01-3.18,2.81.09l.85-1.71c.14,0,.28,0,.43,0,.29.67,1.85.67,2.14,0,3.56,0,7.13,0,10.68,0,1.45.63,5.31,1.32,6.41,0,1.28,0,2.57,0,3.85,0-.42,1.54,1.76.53,2.56,0,.14,0,.28,0,.43,0,1.11.73,3.64.72,4.7,0,.14,0,.28,0,.43,0,.18.66,1.57.64,1.71,0,.14,0,.29,0,.43,0l.64.43.22-.43c.48.03,2.05-.09,2.14,0,.3.3-.23,7.34,0,8.56-8.82.08-17.67-.06-26.49,0l-.43,17.95h36.75c0,2.85,0,5.71,0,8.56-28.31-1.28-58.65-.04-87.18,0-.85,0-1.71,0-2.56,0-5.98-1.24-12.29-.07-18.38-.43-.68-2.59.38-5.41,0-8.13,2.99-.01,5.99.01,8.97,0-.43-4.79,0-9.71,0-14.54,0-.42.03-.86,0-1.28-.06-.74-.21-1.44-.43-2.14,1.64-.04,7.63.38,8.45-.54,1.06-1.19-1.17-6.34.53-8.02.28,0,.57,0,.85,0ZM446.74,265.97c-.6-.24-1.59.13-1.71.85.56.19,2.16-.66,1.71-.85ZM462.99,267.25c.49.25.98-.27,1.27-.64-.43-.18-1.68.43-1.27.64ZM422.38,272.81h-18.38v17.96h18.38c.9,0,.31-16.95,0-17.96ZM449.73,290.78c-.54-5.23.63-11.36.02-16.49-.05-.43-.2-1.48-.66-1.48h-16.24c-.08,0-1.5.35-1.5.43v17.54h18.38ZM396.95,273.24v.43l.21-.21-.21-.21ZM400.16,279.66c-.46-.31-1.17.2-.85.42.46.31,1.17-.2.85-.42ZM402.29,291.21c-.46-.31-1.17.2-.85.42.46.31,1.17-.2.85-.42ZM401.02,292.48c.05.04,1.04.3,1.27.22-.49-1.02-1.7-.57-1.27-.22ZM412.55,294.2c.3-.66-.21-1.74-.42-1.28-.3.66.21,1.74.42,1.28ZM402.77,297.55s-.18-1.39-.47-.78c-.93,1.89,2.18,1.53,1.27.42-.04-.05-.7.45-.8.36ZM412.55,298.9c.75-.75-.35-2.04-1.28,0,.34-.04,1.19.09,1.28,0Z"/>
      <path class="st7" d="M198.86,387.87c-.14,0-.29,0-.43,0v-.43h.43v.43Z"/>
      <path class="st7" d="M267.67,387.44l-1.28.85c2.16-.11-.46,1.63-.45,2.75,0,.07.82,1.08.89,1.1.33.1,2.75-2.61,1.27,2.99-.77.2-.16-.91-.63-.85-.27.03-1.35.85-1.5,1.28-64.35.08-128.45.43-193.17.43l-.26-.37-.59.37c-.28,0-.57,0-.85,0H20.22c.02-2.7-.01-5.43,0-8.13,6.97,0,13.97.02,20.94,0,.8.72,3.04.72,3.85,0,.14,0,.28,0,.43,0,.68.72,2.75.71,3.42,0,.14,0,.28,0,.43,0h19.23c1.85,0,3.71,0,5.56,0,4.41.71,9.7.71,14.1,0,.14,0,.28,0,.43,0,.8.72,3.04.72,3.85,0,.14,0,.28,0,.43,0,.8.72,3.04.72,3.85,0,1.14,0,2.28,0,3.42,0,2.64.72,6.37.72,8.97,0h.43c4.41.71,9.7.71,14.1,0h.43c1.13.79,3.22.42,4.7.43-.17,1.21.6,1.21.43,0,6.19.02,12.4.08,18.6,0,.73,0,1.89.27,2.34-.44h22.65c.14,0,.28,0,.43,0,1.91.8,4.66.41,6.84.43,1.12,0,2.32.69,2.99-.43.14,0,.28,0,.43,0,.45.71,1.62.43,2.34.44,4.36.05,8.81.2,13.04-.44.32-.05,1.04,1.18.85-.43,22.64,0,45.3.12,67.95,0ZM127.71,388.72v.43l.21-.21-.21-.21ZM266.18,388.72v.43l.21-.21-.21-.21ZM128.77,390.01c-.7-.29-2.31.17-1.7.42.7.29,2.31-.17,1.7-.42ZM129.84,390.01v.43l.21-.21-.21-.21ZM119.59,391.29v.43l.21-.21-.21-.21ZM122.15,391.72v.43l.21-.21-.21-.21ZM123.22,392.58c-.89-.12-.97-.04-.85.85l.85-.85ZM268.1,392.58c-.09-.12-2.81.06-1.7,1.28.19.21,2.35-.44,1.7-1.28ZM121.08,393.43c-.46-.31-1.17.2-.85.42.46.31,1.17-.2.85-.42ZM265.75,394.29v.43l.21-.21-.21-.21Z"/>
      <path class="st9" d="M521.53,352.37v-9.41s-18.11.02-18.11.02c-1.46-2.65.1-1.36.6-1.74.06-.05-.42-.93-.44-1.48-.03-.89.33-5.55-.03-5.75-.49-.28-5.45.43-6.6.43-2.25,0-5.63.09-7.66-.02-3.22-.17-5.06-.63-4.09-4.44.13-.5,1.04,0,.86-.7l-1.27-.21c.57-.83.7-1.21-.44-1.08-.18-.7.73-.2.86-.7.7-2.68-.46-1.43-1.11-1.47-4.64-.31-11.28.76-15.24-.07-2.71-.57-.26-2.14-2.03-2.03-.19-.7.74-.2.86-.7.11-.47.24-5.27.02-5.5-.71-.72-6.26-1.39-6.01.21-.7.19-.2-.75-.69-.87-.79-.19-1.58.17-2.29.45.42-1.21-.58-8.4,0-8.98.12-.13,1.69.14,2.28,0,.33-.08.29-.82.47-.82.68.01,6.87.32,7.23.38.31.06.27.82.46.82.52,0,1.75-.63,2.67-.64,5.02-.06,7.68.68,12.75-.6.38-.1.07.85.45.88.34.02.98-.45,1.64-.42,1.27.07,3.96.53,5.15.41.39-.04.07-.97.45-.87,3.9,1.04,6.22.16,10.25.55.28.03.54.73.65.73,1.25.1,8.55-.45,8.55.64v7.91h8.55v8.34s.6.64.64.64h7.91v8.13c0,1.04,8.33-.43,9.2.83.52.76-.94,8.58.42,8.58h7.91v8.34s.6.64.64.64h7.27c1.02,0,.62,6.92.64,8.13-4.34-.33-8.8.19-13.07.39-.29.01.09-1.15-.82-.82-.48.17.04.74-.43.86-.45.11.26-1.54-1.07-.43,0-.29,0-.57,0-.86,0-.43,0-.86,0-1.28-.03-1.56.16-4.81-.43-5.99l.42-.21-.42-.21c-.79-.38-15.15.01-17.52,0Z"/>
      <path class="st14" d="M386.48,220.63c0-3.07-.03-6.11-.02-9.18.04-14.92.37-29.83.45-44.72h7.48s.64.6.64.64v52.82h9.4v-8.34c0-1.08,6.74-.56,7.94-.63.54-.03.97-.44,1.04-.44,2.84-.11,5.71.08,8.55,0-.02.94.17,8.98-.43,8.98h-8.55v8.77c0,1.54,8.58-.12,9.4.65.33.31,0,7.74,0,8.97,0,2.64-.34,5.59.43,8.13-3.41-.03-6.84.02-10.26,0l-16.67-.43c-.3-1.43.43-6.84-.06-7.64-.54-.89-9.01.27-9.35-.06s0-8.08,0-9.41c-.01-2.7,0-5.42,0-8.13Z"/>
      <path class="st13" d="M341.61,264.26c2.29.72,5.79.72,8.12,0h15.81c.14,0,.28,0,.43,0l.21.42.21-.42c.14,0,.28,0,.43,0,1.11.73,3.64.72,4.7,0,.71,0,1.42,0,2.14,0,1.26.6,3.5.61,4.91.61,3.46,0,7.5-.03,10.9-.61.57,0,1.14,0,1.71,0,.29.67,1.85.67,2.14,0,.14,0,.28,0,.43,0,.8.72,3.04.72,3.85,0,.14,0,.28,0,.43,0,.18.66,1.57.64,1.71,0,1.42,0,2.85,0,4.27,0-1.69,1.68.54,6.83-.53,8.02-.82.91-6.81.49-8.45.54-6.13.16-12.25-.01-18.38,0,.02,2.24-.61,17.31,0,17.97.34.36,8.5,0,9.83,0,.38,2.72-.68,5.54,0,8.13v.43c-8.97.02-17.96-.02-26.92,0-.33,0-.35.16-.43.43-6.99-.78-14.29-.43-21.37-.43,1.56-.89.92-.87,0-1.71.61.42,1.78,0,2.08.09.17.05-.22.95.48.75-.15-.46.95-2.06.86-2.13-.31-.23-1.8.47-1.71-.43l2.56-.44c-.05-.45-2.66-1.29-2.13-1.7.1-.08.82.16.88-.23.04-.28-.77-2.28-.88-2.34.98-.3.83-1.1.88-1.9.53-7.83-.49-15.76.36-23.61.06-.54-.72-1.71.26-1.86.07-.01.16.42.21.42ZM368.11,273.24l-18.81-.43v17.97h18.81v-17.54Z"/>
      <path class="st7" d="M20.22,404.12h53.85v8.98h-9.4c-.4,0,0,3.84,0,4.28-.67.74-1.19,1.79,0,2.14,0,.29,0,.57,0,.86l-.43.64.43.22c0,.57,0,1.14,0,1.71l-.42.21.42.21c0,.28,0,.57,0,.86l-.42.21.42.21c-.02.71.03,1.43,0,2.14l-.42.21.42.21c-.04.68.1,1.52,0,2.14-1.39-.16-1.72.05-.85,1.28-.18.06-.59,0-.85,0-.9,0-1.95-1.21-1.71.43-.42.02-.86,0-1.28,0,.26-1.27-1.09-1.34-.85,0-.85-.07-1.82.18-2.56-.43-.12-.09.43-.82-.63-.9-1.57-.12-2.12,1.1-3.05,1.21-.97.12-3.2-.4-4.68-.33-3.4.18-6.79.43-10.19.42-.28-.08-.61-1.94-.69.02-1.37-.53-8.55.57-8.55-1.07v-8.34c0-.45-8.23.06-8.97.43,0-5.99.32-11.97.43-17.96ZM37.74,413.1c-.19.09-.33.39-.43.43-.08.03-.75-.59-.85-.43-.43.71.32,7.3,0,8.77.61.69.42-.48.43-.85.07-2.27-.41-4.95.43-7.06.34,2.18-.47,5.74,0,7.7.3,1.24,8.5.98,9,.66.44-.28.45-6.35.41-7.31-.03-.82.44-1.72-.86-1.48-.03-.14.05-.4,0-.43-1.82-.72-5.1-.71-6.84,0h-.85l-.22-.42c-.13.11-.13.38-.21.42ZM56.55,428.93c-.46-.31-1.17.2-.85.42.46.31,1.17-.2.85-.42Z"/>
      <path class="st14" d="M359.13,238.17c0-1.46.31-8.73-.4-9.22-1.08-.75-9,.56-9-.19v-8.55h18.16s.64-.6.64-.64v-25.66s-.6-.64-.64-.64h-9.62c-.08-2.35-.47-16.79.05-17.49.76-1.01,16.09.42,18.33-.05.16,14.34-.21,28.7-.03,43.04,0,.76.46,1.37.46,1.45.04,2.98.03,6,0,8.98-.02,1.44.32,8.28-.4,8.8l-17.55.18Z"/>
      <path class="st6" d="M207.41,370.76c.67.6.05,1.92,1.28,1.72.19.7-.73.19-.86.7-.11.43-.18,5.1,0,5.28.42.42,3.69-.35,4.49-.34,3.19.05,16.75,1.14,18.7.33.47-.19.19-.96.53-.85,5.4,1.73,7.29.85,12.42.43.18-.01.14.78.45.84,1.64.31,6.09-.44,8.07-.44,8.02,0,16.38-.21,24.39.05.73.02,1.82-.51,1.9-.45.04.03-.16.74.28.86,1.94.53,5.18-.78,7.41,0-.56,1.04.71,7.59-.4,8.37-.75.53-15.99.17-18.4.19-22.66.12-45.32,0-67.95,0h-1.28c.32-.83-.43-8.55,0-8.55h8.33c1.23,0,.36-6.97.64-8.13Z"/>
      <path class="st6" d="M484.78,272.81c6.03-.05,12.4.31,18.38,0-.3,1.61.5,7.64-.19,8.58-1.09,1.51-7.76,0-8.16.79-.53,1.06-.2,6.88-.21,8.59h-36.75s.43-17.96.43-17.96c8.82-.07,17.67.07,26.49,0Z"/>
      <path class="st5" d="M462.98,437.91c.08-.13.69-.19.78-.67.08-.44-.48-1.25-.35-1.46.35-.56,3.72-.29,3.85-.43.09-.09-.17-1.77.21-2.57.44-.94,1.85-1.02,2.64-1.44.11-.06.14-1.29.97-.66.06.05-.07.79.29.85,1.07.17,3.67-.97,4.21-.91.44.05-.07,1.08.65.88-.09-1.73.4,0,1.62-.25,1.12-.23,2.98-1.53,3.7-1.48.23.02.2.81.53.89,1.43.33,6.39-.68,7.55-.45.32.06.28.88.5.89.67.03,2.33-1.25,3-1.3.17-.01.15.79.48.86.31.07,6,.43,6.3.33.71-.26.47-1.71,1.96-1.19l-.85.85c2.44.68,1.1-1.09,1.93-1.27.08-.02-.09,1.14.74,1.55.19.1.61-.18.87-.11,2.81.77.94.03,1.85-.15,1.95-.4,5.39,1.47,5.51-2.15.38,1.16.55,1.61,1.71,2.14-.11-1.23,1.1-1.72.99-1.07-.08.45-.85.74.29.65,1.25-2.33.73-.06.84-.02.41.15,3.45-.38,3.89-.36.17,0-.01.56,1.04.8,1.69.38,7.99.29,8.36.83.67.96-.1,6.18.19,7.73-.28,0-.57,0-.85,0-1,0-2,0-2.99,0-.43,0-.85,0-1.28,0-.14,0-.28,0-.43,0-.57,0-1.14,0-1.71,0-.14,0-.28,0-.43,0-.71,0-1.42,0-2.14,0-.85,0-1.71,0-2.56,0-.28,0-.57,0-.85,0-.14,0-.28,0-.43,0-.71,0-1.42,0-2.14,0-.43,0-.85,0-1.28,0-.71,0-1.42,0-2.14,0-.28,0-.4.43-.43.43-.6,0-1.37-.43-2.14-.43-.14,0-.28,0-.43,0-.28,0-.57,0-.85,0s-.57,0-.85,0c-.85,0-1.71,0-2.56,0-.43,0-.85,0-1.28,0-1.14,0-2.28,0-3.42,0-.14,0-.28,0-.43,0-1.99,0-3.99,0-5.98,0h-.43c-.85,0-1.71,0-2.56,0-.14,0-.28,0-.43,0-.57,0-1.14,0-1.71,0-.14,0-.28,0-.43,0-.43,0-.85,0-1.28,0-.14,0-.28,0-.43,0-1,0-2,0-2.99,0-.14,0-.28,0-.43,0-.28,0-.57,0-.85,0h-2.14c-.43,0-.85,0-1.28,0l-.21-.42-.21.42c-.71,0-1.42,0-2.14,0-.28,0-.4.43-.43.43-.57,0-1.14,0-1.71,0-.03,0-.16-.43-.43-.43-.43,0-.85,0-1.28,0-.14,0-.28,0-.43,0-1.28,0-2.57,0-3.85,0l-3.42-.43c-.1-.47.28-.63.43-.86Z"/>
      <path class="st13" d="M377.08,229.19c1.19-.82,2.42.4,3.58.31.51-.04,1.03-.65,1.74-.68.95-.03,2.35.75,3.04.75.19,0,.21-1.14,1.04-.81,0,1.33-.34,9.08,0,9.41s8.8-.83,9.35.06c.49.8-.24,6.21.06,7.64v.43c-3.27,0-6.56-.02-9.83,0-3.66-.71-8.3-.71-11.97,0-.28,0-.57,0-.85,0-.67-.71-2.74-.72-3.42,0-.14,0-.28,0-.43,0-.06-.64-1.22-.64-1.28,0-.14,0-.28,0-.43,0-2.29-.72-5.79-.72-8.12,0-.14,0-.29,0-.43,0,0-2.7,0-5.42,0-8.13l17.55-.18c.72-.52.38-7.36.4-8.8Z"/>
      <path class="st4" d="M539.48,360.92c1.33-1.1.62.55,1.07.43.48-.12-.05-.69.43-.86.91-.33.53.83.82.82,4.27-.2,8.73-.72,13.07-.39.1,6.99.86,18.08.02,24.61-.09.71-.06,1.28-.88,1.48-1.46-.73-3.65-.48-5.31-.51-.66-.01-1.21-.59-1.53.51h-.43c.04-2.22.62-16.92,0-17.54-.17-.17-3.96,0-4.7,0h-1.28c-.56-.07-1.15.05-1.71,0,.23-2.83.43-5.69.43-8.55Z"/>
      <path class="st2" d="M413.41,202.24c-.34-.02-.98-.68-1.54-.72-.47-.03-7.43.47-7.43-.13v-6.2c0-2.33,7.68-.8,9.26-.81,2.18-.01,16.22-.86,16.81-.26.25.26.31,6.26-.42,7.07-.91,1.02-4.32.52-5.77.65-.65.06-1.28.82-1.51.83-1.81.1-6.24-.34-8.55-.43l-.21-.42-.21.42c-.14,0-.29,0-.43,0Z"/>
      <path class="st14" d="M19.79,422.09c.74-.37,8.97-.88,8.97-.43v8.34c0,1.63,7.17.54,8.55,1.07.42,1.11.15,7.83.43,8.13.26.28,3.26-.53,3.85.42-1.06-.05-3.5.63-4.27.43-.07-.02-.24-.78-1.06-.85-2.18-.17-4.45.11-6.64,0-.24-.09-.74.26-.87-.27-.29-1.21.33-7.51.02-7.85-1.4.18-8.38.67-8.92-.05-.27-.36-.05-7.63-.05-8.93Z"/>
      <path class="st13" d="M440.33,237.74c.04,2.7-.03,5.42,0,8.13l-17.1.43c-.14,0-.28,0-.43,0-.77-2.54-.42-5.48-.43-8.13,2.58-.29,5.88.38,8.35.04.84-.12.72-.99,1.05-.9.08.02.13.76,1.47.88,2.22.21,4.82-.51,7.08-.45Z"/>
      <path class="st0" d="M339.9,291.21c.11.06.93,2.06.88,2.34-.06.39-.78.15-.88.23-.53.41,2.08,1.25,2.13,1.7l-2.56.44c-.09.9,1.39.2,1.71.43.09.07-1.01,1.68-.86,2.13-.69.2-.31-.7-.48-.75-.29-.09-1.47.33-2.08-.09.91.84,1.56.82,0,1.71h-.43c-1.47.06-2.2-1.31-2.34-1.29-.27.04-1.08.83-1.3.85-.47.05.06-.78-.42-.86-.1-.02-1.46,1.2-1.5,1.29-.09.22.03.9,0,1.28-.5-.55-.11-1.16-1.04-1.32-2.11-.36-5.25.34-7.51.04.02-1.36-.32-7.44.4-7.94.67-.47,15.55-.58,16.27-.19Z"/>
      <path class="st0" d="M386.48,220.63c0,2.7-.01,5.42,0,8.13-.83-.34-.85.81-1.04.81-.7,0-2.09-.78-3.04-.75-.72.03-1.23.64-1.74.68-1.15.09-2.38-1.12-3.58-.31.03-2.98.04-6,0-8.98,3.07.94,6.17-.75,9.4.43Z"/>
      <path class="st14" d="M440.33,237.74c-2.26-.05-4.86.66-7.08.45-1.34-.12-1.39-.86-1.47-.88.22-1.15-1.28-8.13.21-8.13h7.69c1.03,0,.62,7.31.64,8.55Z"/>
      <path class="st14" d="M386.06,149.2c.32.32,0,7.72,0,8.98h-8.12c-.05-2.99-.07-6.13,0-8.98,1.16.21,7.83-.29,8.12,0Z"/>
      <path class="st14" d="M395.46,158.19c0-1.22-.3-8.25,0-8.56s8.25-.3,8.55,0,0,7.34,0,8.56h-8.55Z"/>
      <path class="st3" d="M414.26,202.24c2.3.09,6.74.52,8.55.43-1.43,2.21-.8,5.51-.85,8.13-2.84.08-5.71-.11-8.55,0v-8.55c.14,0,.29,0,.43,0s.29,0,.43,0Z"/>
      <path class="st0" d="M404.01,158.19c0,.77.41,8.13,0,8.13h-8.55c-.41,0,0-7.35,0-8.13h8.55Z"/>
      <path class="st0" d="M386.06,158.19c0,.78.41,8.13,0,8.13h-8.12c-.41,0,.01-7.34,0-8.13h8.12Z"/>
      <path class="st1" d="M150.14,387.87c-.45.71-1.62.43-2.34.44-6.19.07-12.41.01-18.6,0-.14,0-.28,0-.43,0-1.48,0-3.57.36-4.7-.43,8.68,0,17.39,0,26.07,0Z"/>
      <path class="st1" d="M172.79,387.87h-22.22c7.4,0,14.82,0,22.22,0Z"/>
      <path class="st10" d="M68.52,387.87h-19.23c6.4-.01,12.83,0,19.23,0Z"/>
      <path class="st14" d="M440.33,245.87v.43c-5.21-.49-11.71.04-17.1,0l17.1-.43Z"/>
      <path class="st10" d="M199.72,387.44c.19,1.6-.54.38-.85.43v-.43h.85Z"/>
      <path class="st10" d="M198.44,387.87c.14,0,.29,0,.43,0-4.23.64-8.68.48-13.04.44-.73,0-1.89.27-2.34-.44,4.87,0,10.14.27,14.96,0Z"/>
      <path class="st10" d="M88.17,387.87c-4.41.71-9.7.71-14.1,0,4.7,0,9.41,0,14.1,0Z"/>
      <path class="st1" d="M123.65,387.87c-4.41.71-9.7.71-14.1,0,4.7,0,9.41,0,14.1,0Z"/>
      <path class="st10" d="M305.71,340.39c.07-4.08-.22-8.37,0-12.4.71,3.81.71,8.59,0,12.4Z"/>
      <path class="st10" d="M109.12,387.87c-2.6.72-6.34.72-8.97,0,2.99,0,5.99,0,8.97,0Z"/>
      <path class="st14" d="M342.46,264.26c2.41.04,4.85,0,7.27,0-2.33.72-5.83.72-8.12,0,.28,0,.57,0,.85,0Z"/>
      <path class="st0" d="M37.32,440.05v.86c-.27-.42-.47-1.24-.7-1.31-1.86-.54-4.52.58-7-.4,2.19.11,4.45-.17,6.64,0,.81.06.99.83,1.06.85Z"/>
      <path class="st7" d="M554.01,387.01c-1.74.42-4.9-.3-6.84,0,.32-1.1.87-.52,1.53-.51,1.66.03,3.85-.22,5.31.51Z"/>
      <path class="st1" d="M180.06,387.87v.43c-2.18-.01-4.92.37-6.84-.43,2.27,0,4.56,0,6.84,0Z"/>
      <path class="st10" d="M45.01,387.87c-.8.72-3.04.72-3.85,0,1.28,0,2.57,0,3.85,0Z"/>
      <path class="st10" d="M92.45,387.87c-.8.72-3.04.72-3.85,0,1.28,0,2.57,0,3.85,0Z"/>
      <path class="st10" d="M96.72,387.87c-.8.72-3.04.72-3.85,0,1.28,0,2.57,0,3.85,0Z"/>
      <path class="st10" d="M183.05,387.87c-.67,1.12-1.87.43-2.99.43v-.43c1,0,2,0,2.99,0Z"/>
      <path class="st14" d="M533.07,439.2c-.67.71-2.74.72-3.42,0,1.14,0,2.28,0,3.42,0Z"/>
      <path class="st10" d="M48.86,387.87c-.67.71-2.74.72-3.42,0,1.14,0,2.28,0,3.42,0Z"/>
      <path class="st10" d="M305.71,342.53c.06-.56-.01-1.15,0-1.71.72.25.51,1.28,0,1.71Z"/>
      <path class="st10" d="M529.23,416.95c-.64-.14-.66-1.53,0-1.71-.03.57.04,1.14,0,1.71Z"/>
      <path class="st10" d="M305.71,327.56c.03-.27-.07-.7,0-.86l.43.22-.43.64Z"/>
      <path class="st14" d="M37.74,441.33c-.03-.15.05-.32,0-.43l.42.21-.42.21Z"/>
      <path class="st14" d="M37.74,442.19c.01-.14-.01-.29,0-.43l.42.21-.42.21Z"/>
      <path class="st10" d="M141.6,430.64s-.14.83.24.87,7.13-.74,7.57-.9c.53-.19.37-2.12.96.46,4.85-.14,9.65-.1,14.53-.35,2.18-.11,1.97-.49,2.11-.49.71.03,2.15.78,3.44.85,8.82.46,21.05-1.25,28.74-.12.96.14,1.92.13,2.89.1-.21,2.43.83-.1,1.26-.26.87-.33,3.35.3,4.51.26-.29,1.43.43,6.84-.06,7.64-.57.91-4.22-.02-5.07.92-.57,0-1.14.01-1.71,0-.94-.65-2.95-.78-3.85,0-2.12-.08-4.27-.36-6.41-.43-.14,0-.29,0-.43,0-.28-.01-.57,0-.85,0-.57-.02-1.14.01-1.71,0s-1.14.01-1.71,0-1.14,0-1.71,0c-.28,0-.57,0-.85,0-.14,0-.28,0-.43,0-.71,0-1.43,0-2.14,0-.28,0-.4.43-.43.43-.28,0-.57,0-.85,0-.05,0-.12-.42-.85-.43-.85,0-1.71,0-2.56,0-.43,0-.85,0-1.28,0s-.85,0-1.28,0c-.57,0-1.14,0-1.71,0-.85,0-1.71,0-2.56,0-.43,0-.85,0-1.28,0s-.85,0-1.28,0l-.21-.42-.21.42c-1.14,0-2.28,0-3.42,0-.57,0-1.14,0-1.71,0-1.71,0-3.42,0-5.13,0-.14,0-.28,0-.43,0-2.13,0-4.35,0-6.41,0-.14,0-.28,0-.43,0-.28,0-.57,0-.85,0s-.57,0-.85,0c-.48,0-1.17.43-1.71.43-.03,0-.14-.43-.43-.43-.95,0-1.62.43-1.71.43-.14,0-.28,0-.43,0-1.16,0-2.41-.43-3.85-.43-.14,0-.28,0-.43,0-.71,0-1.42,0-2.14,0-.14,0-.28,0-.43,0-.28,0-.57,0-.85,0-.73,0-.81.43-.85.43-.43,0-.85,0-1.28,0-.7-2.74-.3-5.71-.43-8.55,1.71.03,8.63-.72,8.97-.43Z"/>
      <path class="st10" d="M284.34,431.07h-.43.43Z"/>
      <path class="st10" d="M225.79,430.64c.88-.22,1.46-1.16,1.07.43,2.23.82,1.19-1.71,1.71-1.72.36,0,.33,2.71.85,2.58.41-.11.11-.72.27-.76.62-.19,7.25-.2,7.56.02.07.05.14,1.2.5.74.14-.18-.24-.73.22-.86.14-.04.29,1.46,1.49.86l-.85-.85c2.31-.79,4.08-.07,6.2.04,1.82.1,3.38-.44,5.17-.42,6.28.06,12.49.18,18.78.4.97.03,2.13-.51,2.52-.47s.07.98.45.88c.17-.05.51-.72.91-.74,4.03-.24,7.27,0,11.27.32.45.03.38,0,.43,0,.85.04,1.71-.03,2.56,0,.25,1.24-1.25,2.89.43,2.57-.08,1.93,1.26,4.53-.43,5.56-.09-.07-.59.04-.85,0-.4-.06-.87.01-1.28,0-.71-.02-1.43,0-2.14,0s-.81.43-.85.43c-.93,0-1.92-.39-2.99-.43-1.17-.04-3.03-.31-3.85.43-.28-.02-.57.02-.85,0-.24-.02-.38,0-.43,0-.56-.04-1.14.03-1.71,0-.05,0-.12-.39-.85-.43-.57-.03-1.14.02-1.71,0-.43-.02-.86.01-1.28,0-.14,0-.28,0-.43,0-.57-.01-1.14,0-1.71,0-.14,0-.28,0-.43,0-.57,0-1.14-.01-1.71,0-.28,0-.4.43-.43.43-.28,0-.57-.01-.85,0-.03,0-.17-.44-.43-.43-.43.02-.86-.02-1.28,0-.74.04-.81.43-.85.43-.57.03-1.15-.05-1.71,0-.67-.71-2.4-.49-3.42-.43-.42.02-.86-.04-1.28,0-.29.02-.4.43-.43.43-.28.02-.57,0-.85,0-.44-1.32-1.81-.7-2.56,0-.43-.02-.86,0-1.28,0-.03,0-.15-.42-.43-.43-.43,0-.85,0-1.28,0-.28,0-.57,0-.85,0-.71,0-1.42,0-2.14,0-.43,0-.85,0-1.28,0-.28,0-.57,0-.85,0-.25,0-.4.43-.43.43-.14,0-.28,0-.43,0-.03,0-.17-.43-.43-.43-.28,0-.57,0-.85,0-.14,0-.28,0-.43,0-.57,0-1.14,0-1.71,0-.14,0-.28,0-.43,0-1,0-2,0-2.99,0-.43,0-.85,0-1.28,0-1.42,0-2.85,0-4.27,0-.14,0-.28,0-.43,0-.57,0-1.14,0-1.71,0-.14,0-.28,0-.43,0-.43,0-.85,0-1.28,0-.14,0-.28,0-.43,0-.43,0-.85,0-1.28,0-.14,0-.28,0-.43,0-.43,0-.85,0-1.28,0s-.85,0-1.28,0c-.28,0-.57,0-.85,0-.14,0-.28,0-.43,0-.43,0-.85,0-1.28,0l-1.28-.43c0-.42-.04-.87,0-1.28.09-1.05,0-.98,0-1.71,0-.57.01-1.14,0-1.71,0-.14,0-.29,0-.43-.03-.7-.04-1.44,0-2.14.32.02.69-.4.85-.43,3.27-.57,5.71.4,8.97-.43ZM285.62,434.07c-.46-.31-1.17.2-.85.42.46.31,1.17-.2.85-.42Z"/>
      <path class="st10" d="M74.5,429.36c.08.1,2.31.04,0,1.07,1.19,1.04,4.84.97,6.55.9,3.75-.15,6.12-.26,9.88-.25,10.92.02,22.09-.53,32.71,0,1.15.58.59.48.58,1.16-.04,2.31-.28,4.64-.15,6.96-.28,0-.57.01-.85,0-.14,0-.29,0-.43,0-.42-.01-.86,0-1.28,0-1.01.02-2.13-.29-2.99.43-.26-.05-.58.03-.85,0-.07,0-.4-.37-1.28-.43-.28-.02-.57.02-.85,0-1.13-.06-2.28.03-3.42,0-.43-.01-.86.01-1.28,0-1-.02-2,0-2.99,0-.28,0-.57,0-.85,0-1,0-2,0-2.99,0-1.28,0-2.57-.02-3.85,0-.14,0-.28,0-.43,0-.57,0-1.14-.03-1.71,0-.75.04-1.47-.04-2.14.43-.71.04-1.43-.05-2.14,0-.22-.55-.81-.41-1.28-.43-.82-.03-1.75-.06-2.56,0-1.05-.19-1.43-.98-1.28.43-.43-.02-.86.02-1.28,0-.03,0-.15-.42-.43-.43-.85-.01-1.71,0-2.56,0-.43,0-.85,0-1.28,0-.71,0-1.42,0-2.14,0-.14,0-.28,0-.43,0-.57,0-1.14,0-1.71,0-.14,0-.28,0-.43,0-1,0-2,0-2.99,0-.57,0-1.14,0-1.71,0-.43,0-.85,0-1.28,0-.28,0-.57,0-.85,0s-.57,0-.85,0c-1.36.01-3.08.42-3.85.43-.71,0-1.44,0-2.14,0,.62-1.4-.44-8.05.03-8.53.72-.74,6.76.27,8.74-.43.94-.33.58-.62,1.06-1.31Z"/>
      <path class="st10" d="M37.32,431.07c.08-1.96.41-.1.69-.02,3.4,0,6.79-.25,10.19-.42,1.48-.08,3.7.44,4.68.33.92-.11,1.47-1.33,3.05-1.21,1.06.08.52.81.63.9-.66.33-1.17.12-1.31,1.05-.3,1.98.26,5.15.03,7.5-.47.02-1.06-.13-1.28.43-.42-.05-.87.05-1.28,0-.07-.19-.24-.4-.43-.43-.26-.04-.58.01-.85,0-.14,0-.29,0-.43,0-.99-.02-2,0-2.99,0-1.75,0-4.13-.36-5.56.43-.28,0-.57.01-.85,0-.59-.95-3.58-.14-3.85-.42-.28-.3,0-7.02-.43-8.13Z"/>
      <path class="st6" d="M132.19,428.07c-.03-1.33-.32-14.97.43-14.97h8.97c.88,0-.67,16.14,0,17.54-.34-.3-7.27.46-8.97.43.12,2.84-.27,5.82.43,8.55-2.99,0-6.17-.34-8.97-.43-.13-2.32.11-4.65.15-6.96.01-.69.57-.59-.58-1.16.56.03,1.15.03,1.71,0,.47-.02,1.06.13,1.28-.43.54-.03,1.18-.05,1.71,0l.43.43c.28.02.57-.01.85,0s.57-.01.85,0,.57,0,.85,0c.43.01.86,0,1.28,0-.03-.69-.43-1.22-.43-1.28-.01-.43.01-.86,0-1.28l.42-.21-.42-.21Z"/>
      <path class="st6" d="M215.96,431.07c-.02.14,0,.29,0,.43-.04.7-.03,1.44,0,2.14-1.21-1.03-1.43.68,0,.43.01.57,0,1.14,0,1.71-.81.68-1.53,1.96,0,1.71-.04.42,0,.86,0,1.28v.86c-4.44.07-8.97-.04-13.25,0,.85-.94,4.5-.01,5.07-.92.49-.79-.23-6.21.06-7.64,2.68-.08,5.52-.73,8.12,0Z"/>
      <path class="st6" d="M288.61,431.07c.28,0,.57,0,.85,0,.85.02,1.71-.03,2.56,0,.43.01.86-.02,1.28,0,.57.03,1.15-.04,1.71,0,.52.04.9.35,1.28.43-.07,2.43-.34,4.8-.23,7.23.04,1.04.81.26,1.51.47-.05,0-.24.63-.69.71-1.87.34-4.8-1.03-7.67-.74-1.05.11-1.56.92-2.11.89-.4-.02-.14-.81-.22-.87,1.68-1.03.35-3.63.43-5.56.02-.55.78-1.69.43-2.57.28,0,.57,0,.85,0Z"/>
      <path class="st12" d="M459.14,439.2c-.17-1.19.36-3.32-.2-4.3-.37-.65-3.37.66-3.65-.22-.08-.24-.11-3.06,0-3.18.24-.24,3.06.46,3.66-.4.54-.78-.05-3.65.18-3.88.12-.12,3.06-.08,3.45.19,1.23.86-.18,3.55-.03,3.66.55.4,3.74-.72,4.21.71.21.63.23,2.56-.34,2.96-1.72,1.21-5.08-1.95-3.45,3.18-.15.23-.53.38-.43.86v.43c-1.14,0-2.28,0-3.42,0Z"/>
      <path class="st12" d="M402.3,439.2c-.11-.73.16-4.12,0-4.28-.43-.42-2.99.58-3.43.25-.58-.43-.55-3.54-.41-3.67.41-.38,3.73.15,3.84,0,.69-.92-1.75-4.9,2.78-4.27,1.89.26.45,3.61,1.08,4.26.12.12,2.86.03,3.41,0,2.34,5.05-3.32,2.87-3.85,3.42-.1.11.08,2.18,0,2.99-.04.42.03.86,0,1.28-.14,0-.29,0-.43,0-1,0-2,0-2.99,0Z"/>
      <path class="st12" d="M428.37,439.2c.85-7.05-1.69-3.1-3.85-4.28-.16-.09.13-3.16.7-3.35.75-.25,2.99.1,3.15-.06.55-.55-1.13-4,1.05-4.05,4.51-.11,2.07.77,2.41,3.01.29,1.95,3.41.64,3.81,1.04.12.12.12,3.3,0,3.43-.19.19-3.66-.19-3.85,0-.16.16.12,3.54,0,4.28-.85.02-1.72-.06-2.56,0-.14.01-.29-.02-.43,0-.15.02-.31-.04-.43,0Z"/>
      <path class="st6" d="M427.94,439.2s.19.78-.27.88c-.17.04-2.76-.03-3.36-.03h-7.27c-2.26,0-4.59.09-6.86,0-.82-.03-1.71.44-1.48-.86h19.23Z"/>
      <path class="st6" d="M402.3,439.2c1,0,2,0,2.99,0-1.08.06-2.93.81-4.49.89-1.02.05-4.44.16-4.91-.89,2.12,0,4.28,0,6.41,0Z"/>
      <path class="st6" d="M443.75,439.2c.24,1.3-.68.85-1.5.85-1.29,0-3.66.17-4.48-.85,1.99-.02,3.99,0,5.98,0Z"/>
      <path class="st14" d="M48,439.2c.17,1.35-.32.66-1.08.7-1.64.07-3.03-.23-4.48-.27,1.42-.79,3.8-.43,5.56-.43Z"/>
      <path class="st6" d="M201,439.62c-1.13-.03-2.41.06-3.85,0,.89-.78,2.9-.65,3.85,0Z"/>
      <path class="st14" d="M70.65,439.2c.48,1.49-2.72.81-3.85.43.77,0,2.48-.42,3.85-.43Z"/>
      <path class="st6" d="M278.78,439.2c.35,1.64-2.76.51-3.85.43.82-.73,2.68-.47,3.85-.43Z"/>
      <path class="st14" d="M465.97,439.2c-1,0-2.41,0-3.42,0v-.43l3.42.43Z"/>
      <path class="st6" d="M106.98,439.2c.22,1.68-.98.44-1.52.46-.13,0-1.46,2.58-1.47-.46,1,0,2,0,2.99,0Z"/>
      <path class="st6" d="M115.53,439.2c.76.94-2.57.99-3.16.87-.48-.1-.21-.5-.26-.87,1.13.03,2.29-.06,3.42,0Z"/>
      <path class="st6" d="M121.51,439.2c-.71,1.67-2.11.58-2.99.43.86-.72,1.99-.4,2.99-.43Z"/>
      <path class="st6" d="M110.83,439.2c-.72.99-3.41,1.51-2.99,0,1,0,2-.02,2.99,0Z"/>
      <path class="st14" d="M258.27,439.62c-1.29.11-3.98.83-3.42-.43,1.02-.06,2.74-.28,3.42.43Z"/>
      <path class="st14" d="M252.29,439.62c-.95.03-1.63.04-2.56,0,.75-.7,2.13-1.32,2.56,0Z"/>
      <path class="st6" d="M434.35,439.2c.33,1.52-1.49.87-2.14,0,.71-.02,1.43.01,2.14,0Z"/>
      <path class="st6" d="M189.46,439.2c.39,1.38-2.18,1.27-1.71,0,.57.01,1.14-.02,1.71,0Z"/>
      <path class="st6" d="M162.97,439.2c.39,1.38-2.18,1.27-1.71,0,.57,0,1.14,0,1.71,0Z"/>
      <path class="st6" d="M173.65,439.2c.39,1.38-2.18,1.27-1.71,0,.57,0,1.14,0,1.71,0Z"/>
      <path class="st6" d="M186.04,439.2c.39,1.38-2.18,1.27-1.71,0,.57,0,1.14-.01,1.71,0Z"/>
      <path class="st6" d="M345.03,439.2c-.55.71-2.44.71-2.99,0,1,0,2,0,2.99,0Z"/>
      <path class="st14" d="M528.37,439.2c-.55.71-2.44.71-2.99,0,1,0,2,0,2.99,0Z"/>
      <path class="st14" d="M519.4,439.2c-.42.69-2.12.7-2.56,0,.85,0,1.71,0,2.56,0Z"/>
      <path class="st14" d="M243.74,439.2c.33,1.36-1.66,1.27-1.28,0,.43,0,.85,0,1.28,0Z"/>
      <path class="st6" d="M453.58,439.2c.33,1.36-1.66,1.27-1.28,0,.43,0,.85,0,1.28,0Z"/>
      <path class="st6" d="M451.44,439.2c.33,1.36-1.66,1.27-1.28,0,.43,0,.85,0,1.28,0Z"/>
      <path class="st6" d="M269.38,439.2c.17,1.13-.37,1.19-1.28.43v-.43c.43.01.86-.02,1.28,0Z"/>
      <path class="st14" d="M217.24,439.2c-.07,0-.58.42-1.28.43v-.86l1.28.43Z"/>
      <path class="st6" d="M448.88,439.2c.33,1.36-1.66,1.27-1.28,0,.43,0,.85,0,1.28,0Z"/>
      <path class="st6" d="M407.85,439.2c.33,1.36-1.66,1.27-1.28,0,.43-.02.86.01,1.28,0Z"/>
      <path class="st6" d="M176.21,439.2c.22,1.38-.83,1.07-1.28,0,.43,0,.85,0,1.28,0Z"/>
      <path class="st6" d="M301.44,439.2c.22,1.38-.83,1.07-1.28,0,.43-.02.86.01,1.28,0Z"/>
      <path class="st14" d="M89.88,439.2c-.09,0,.25.5-1.28.43-.15-1.4.24-.62,1.28-.43Z"/>
      <path class="st14" d="M55.27,439.2c-.16,1.63-.3.55-1.28.43.22-.55.81-.41,1.28-.43Z"/>
      <path class="st14" d="M75.35,439.2c-.73.83-1.26,1.19-1.71,0,.57,0,1.14,0,1.71,0Z"/>
      <path class="st14" d="M93.73,439.62c-.63.04-1.48,1.22-1.28-.43.47.02,1.06-.12,1.28.43Z"/>
      <path class="st14" d="M221.09,439.2c.22,1.38-.83,1.07-1.28,0,.43,0,.85,0,1.28,0Z"/>
      <path class="st6" d="M179.63,439.62c-.67.78-1.01.54-.85-.43.74,0,.81.43.85.43Z"/>
      <path class="st6" d="M148.01,439.2c.24,1.34-1.12,1.27-.85,0,.28,0,.57,0,.85,0Z"/>
      <path class="st6" d="M135.19,439.2c.15.98-.17,1.2-.85.43.05,0,.13-.43.85-.43Z"/>
      <path class="st14" d="M98,439.2c-.63.89-1.56.39-2.14.43.66-.47,1.38-.39,2.14-.43Z"/>
      <path class="st14" d="M480.08,439.2c-.6,0-1.49,0-2.14,0h2.14Z"/>
      <path class="st14" d="M246.73,439.2c.24,1.34-1.12,1.27-.85,0,.28,0,.57,0,.85,0Z"/>
      <path class="st14" d="M72.36,439.2c.24,1.34-1.12,1.27-.85,0,.28,0,.57,0,.85,0Z"/>
      <path class="st14" d="M260.83,439.2c.15.98-.16,1.19-.85.43.05,0,.12-.39.85-.43Z"/>
      <path class="st6" d="M271.95,439.62c-.7.76-1,.56-.85-.43.74.03.81.42.85.43Z"/>
      <path class="st6" d="M367.68,439.2c-.06.64-1.22.64-1.28,0,.43,0,.85,0,1.28,0Z"/>
      <path class="st14" d="M513.41,439.2c-.06.64-1.22.64-1.28,0,.43,0,.85,0,1.28,0Z"/>
      <path class="st6" d="M169.38,439.2c-.06.64-1.22.64-1.28,0,.43,0,.85,0,1.28,0Z"/>
      <path class="st14" d="M233.91,439.2c-.06.64-1.22.64-1.28,0,.43,0,.85,0,1.28,0Z"/>
      <path class="st6" d="M309.13,439.2c-.06.64-1.22.64-1.28,0,.43,0,.85,0,1.28,0Z"/>
      <path class="st6" d="M117.66,439.62l-1.28-.43c.89.06,1.21.42,1.28.43Z"/>
      <path class="st6" d="M305.71,439.2c-.06.64-1.22.64-1.28,0,.43,0,.85,0,1.28,0Z"/>
      <path class="st14" d="M502.73,439.2c-.06.64-1.22.64-1.28,0,.43,0,.85,0,1.28,0Z"/>
      <path class="st6" d="M286.05,439.2c-.06.64-1.22.64-1.28,0,.42.01.89-.06,1.28,0Z"/>
      <path class="st14" d="M78.77,439.2c.17,1.21-.6,1.21-.43,0,.14,0,.28,0,.43,0Z"/>
      <path class="st6" d="M282.63,439.2c.08,1.11,0,1-.85.43.05,0,.12-.43.85-.43Z"/>
      <path class="st14" d="M84.33,439.2c-.06.64-1.22.64-1.28,0,.43,0,.85,0,1.28,0Z"/>
      <path class="st6" d="M316.82,439.2c-.09,0-.32.43-.43.43v-.85s.43.43.43.43Z"/>
      <path class="st14" d="M100.14,439.2c.17,1.21-.6,1.21-.43,0,.14,0,.28,0,.43,0Z"/>
      <path class="st14" d="M239.47,439.2c.17,1.21-.6,1.21-.43,0,.14,0,.28,0,.43,0Z"/>
      <path class="st6" d="M123.22,439.2c.17,1.21-.6,1.21-.43,0,.14,0,.29,0,.43,0Z"/>
      <path class="st14" d="M506.15,439.2l-.22.43-.64-.43c.28,0,.57,0,.85,0Z"/>
      <path class="st14" d="M222.8,439.2c.17,1.21-.6,1.21-.43,0,.14,0,.28,0,.43,0Z"/>
      <path class="st6" d="M321.09,439.2l-.22.43-.64-.43c.28,0,.57,0,.85,0Z"/>
      <path class="st6" d="M379.64,439.2l-.85.43s0-.43.85-.43Z"/>
      <path class="st6" d="M357.85,439.2c.17,1.21-.6,1.21-.43,0,.14,0,.28,0,.43,0Z"/>
      <path class="st6" d="M183.05,439.2c.14,0,.28,0,.43,0l-.21.42-.21-.42Z"/>
      <path class="st6" d="M180.49,439.62s.15-.43.43-.43l-.43.43Z"/>
      <path class="st6" d="M155.7,439.2c.14,0,.28,0,.43,0l-.21.42-.21-.42Z"/>
      <path class="st6" d="M190.32,439.2c.14,0,.29,0,.43,0l-.21.42-.21-.42Z"/>
      <path class="st6" d="M148.86,439.2c.14,0,.28,0,.43,0l-.21.42-.21-.42Z"/>
      <path class="st14" d="M218.52,439.2c.14,0,.28,0,.43,0l-.21.42-.21-.42Z"/>
      <path class="st6" d="M145.44,439.62l-.43-.43c.28,0,.4.43.43.43Z"/>
      <path class="st6" d="M138.6,439.2c.14,0,.28,0,.43,0l-.21.42-.21-.42Z"/>
      <path class="st14" d="M224.08,439.2c.14,0,.28,0,.43,0l-.21.42-.21-.42Z"/>
      <path class="st14" d="M225.79,439.2c.14,0,.28,0,.43,0l-.21.42-.21-.42Z"/>
      <path class="st14" d="M227.93,439.2c.14,0,.28,0,.43,0l-.21.42-.21-.42Z"/>
      <path class="st6" d="M136.04,439.2c.14,0,.28,0,.43,0l-.21.42-.21-.42Z"/>
      <path class="st14" d="M236.9,439.2c.14,0,.28,0,.43,0l-.21.42-.21-.42Z"/>
      <path class="st14" d="M240.75,439.62l-.43-.43c.26,0,.4.43.43.43Z"/>
      <path class="st14" d="M241.18,439.62s.17-.43.43-.43l-.43.43Z"/>
      <path class="st14" d="M87.32,439.62l-.43-.43c.28,0,.4.43.43.43Z"/>
      <path class="st14" d="M80.48,439.2c.14,0,.28,0,.43,0l-.21.42-.21-.42Z"/>
      <path class="st14" d="M248.44,439.62l-.43-.43c.27,0,.4.43.43.43Z"/>
      <path class="st14" d="M253.14,439.62s.14-.4.43-.43l-.43.43Z"/>
      <path class="st14" d="M52.7,439.62c-.19-.02-.37-.24-.43-.43.19.03.36.24.43.43Z"/>
      <path class="st14" d="M50.99,439.2c.14,0,.29,0,.43,0l-.21.42-.21-.42Z"/>
      <path class="st14" d="M262.54,439.62l-.43-.43c.26-.01.4.43.43.43Z"/>
      <path class="st14" d="M263.4,439.62s.15-.42.43-.43l-.43.43Z"/>
      <path class="st14" d="M265.54,439.2c.14,0,.28,0,.43,0l-.21.42-.21-.42Z"/>
      <path class="st14" d="M268.1,439.62c-.15-.13-.3-.27-.43-.43.14,0,.29,0,.43,0v.43Z"/>
      <path class="st14" d="M476.66,439.2c-.14,0-.28,0-.43,0l.21-.42.21.42Z"/>
      <path class="st6" d="M274.08,439.62h-.43c.05,0,.18-.02.43,0Z"/>
      <path class="st6" d="M166.81,439.2c-.14,0-.28,0-.43,0l.21-.42.21.42Z"/>
      <path class="st6" d="M306.56,439.2c.14,0,.28,0,.43,0l-.21.42-.21-.42Z"/>
      <path class="st6" d="M311.26,439.2c.14,0,.28,0,.43,0l-.21.42-.21-.42Z"/>
      <path class="st6" d="M325.8,439.2c.14,0,.28,0,.43,0l-.21.42-.21-.42Z"/>
      <path class="st6" d="M327.93,439.2c.14,0,.28,0,.43,0l-.21.42-.21-.42Z"/>
      <path class="st6" d="M336.91,439.2c.14,0,.28,0,.43,0l-.21.42-.21-.42Z"/>
      <path class="st6" d="M347.16,439.2c.14,0,.28,0,.43,0l-.21.42-.21-.42Z"/>
      <path class="st6" d="M349.73,439.62s.15-.43.43-.43l-.43.43Z"/>
      <path class="st6" d="M370.67,439.2c.14,0,.28,0,.43,0l-.21.42-.21-.42Z"/>
      <path class="st6" d="M386.06,439.2c.14,0,.28,0,.43,0l-.21.42-.21-.42Z"/>
      <path class="st6" d="M428.79,439.2c.14-.02.29.01.43,0l-.21.42-.21-.42Z"/>
      <path class="st6" d="M457.43,439.62h-.43c.14,0,.28,0,.43,0Z"/>
      <path class="st14" d="M469.82,439.2c.14,0,.28,0,.43,0l-.21.42-.21-.42Z"/>
      <path class="st14" d="M471.96,439.62l-.43-.43c.27,0,.4.43.43.43Z"/>
      <path class="st14" d="M473.67,439.62s.15-.43.43-.43l-.43.43Z"/>
      <path class="st14" d="M480.93,439.2c.14,0,.28,0,.43,0l-.21.42-.21-.42Z"/>
      <path class="st14" d="M484.35,439.2c.14,0,.28,0,.43,0l-.21.42-.21-.42Z"/>
      <path class="st14" d="M486.06,439.2c.14,0,.28,0,.43,0l-.21.42-.21-.42Z"/>
      <path class="st14" d="M488.2,439.2c.14,0,.28,0,.43,0l-.21.42-.21-.42Z"/>
      <polygon class="st14" points="491.19 439.2 491.62 439.2 491.4 439.61 491.19 439.2"/>
      <path class="st14" d="M497.6,439.2c.14,0,.28,0,.43,0l-.21.42-.21-.42Z"/>
      <path class="st14" d="M507,439.2c.14,0,.28,0,.43,0l-.21.42-.21-.42Z"/>
      <path class="st14" d="M509.57,439.62s.15-.43.43-.43l-.43.43Z"/>
      <path class="st14" d="M515.55,439.2c.14,0,.28,0,.43,0l-.21.42-.21-.42Z"/>
      <path class="st14" d="M521.53,439.2c.14,0,.28,0,.43,0l-.21.42-.21-.42Z"/>
      <path class="st14" d="M523.67,439.2c.14,0,.28,0,.43,0l-.21.42-.21-.42Z"/>
      <path class="st6" d="M142.88,439.62c.14,0,.28,0,.43,0l-.21.42-.22-.42Z"/>
      <path class="st8" d="M380.92,148.35c.6.25-1.01.7-1.7.42-.6-.25,1.01-.7,1.7-.42Z"/>
      <path class="st12" d="M337.33,299.33h.43c7.08,0,14.38-.35,21.37.43-.55,1.96.4,6.28,0,8.55-.23-.05-.58,0-.85,0-7.67-.17-15.4,0-23.08,0h-2.56c-.05-.05-.73.18-.86-.29-.25-.94-.1-6.1,0-7.41.03-.38-.09-1.06,0-1.28h5.56Z"/>
      <path class="st12" d="M356.57,352.37c1.17,0,4.82-.17,5.56,0,.03,0,.37.36.43.43v7.7c-.09,2.25.02,4.76-.43,6.84h-9.4c-.49-.57-.96-14.44-.43-14.97.15-.15,3.58,0,4.28,0ZM359.13,357.07c-.03-.34.08-1.22,0-1.28-.18-.16-3.14-.13-3.66.41-.17.18.25,4.37.28,4.94.06,1.33-1.01,2.47.6,2.77,1.53.29,2.62.4,2.78-.86s.04-3.31,0-4.7c-.01-.42.04-.87,0-1.28Z"/>
      <path class="st12" d="M440.76,352.37c.28,0,.57,0,.85,0,.78,0,4.95-.19,5.13,0,.12.13.4,2.92.43,3.42-1.02.18-6.6-.24-6.84,0-.14.14-.11,2.44.41,2.82.56.41,1.81-.23,2.59-.25,1.28-.04,2.57.02,3.85,0-.73,1.92.12,8-.85,8.98h-8.55c-.14-.08-.34-.29-.43-.43.1-.58-.15-2.84,0-3,.21-.22,5.78.22,5.99,0,.08-.08.08-2.09,0-2.32-.18-.58-5.02-.09-5.99-.25,0-.71,0-1.43,0-2.14,0-.99-.24-6.6,0-6.84.12-.12,2.8.02,3.42,0Z"/>
      <path class="st12" d="M433.49,352.37c2.08.17,2.15,2.62,1.28,3.42-.93.16-5.78-.22-5.99,0-.09.09-.08,2.47,0,2.57.06.07.94-.04,1.28,0,.68.07,1.44,0,2.14,0,.85,0,1.71,0,2.56,0,.09.05.35.32.43.43-.08.27-.4.63-.43.86-.17,1.77.12,3.76,0,5.56-.1.67.07,1.45,0,2.14-.26.04-.58-.01-.85,0-1.69.09-6.52.3-7.86-.07-.91-.25-.54-2.59-.69-3.35.99-.32,6.1.3,6.41,0,.06-.06.05-1.4,0-1.71-.03-.2.07-.8,0-.85-.37-.28-5.37.2-6.41,0-.14-.43-.14-8.43,0-8.98,2.59.37,5.57-.21,8.12,0Z"/>
      <path class="st12" d="M398.45,352.37c.14-.02.29,0,.43,0,2.24-.16,5.17-.21,7.27.43.04.36.05,2.85,0,2.99-.88.14-5.36-.2-5.56,0-.09.09-.07,2.47,0,2.57.05.07.66-.03.85,0,.8.11,4.13-.15,4.28,0,.32.32-.24,7.56,0,8.98-1.56-.04-3.17.03-4.7,0-.68-.01-3.71.14-3.85,0-.12-.12-.12-3.31,0-3.43.29-.29,5.36.4,5.56-.23.04-.11.09-2.26,0-2.33-.36-.27-5.32.24-5.56,0-.3-.3-.14-8.15,0-8.56.02-.06,1.13-.41,1.28-.43Z"/>
      <path class="st6" d="M498.03,360.5l.43.43c.47.07,1.2.03,1.71,0,.38-.02.77-.43.85-.43.28,0,.57,0,.85,0l.21.42.21-.42c3.02.44,1.46,2.79,1.28,5.13-.06.8.15,4.13,0,4.28-.33.33-8.01.03-9.21,0-.62-.02-1.24-.42-1.47-.43.23-1.21-.3-8.25,0-8.56.11-.11,2.5.08,3.18-.02,1.08-.15.91-.62,1.95-.41Z"/>
      <path class="st12" d="M379.64,352.37h2.14c.21.99.3,3.3.42,3.42.15.15,1.96-.16,2.14,0,.13.12-.4,2.63-.43,3.42-.06,2.38.31,5.48,0,7.7-.02.15.04.34,0,.43h-2.99c-.31-.92.29-5.71,0-5.99-.08-.07-2.14-.1-2.14,0v5.99c-.73-.16-2.64.38-3.02-.28-.67-1.16.31-12.36.03-14.69h3.85ZM380.93,355.79c-.08-.08-2.07-.08-2.14,0-.09.09-.09,2.48,0,2.57.08.08,2.07.08,2.14,0,.09-.09.09-2.48,0-2.57Z"/>
      <path class="st12" d="M450.16,352.37c2.24-.29,4.96.21,7.27,0-.11.69.15,3.27,0,3.42-.2.2-4.51-.2-4.71,0-.09.09-.09,2.48,0,2.57.2.2,4.51-.2,4.71,0s.11,2.45-.43,3c-.73.12-4.12-.16-4.28,0-.1.1-.23,2.34.43,2.57.73.25,4.04-.24,4.28,0,.12.12.12,3.3,0,3.43s-1.29-.09-1.71,0h-5.98c-.4-.46-.39-1.3-.45-1.9-.2-2-.36-11.26.01-12.82.11-.48.47-.21.86-.26Z"/>
      <path class="st12" d="M349.73,352.37c.06.05-.03.95,0,1.28.18,2.25-.32,4.93,0,7.27-.61.52-.78.29-1.28.43-1.34.18-3.25-.48-4.27.43-.13.17.04,3.49,0,4.28-.01.28.04.59,0,.86-.79.43-2.15.62-2.99.43-.14-.03-.4.05-.43,0-.35-.66-.34-14.31,0-14.97.03-.05.28.03.43,0,.65-.15,8.23-.28,8.55,0ZM346.31,355.79c-.07-.08-2.06-.08-2.14,0-.09.09-.09,2.48,0,2.57s2.46.07,2.57,0-.34-2.47-.43-2.56Z"/>
      <path class="st6" d="M524.95,360.5c.83.01,2.94.88,4.27.43.03.13-.01.29,0,.43.03.28-.02.57,0,.86.05.98.02,2.01,0,2.99,0,.29,0,.57,0,.86-.01.71.05,1.43,0,2.14-.04.52.24,1.57-.25,1.72s-9.65.34-10.01,0c-.1-.1.06-1.29,0-1.71-.15-1.03-.26-7.02,0-7.27.21-.21,5.18-.44,5.99-.43Z"/>
      <path class="st12" d="M395.03,352.37c1.03.26-.44,7.16.37,8.31-.33,1.47-4.96-.02-5.75,1.08-.46.63.86,4.55-.18,5.58h-2.99c-.04-.09.02-.27,0-.43-.15-1.12.02-2.64,0-3.85-.02-1.45-.38-10.31,0-10.69.3-.3,7.99-.14,8.55,0ZM392.04,355.79c-.09-.09-2.48-.09-2.57,0s-.06,2.45.03,2.54,2.45.55,2.53.45c.1-.11.11-2.89,0-2.99Z"/>
      <path class="st15" d="M340.75,316.87c-.24,1.42.32,8.67,0,8.98-1.08-.47-9.07.33-9.4,0s-.07-8.82.42-8.98c1.82-.6,6.75.44,8.97,0Z"/>
      <path class="st15" d="M376.65,316.87c.72.24.73,8.8-.29,9.01-.41.08-7.94.04-8.28-.2-.74-.53-.39-7.35-.41-8.81,2.22.44,7.17-.6,8.97,0Z"/>
      <path class="st15" d="M358.7,316.87c.3.3-.22,7.34,0,8.55-.8.24-9.13.37-9.36-.04-.28-.48-.17-8.33.39-8.51.43-.14,8.66-.32,8.97,0Z"/>
      <path class="st15" d="M416.4,387.44c1.55.43,3.11,1.18,4.7,0h.43c.47.92-.51,1.49.85,1.28.45,2.36-.21,4.46,0,6.84-.07,0-.51.43-1.04.44-2.64.07-5.3-.07-7.94-.01.19-3.01.04-5.5.43-8.55h2.56Z"/>
      <path class="st15" d="M377.94,387.87c1.08,1.88.45.02,1.47-.04.96-.05,6.81-.19,7.08.04.13.11-.37.87-.2,1.3.1.25.61.34.62.41.18.88.23,6.19,0,6.42-.32.32-8.66.32-8.98,0-.29-.29-.08-7.06,0-8.13ZM378.79,391.29c.07-.17.07-1.96,0-2.13-.49-1.21-.49,3.35,0,2.13Z"/>
      <path class="st12" d="M365.11,367.34c-.4-.63-.96-14.44-.43-14.97.13-.13,3.08-.27,3.38.71s-.71,10.33.08,10.8c.63.37,4.83-.24,5.09.04.1.11.06,2.52,0,3-2.02.69-4.66.5-6.84.43-.28,0-.58.03-.85,0h-.43Z"/>
      <path class="st12" d="M460.42,352.37c.48-.06,2.89-.11,2.99,0,.48.47-.41,11.14,0,11.55.2.2,4.51-.2,4.71,0,.12.12.08,3.16,0,3.42-1.54-.29-6.76.48-7.72-.19-.51-.35-.41-5.56-.4-6.66,0-.57-.02-1.14,0-1.71,0-.08.37-.35.38-.69.07-1.82-.21-3.84.05-5.72Z"/>
      <path class="st12" d="M408.28,354.94c.07-1.79-.65-3.31,1.86-2.5,1.31.42.44,3.1.7,3.36.08.08,1.67-.03,2.14,0-.45.98.41,2.48.43,2.99.06,1.51-1.04,1.81-.43,2.57-.66,0-1.54.1-2.14,0-.15-.02-.34.05-.43,0,.44-1.79.67-2.83-1.71-2.57-.14-.15-.3-.26-.43-.43.03-1.14-.05-2.29,0-3.42Z"/>
      <path class="st12" d="M422.81,353.65c-.07.97.2,5.37,0,5.56-.17.17-2.41-.17-2.57,0s.16,1.99,0,2.14c-.09.09-2.03-.03-2.57,0-.14,0-.29,0-.43,0,0-.14,0-.29,0-.43.05-.96-.32-2.18.85-2.57.28.02.58,0,.85,0,.25,0,.81.06.85,0,.41-.53-.55-5.52.04-5.95.47-.34,3.26-.25,2.96,1.25Z"/>
      <path class="st12" d="M415.97,361.35c.43,0,.85,0,1.28,0-.03.95.2,5.37,0,5.56-.14.14-2.04-.1-2.57,0-.83-1.54-.37-3.75-.43-5.56h1.71Z"/>
      <path class="st10" d="M358.28,308.31l-2.33,1.08c-6.91-.69-13.83-.43-20.75-.65v-.43c7.68,0,15.41-.17,23.08,0Z"/>
      <path class="st12" d="M413.83,355.79c.27-2.48-.5-4.44,3.57-3.44.52.13.21.57.27.87v.43c.64,3-1.35,2.19-3.85,2.14Z"/>
      <path class="st10" d="M437.34,361.35c.97.16,5.81-.33,5.99.25.07.23.08,2.24,0,2.32-.21.21-5.78-.22-5.99,0-.15.15.1,2.41,0,3-.32-.53-.68-1.54-.85-2.14-.08-.29-.52-.61-.42-.85.04-.1,1.61-.65,1.7-1.29.07-.49-.43-1.07-.43-1.28ZM438.62,362.21c-.26.08-.44-.02-.43.43.02.74,3.89.25,4.7.85.75-2.07-3.14-1.63-4.27-1.28Z"/>
      <path class="st12" d="M395.46,363.92c.67.68.42,3.7-2.36,3.46-1.97-.17-1.25-3.25-1.06-3.46.12-.13,3.3-.12,3.42,0Z"/>
      <path class="st15" d="M404.86,299.33c-.28,0-.57,0-.85,0-5.83,0-11.69-.01-17.52,0v-.43c6.09.36,12.4-.81,18.38.43Z"/>
      <path class="st1" d="M447.17,355.79c.02.28,0,.57,0,.85-.7-.2-5.8-.67-5.98-.43-1.2,1.62,1.14,1.72,2.13,2.14-.77.02-2.03.66-2.59.25-.52-.38-.54-2.68-.41-2.82.24-.24,5.82.18,6.84,0Z"/>
      <path class="st1" d="M340.75,367.34c-.59-3.7-.61-8-.61-11.76,0-.9.02-2.51.61-3.21-.34.66-.35,14.31,0,14.97Z"/>
      <path class="st10" d="M358.7,316.87c.24.09.79-.27.89.26.12.63-.4,2.11-.36,3.06.06,1.46.68,3.55.34,4.96-.13.53-.6.19-.87.27-.22-1.21.3-8.25,0-8.55Z"/>
      <path class="st1" d="M433.92,367.34c-1.1.51-8.66.75-8.98.43-.14-.14-.21-3.64.43-3.85.15.76-.22,3.1.69,3.35,1.34.37,6.17.16,7.86.07Z"/>
      <path class="st1" d="M418.96,358.36c.74-1.27-.71-5.6.49-6.35.48-.3,3.59.1,3.78.37.32.44-.42,1.19-.43,1.28.3-1.5-2.49-1.59-2.96-1.25-.59.43.37,5.42-.04,5.95-.04.05-.61-.01-.85,0Z"/>
      <path class="st1" d="M378.36,387.01c2.74-.98,6.09-.17,8.97-.42.13.33-.42.38-.43.42l-.85.43h-1.28c-.42-.69-2.12-.7-2.56,0h-.85c-.06-.64-1.22-.64-1.28,0h-1.28c.04-.31-.11-.47-.43-.43Z"/>
      <path class="st10" d="M460.42,352.37c-.26,1.88.02,3.91-.05,5.72-.01.35-.38.61-.38.69-.61-.76-.62-6.16-.43-6.42.05-.07.66.03.85,0Z"/>
      <path class="st12" d="M378.79,387.44h8.12c-.07.7.05,1.43,0,2.14-.01-.07-.52-.16-.62-.41-.17-.43.33-1.19.2-1.3-.27-.23-6.12-.09-7.08-.04-1.02.06-.39,1.92-1.47.04,0-.14-.03-.29,0-.43h.85Z"/>
      <path class="st10" d="M406.14,355.79c-.3.95-3.99.29-4.5.47-.47.16-.09,1.63-.2,2.1-.19-.03-.81.07-.85,0-.08-.1-.09-2.48,0-2.57.19-.2,4.68.15,5.56,0Z"/>
      <path class="st7" d="M436.91,360.5c-.07.53.01.65,0,.86-.05,1.12-1.27,1.42.85,1.28-.09.64-1.66,1.2-1.7,1.29-.1.24.34.56.42.85h-.85c.03-1.12.06-2.3,0-3.42l1.28-.86Z"/>
      <path class="st1" d="M376.65,316.87c-1.8-.6-6.76.44-8.97,0,0-.02-.84-.31-.21-.43,2.88-.17,6.35-.31,9.18.43Z"/>
      <path class="st1" d="M362.12,367.34s.52.11.43.42c-1.78-.3-8.93.61-9.83-.42h9.4Z"/>
      <path class="st1" d="M434.78,355.79c-1.04.96-4.97.03-5.53.89-.37.57.01,1.57.83,1.25v.43c-.34-.03-1.22.08-1.28,0-.08-.1-.09-2.48,0-2.57.21-.21,5.06.16,5.99,0Z"/>
      <path class="st1" d="M433.49,352.37c-2.55-.21-5.53.37-8.12,0,.09-.33.31-.71.68-.78,1.03-.19,6.02.52,7.44.78Z"/>
      <path class="st1" d="M362.55,360.5v-7.7c1.21,1.53.07,5.87,0,7.7Z"/>
      <path class="st1" d="M359.56,299.33v9.41c-.35.11-.39-.42-.43-.43.4-2.27-.55-6.59,0-8.55.07-.27.1-.42.43-.43Z"/>
      <path class="st10" d="M435.63,361.35c.06,1.12.03,2.3,0,3.42-.05,1.74.61,2.32-.85,2.57.07-.69-.1-1.47,0-2.14.24-1.68.34-3.53.85-5.13.05.42-.02.86,0,1.28Z"/>
      <path class="st1" d="M331.78,316.87c2.89-.98,6.37-.17,9.4-.42.11.34-.42.38-.43.42-2.23.44-7.15-.6-8.97,0Z"/>
      <path class="st0" d="M417.25,360.92c0,.14,0,.29,0,.43-.43,0-.85,0-1.28,0l1.28-.43Z"/>
      <path class="st0" d="M417.68,361.35c-.23.96.48,5.49-.02,5.97-.11.1-2.49.08-2.97.02v-.43c.52-.1,2.42.14,2.57,0,.2-.19-.03-4.61,0-5.56.14,0,.29,0,.43,0Z"/>
      <path class="st1" d="M377.94,387.44c-.03.13,0,.29,0,.43-.08,1.07-.29,7.84,0,8.13-.72-2.64-.71-6.38,0-8.98-.05.05.03.27,0,.43Z"/>
      <path class="st1" d="M398.88,352.37c.64-.88,7-.68,7.27-.42.07.06-.03.59,0,.85-2.1-.64-5.03-.58-7.27-.43Z"/>
      <path class="st1" d="M358.7,316.87c-.32-.32-8.55-.14-8.97,0,2.36-.6,6.82-.86,8.97,0Z"/>
      <path class="st15" d="M414.26,361.35c.06,1.81-.4,4.02.43,5.56v.43c-.19-.02-.8.07-.85,0-.17-.22,0-4.7,0-5.56,0-.14,0-.29,0-.43.01-.67-.26-1.72.43-2.14.13.47-.02,1.52,0,2.14Z"/>
      <path class="st10" d="M524.95,360.5c.84-.88,1.86-.02,2.38-.05.16,0,1.33-2.18,1.89.48-1.33.45-3.45-.42-4.27-.43Z"/>
      <path class="st1" d="M349.73,352.37c-.32-.28-7.9-.15-8.55,0,2.45-.72,6.06-.72,8.55,0Z"/>
      <path class="st1" d="M395.03,352.37c-.55-.14-8.25-.3-8.55,0,2.45-.72,6.06-.72,8.55,0Z"/>
      <path class="st1" d="M349.73,360.92c-.32-2.34.18-5.02,0-7.27.47,1.62,1.15,6.29,0,7.27Z"/>
      <path class="st1" d="M446.32,367.34c-.77.77-7.47.64-8.55,0h8.55Z"/>
      <path class="st1" d="M468.11,367.34c-.24.74-8.06.62-8.49-.06-.25-.4-.27-5.91.37-6.78-.01,1.1-.1,6.3.4,6.66.95.67,6.18-.1,7.72.19Z"/>
      <path class="st0" d="M384.35,362.63c.01,1.42,0,2.85,0,4.28h-.43c.31-2.22-.06-5.32,0-7.7.76.72.42,2.35.43,3.42Z"/>
      <path class="st10" d="M345.03,361.78c-.76,1.32.91,4.64-.85,4.28.04-.78-.13-4.11,0-4.28.04-.05.67.02.85,0Z"/>
      <path class="st1" d="M450.16,352.37c2.29-.97,5.25-.18,7.69-.42.11.34-.42.38-.43.42-2.31.21-5.03-.29-7.27,0Z"/>
      <path class="st1" d="M413.83,355.79c-.34,3.16.07,1.36.57,2.65.29.77.21,2.38.29,2.48.07.08,1.93-.39,2.04-.52.26-.3.26-2.24.52-2.47.29-.26.8.42.85.43-1.17.39-.81,1.6-.85,2.57l-1.28.43h-1.71c-.02-.62.13-1.67,0-2.14s-.44-.47-.85-.43c-.02-.51-.88-2.01-.43-2.99.28.02.57,0,.85,0Z"/>
      <path class="st1" d="M373.23,366.91c-.02.19.07.81,0,.85-.27.21-6.02.17-6.84-.43,2.18.08,4.82.27,6.84-.43Z"/>
      <path class="st1" d="M425.37,361.35c1.05.2,6.05-.27,6.41,0,.07.05-.03.66,0,.85-1.22-1.04-6.05.22-6.41-.86Z"/>
      <path class="st1" d="M457,361.35c-1.48,1.49-4.68-1.33-3.85,2.57-.66-.22-.53-2.47-.43-2.57.16-.16,3.54.12,4.28,0Z"/>
      <path class="st1" d="M362.12,352.37c-.73-.17-4.38,0-5.56,0,1.37-.73,4.27-.71,5.56,0Z"/>
      <path class="st0" d="M435.63,359.64c.03.14-.02.29,0,.43-.51,1.6-.61,3.45-.85,5.13.12-1.8-.17-3.79,0-5.56h.85Z"/>
      <path class="st1" d="M455.72,367.34c-1.36.29-5.05,1.06-5.98,0h5.98Z"/>
      <path class="st10" d="M539.48,395.56h-.85c-.17.77.62.28.85.44.51.34-.76.45-.8.5-.38.49,1.45,1.11-1.76,1.21,1.34-1.05,1.18-1.78,1.06-3.41l1.5,1.27Z"/>
      <path class="st1" d="M405.71,367.34s.54.08.43.42c-1.6-.21-3.76.52-5.13-.42,1.53.03,3.15-.04,4.7,0Z"/>
      <path class="st10" d="M504.93,362.54c.18.1.49-.42.81-.1,2.34,2.4-2.12,1.84-1.3-.67.71-.19.28.65.49.76Z"/>
      <path class="st12" d="M417.25,387.44h3.85c-1.59,1.18-3.15.43-4.7,0h.85Z"/>
      <path class="st1" d="M446.74,352.37c-.18-.19-4.34,0-5.13,0,1.14-.71,3.9-.73,5.13,0Z"/>
      <path class="st10" d="M386.48,366.91c-1.47.56-.36-2.96,0-3.85.02,1.21-.15,2.73,0,3.85Z"/>
      <path class="st1" d="M417.25,387.01v.43h-.85c-.81-.23-1.48-.75-2.56-.43,0-.05-.54-.08-.43-.42,1.51-.25,2.52.09,3.85.42Z"/>
      <path class="st10" d="M408.28,358.36c-.15-.2-1.24-2.23-1.28-2.36-.05-.16,1.21-.51,1.28-1.06-.05,1.14.03,2.29,0,3.42Z"/>
      <path class="st1" d="M410.42,361.35c-.83-.42-.15-1.47-.52-2.06-.09-.13-.89-.18-1.19-.51,2.38-.27,2.15.78,1.71,2.57Z"/>
      <path class="st1" d="M384.35,366.91c0-1.42.01-2.85,0-4.28.71.93.73,3.46,0,4.28Z"/>
      <path class="st1" d="M379.64,352.37h-3.85l-.43-.42c1.32.18,3.2-.49,4.27.42Z"/>
      <path class="st1" d="M348.45,361.35c-1.58.45-2.05.26-3.42.43-.19.02-.81-.05-.85,0,1.02-.91,2.93-.25,4.27-.43Z"/>
      <path class="st1" d="M335.2,308.31v.43c-.57-.02-1.92.47-2.31.42-.45-.06-.18-.78-.25-.85h2.56Z"/>
      <path class="st1" d="M412.98,361.35h.85c0,.14,0,.29,0,.43-1.04.42-2.17.44-2.99-.43.6.1,1.47,0,2.14,0Z"/>
      <path class="st1" d="M440.76,352.37c-.62.02-3.3-.12-3.42,0,.68-.72,2.75-.71,3.42,0Z"/>
      <path class="st1" d="M421.96,387.01l-1.71.43h-.85c-.42-1.29,1.62-1.15,2.56-.43Z"/>
      <path class="st10" d="M344.17,366.91c-.24,1.45-1.55,1.15-2.99.43.84.19,2.2,0,2.99-.43Z"/>
      <path class="st1" d="M389.47,367.34c-.59.58-2.6.83-2.99,0h2.99Z"/>
      <path class="st1" d="M383.92,367.34c-.34.71-2.76.7-2.99,0h2.99Z"/>
      <path class="st0" d="M416.4,387.44h-2.56c.02-.12.02-.31,0-.43,1.09-.32,1.75.2,2.56.43Z"/>
      <path class="st1" d="M437.34,361.35h-.43c.01-.21-.07-.33,0-.86.06-.47-.12-.99.43-1.28,0,.71,0,1.43,0,2.14Z"/>
      <path class="st10" d="M306.56,423.8c0-.71,0-1.43,0-2.14,1.19.35.67,1.4,0,2.14Z"/>
      <path class="st1" d="M434.78,358.36c-.85,0-1.71,0-2.56,0v-.43c1.13.09,1.36-.21,2.56.43Z"/>
      <path class="st10" d="M432.21,357.93v.43c-.69,0-1.46.07-2.14,0v-.43c.38-.44,1.53-.05,2.14,0Z"/>
      <path class="st1" d="M380.07,352.37l2.14-.42c.1.31-.44.39-.43.42h-1.71Z"/>
      <path class="st0" d="M421.96,387.01c.17.13.33.21.43.43h-2.14l1.71-.43Z"/>
      <path class="st12" d="M422.38,387.44c.11.25-.07.91,0,1.28-1.37.21-.39-.36-.85-1.28h.85Z"/>
      <path class="st10" d="M501.02,360.5c-.08,0-.47.41-.85.43l.64-1.28.21.85Z"/>
      <path class="st10" d="M529.23,365.2c1.27-.26,1.34,1.09,0,.86,0-.28,0-.57,0-.86Z"/>
      <path class="st10" d="M488.63,361.35c-.89.12-.97.04-.85-.85l.85.85Z"/>
      <path class="st10" d="M398.45,352.37c-.16.02-1.26.36-1.28.43-.2-1.19.4-1.05,1.28-.43Z"/>
      <path class="st0" d="M418.54,387.44h-1.28v-.43c.41.1.98-.13,1.28.43Z"/>
      <path class="st1" d="M306.99,415.24h-.43c.01-.28-.04-.6,0-.86,1.37.64.48.75.43.86Z"/>
      <path class="st10" d="M542.05,369.48c-.6.84-1.05.03-1.28,0h1.28Z"/>
      <path class="st10" d="M529.23,361.35c1.3-.15.99.34,0,.86-.02-.28.03-.58,0-.86Z"/>
      <path class="st4" d="M539.48,360.07c-.52-.43-.5-.85,0-1.28,0,.43,0,.86,0,1.28Z"/>
      <path class="st10" d="M435.63,359.64h-.85c.02-.23.35-.58.43-.86.26.35.33.34.43.86Z"/>
      <path class="st0" d="M378.79,387.44h-.85c.03-.15-.05-.38,0-.43.05-.05.27.02.43,0,.32-.04.46.12.43.43Z"/>
      <path class="st10" d="M538.62,375.89c-.21.32-.72-.39-.42-.85.21-.32.72.39.42.85Z"/>
      <path class="st10" d="M489.05,359.64c.32.21-.39.72-.85.42-.32-.21.39-.72.85-.42Z"/>
      <path class="st10" d="M538.2,369.05c.32.21-.39.72-.85.42-.32-.21.39-.72.85-.42Z"/>
      <path class="st10" d="M536.92,368.63c.32.21-.39.72-.85.42-.32-.21.39-.72.85-.42Z"/>
      <path class="st0" d="M386.91,387.01c-.03.13.01.28,0,.43h-.85l.85-.43Z"/>
      <path class="st1" d="M365.11,367.34h.43c-.18-.02-.02.63-.43,0Z"/>
      <path class="st4" d="M539.06,352.8c-.06-.12.07-.4,0-.43l.42.21-.42.21Z"/>
      <path class="st10" d="M306.56,420.38v-.43c0,.13,0,.3,0,.43Z"/>
      <path class="st10" d="M306.56,415.67c0-.14,0-.29,0-.43h.43c-.08.18-.28.31-.43.43Z"/>
      <path class="st1" d="M417.68,353.65v-.43c.02.09.3.19,0,.43Z"/>
      <polygon class="st10" points="536.71 366.91 536.92 367.13 536.71 367.34 536.71 366.91"/>
      <polygon class="st10" points="536.28 398.56 536.49 398.78 536.28 398.99 536.28 398.56"/>
      <polygon class="st10" points="535.85 397.71 536.06 397.92 535.85 398.13 535.85 397.71"/>
      <path class="st10" d="M498.46,360.92l-.43-.43c.18.04.35.42.43.43Z"/>
      <path class="st10" d="M501.87,360.5c.14,0,.29-.02.43,0l-.21.42-.21-.42Z"/>
      <polygon class="st10" points="490.12 360.92 490.34 361.14 490.12 361.35 490.12 360.92"/>
      <polygon class="st10" points="538.42 378.89 538.63 379.1 538.42 379.31 538.42 378.89"/>
      <polygon class="st10" points="506.36 364.34 506.58 364.56 506.36 364.77 506.36 364.34"/>
      <polygon class="st10" points="540.12 370.76 540.34 370.97 540.12 371.19 540.12 370.76"/>
      <path class="st6" d="M529.23,387.44v8.13c0,.08-1.42.43-1.5.43h-7.05v8.13h-8.97v-8.13h-8.33c-.12,0-1.06-.47-1.11-.71-.27-1.59.79-5.9.46-7.84h26.5Z"/>
      <path class="st1" d="M409.56,431.5c.21,0,.74-.6.85-.43s.16,4.13,0,4.28c-.19.19-3.67-.19-3.85,0-.35.36.81,2.96-.85,2.57.08-.82-.1-2.88,0-2.99.53-.56,6.18,1.63,3.85-3.42Z"/>
      <path class="st1" d="M302.29,431.07l.22.85c-1.19-1.34-3.98,1.01-3.64-.85,2.03-.49,1.99-.01,3.42,0Z"/>
      <path class="st1" d="M297.59,431.07c-.44.27.97.91-1.28.43-.38-.08-.76-.39-1.28-.43.6-.34,1.05-1.09,1.28-1.71l1.28,1.71Z"/>
      <path class="st1" d="M528.37,380.17c.47.47-.38,1.32-.85.85s.38-1.32.85-.85Z"/>
      <path class="st1" d="M440.33,431.93c.46.21-.62.72-1.28.42-.46-.21.62-.72,1.28-.42Z"/>
      <path class="st5" d="M509.99,428.51c.32.21-.39.72-.85.42-.32-.21.39-.72.85-.42Z"/>
      <path class="st5" d="M323.23,299.33c2.25.3,5.4-.4,7.51-.04.93.16.54.77,1.04,1.32-.11,1.31-.26,6.47,0,7.41.13.47.81.23.86.29.07.07-.2.79.25.85.39.05,1.74-.44,2.31-.42,6.91.22,13.84-.04,20.75.65l2.33-1.08c.28,0,.62-.05.85,0,.04,0,.07.54.42.43v-9.41c8.97-.02,17.96.02,26.93,0,5.83-.01,11.69,0,17.52,0-1.48.55-.07,1.86,0,3.21.05.98-.21,5.57,0,5.78.33.33,7.97-.4,8.93.47.04.04-.31.51-.26.58.66.92.28.63.45,1,.07.16.65.04.7.1.16.2-.65.71-.74,1.16-.13.65-.65,5.24.54,5.24h8.33c.72,0,.51,8.2.94,8.48,1.19.77,13.72.22,15.93.06.36-.03,1.08.42,1.08.66v8.34c0,.92,17.06-.78,18.41.19s.03,5.07,0,6.05c0,.18.84.16.85.42.03.66-1.14,1.75.26,2.26l25.36-.36v9.84c0,.38,6.71.05,7.69,0,.07,0,.13.03.43,0,.5-.05,1.02-.43,1.08-.43.24.01.23,1.33.63.86.04-.05-.09-1.63.86-.85.12.1-1.03,1.07.21.86.46-1.64,1.72-.54,2.93-.6,8.3-.35,14.93-.31,22.93-.26,2.38.01,16.73-.38,17.52,0,.07.03-.06.31,0,.43.59,1.17.39,4.43.43,5.99-.5.44-.52.86,0,1.28,0,.29,0,.57,0,.86,0,2.86-.2,5.72-.43,8.55.56.06,1.15-.06,1.71,0,.23.03.68.84,1.28,0,.74,0,4.54-.17,4.7,0,.62.62.04,15.32,0,17.54,0,.08-.44.69-.46,1.45-.12,5.07.16,10.17.03,15.24h-7.48s-.64.6-.64.64v8.77c0,.43-7.71-.32-8.55,0,.11-1.95.09-2.47.33-4.06.04-.24.14-1.99.13-2.09-.08-.49-.9-.07-.89-.48s.69,0,.85-.48-.61-3.75.08-4.79c.46-.7,4.88-.75,5.06-.93.2-.2-.56-3.69-.42-3.82.22-.22,2.13.02,2.13-.88-6.2,1.08.23-1.49.43-2.37.37-1.64-.57-.88-1.71-.63-.07-.81,1.58-.67,1.71-.86.39-.57-1.72-2.16-1.28-2.56.64-.57,2.08,2.23,2.56.63.28-.93-2.35-1.71-2.56-2.34,3.03.31,1.04-.69,1.24-1.89.06-.35.86-.23.89-.27.16-.22-.65-.66-.74-1.12-.08-.43.46-1.05.24-1.35-.06-.08-1.41-.03-.76-.92.1-.14.9.31.82-.63s-1.31-1.12-1.27-1.31c.02-.13,2.12-1.37,1.71-1.92-.12-.16-1.8-.09-1.71-.86l2.56-.43c-1.62.54-1.93-1.78-2.24-2.04-.49-.4-1.35.37-1.16-.73.44-2.57.93.18,1.06.22,1.18.38,5.99-1.38,7.9-.45.19-.7-.76-.26-.86-.63-.39-1.37.84-.92.87-1.29.1-1.1-5.49.17-5.78.12-.23-.04-.12-.68-.4-.71-.76-.09-1.56,1.48-.66-1.33-.79.09-.1,1.38-1.47.82-1.75-.7-1.07-2.24-1.13-3.13-.11-1.67-.85-3.64-2.87-2.33-1.42.92.51,1.4.69,1.88.12.32-.32,2.07.09,2.74-1.09.52-.71-.86-1.11-.86-.29,0-.76.48-.98.38-.13-.06-.4-1.73-1.76-1.23.05-.7-.01-1.43,0-2.14,1.34.24,1.27-1.12,0-.86.02-.99.05-2.01,0-2.99.99-.52,1.3-1.01,0-.86-.01-.14.03-.29,0-.43-.57-2.66-1.73-.49-1.89-.48-.52.03-1.54-.82-2.38.05-.8-.01-5.77.22-5.99.43-.26.26-.15,6.24,0,7.27-1.12-.52-1.34.84-1.57.87-.74.1-2.02-.64-2.28-.44-.08.06.47.82.43.85-.48.35-5.12-.54-6.16-.42-.38.04.27.9-1.67.8-4.34-.22-2.54-1.44-4.14-4.23.18-2.34,1.73-4.7-1.28-5.13-.14-.02-.29,0-.43,0-.28,0-.57,0-.85,0l-.21-.85-.64,1.28c-.51.03-1.24.07-1.71,0-.08-.01-.25-.39-.43-.43-1.04-.21-.87.26-1.95.41-.69.1-3.07-.09-3.18.02-.3.3.23,7.34,0,8.56-2.81-.06-12.97.74-14.13.34-.45-.15-.87-.65-1.68-.34-.15.88,1.29.09,1.28.64,0,.51-.99-.15-1.31.49-.61,1.26.21,3.34.06,4.65-.17,1.48-1.59,1.7-.04,3.19-1.49-.13-1.71-.22-2.56.85.2-1.74-2.85-.68-3-.85-.2-.22.41-1.42-.43-1.28.15,2.64-.92.62-1.5.43-.37-.12-.05.77-.49.87-1.44.33-4.69-.77-6.73.11-.75.32-.48,1.6-1.96,1.15-.24-.56,1.78-.44.85-1.28-.19-.17-1.55.62-1.7.43-.19-.23.41-1.42-.42-1.28.2.62-.85.97-.87,1.08-.34,1.87.93.41,1.28,1.48-2.39-.15-.62.42-.62,1.05,0,.56-.11,2.08-.24,2.52-.15.52-.86.1-.86.5s.75.01.87.49c.09.35.09,2.62,0,2.72-.22.22-5.64.05-6.22-.08-.41-.09.02-.79-.41-.78s-.09.71-.25.81c-.17.1-2.71-.71-3.96-.38-.48.13-.09.87-.49.87s0-.74-.49-.87c-1.29-.35-2.55.39-3.38.38-.12,0-.16-1.34-2.04-.8-.33.09-.31.86-.48.84-.51-.06-1.47-.75-2.58-.85s-5.45-.39-6.29,0c-1.07.5-.44,2.13-.52,3.01-.18,2.28.09,1.5.11,1.88.02.48-.21,3.94-.36,4.08-.33.33-1.64-.39-1.95-.39-1.22,0-4.77.33-7.02.39-.21-2.39.45-4.48,0-6.84-.07-.38.11-1.03,0-1.28-.09-.22-.26-.3-.43-.43-.94-.73-2.98-.87-2.56.43h-.85c-.31-.55-.87-.32-1.28-.43-1.33-.34-2.33-.68-3.85-.42-.11.34.42.37.43.42.02.12.02.3,0,.43-.38,3.06-.24,5.54-.43,8.55-.18,2.81-.49-.08-2.38-.42-.73-.13-2.98-.1-2.96.86-1.43-.06.85-.99-1.45-1.04s-1.95.85-2.78,2.17c-.06.1-2.17,1.01.17.79-.16.94-.39,5.67-1.14,5.81-1.39.24-3.41-1-3.56-.89-.06.04-.09,1.1-.68,1.25-.48.12-2.05-.73-2.96-.73-2.03,0-4.71.56-6.84.56-.35,0-.87-.69-1.67-.65-.69.03-1.84.96-1.96.86-.3-.24-.97-3.72-.64,0-.91-1.14-2.37-.58-3.35-.84-.5-.14-.1-.83-.5-.86-.14-.01-.36,1.24-2.2,1.27-1.62.02-1.52-.66-2.07-.83-.36-.12-.05.75-.49.87-1.38.36-3.02-.98-3.14-.87-.16.14.35,1.02-.43.85l-.43-1.28c-1.55,1.5-1.55,3.08-2.28,4.59-.05.1-1.12.16-.71.53.06.06.8-.15.88.27.12.6-.36,1.4-.38,2.09-.02.92.98,2.12-.35,2.73-1.58.71-1.38-.71-1.46-.78-.85-.68-.79.75-1.12.83-1.48.39-3.89-.26-5.43-.28-.83,0-1.83.67-2.23.69-.22,0-.08-.89-.39-.84-.21.03-.66.67-1.27.67-5.05-.03-10.09-.12-15.13-.17-.41,1.01-1.14,2.72.36,2.51.07.77-.72,0-.89,1.03-.41,2.66.65,2.08.89,2.39.13.18-.8.84-.86,1.5-.05.52.5,1.41.44,1.48-.47.51-5.07.19-6.13.44-.36.08-.25.9-.49.85-4.09-.8-4.3-.43-8.16-.47-.15,0-.51-.36-2.51-.36-2.43,0-6.17-.3-8.44.07-1.97.32-.76.71-.76.97v7.06c0,.07-.9-.08-1.36.11-.41.17-1.06.83-1.19.74-.06-.04.08-.68-.21-.77-1.25-.37-5.2,1.57-6.21-.51.74-1.35,0-4.58,0-6.42.67-.74,1.19-1.79,0-2.14,0-.43,0-.86,0-1.28,0-.13,0-.3,0-.43.02-1.42-.04-2.86,0-4.28.15-.12.35-.25.43-.43.05-.11.94-.22-.43-.86.04-.23-.13-.61.05-.79,1.04-1.04,8.07-.09,8.07-.49v-8.98h7.27v-8.55c-5.06.05-10.13-.06-15.19-.01-13.52.13-27.14,0-40.8.01.15-.43,1.23-1.25,1.5-1.28.47-.06-.14,1.05.63.85,1.48-5.61-.93-2.89-1.27-2.99-.07-.02-.89-1.03-.89-1.1-.01-1.12,2.61-2.86.45-2.75l1.28-.85c2.42-.01,17.65.34,18.4-.19,1.11-.78-.16-7.33.4-8.37.02-.04.67.12.77-.06.95-1.67.07-5.86.08-7.83,0-1.53.48-3.57.47-5.15,0-.78-1.18-4.92.18-4.92h8.76v-17.11c2.32-.42,6.73.56,8.74.02.48-.13.19-.89.24-1.31.51-.43.72-1.46,0-1.71,0-.14,0-.29,0-.43.71-3.81.71-8.59,0-12.4,0-.14-.01-.29,0-.43l.43-.64-.43-.22c.79-1.78,8.55-.41,8.55-.86v-8.55h8.97c.06-5.98-.08-11.98,0-17.96ZM376.65,316.87c-2.83-.73-6.31-.59-9.18-.43-.63.12.21.4.21.43.02,1.45-.33,8.27.41,8.81.34.24,7.87.29,8.28.2,1.02-.21,1.01-8.77.29-9.01ZM331.78,316.87c-.49.16-.74,8.65-.42,8.98s8.32-.46,9.4,0c.32-.32-.24-7.56,0-8.98,0-.04.54-.08.43-.42-3.03.25-6.52-.56-9.4.42ZM349.73,316.87c-.56.18-.66,8.04-.39,8.51.24.41,8.56.28,9.36.04.27-.08.74.26.87-.27.34-1.41-.28-3.5-.34-4.96-.04-.95.47-2.43.36-3.06-.1-.53-.65-.17-.89-.26-2.15-.86-6.62-.6-8.97,0ZM398.88,352.37c-.14,0-.29-.02-.43,0-.89-.63-1.48-.76-1.28.43-.14.4-.3,8.25,0,8.56.24.24,5.2-.27,5.56,0,.09.07.04,2.22,0,2.33-.2.63-5.28-.06-5.56.23-.12.12-.12,3.31,0,3.43.14.14,3.17-.02,3.85,0,1.37.95,3.53.21,5.13.42.11-.34-.42-.38-.43-.42-.24-1.42.32-8.67,0-8.98-.15-.15-3.48.11-4.28,0,.12-.47-.27-1.94.2-2.1.51-.18,4.19.48,4.5-.47.05-.14.04-2.63,0-2.99-.02-.26.07-.79,0-.85-.27-.25-6.62-.46-7.27.42ZM425.37,352.37c-.14.55-.14,8.56,0,8.98.36,1.07,5.19-.18,6.41.86.05.31.06,1.65,0,1.71-.31.3-5.42-.32-6.41,0-.64.21-.57,3.71-.43,3.85.32.32,7.87.08,8.98-.43.28-.01.59.04.85,0,1.46-.25.81-.82.85-2.57h.85c.17.6.53,1.61.85,2.14.08.14.29.35.43.43,1.07.64,7.78.77,8.55,0,.97-.98.12-7.06.85-8.98-1.28.02-2.57-.04-3.85,0-.99-.42-3.33-.52-2.13-2.14.18-.24,5.28.23,5.98.43,0-.28.02-.57,0-.85-.03-.51-.31-3.3-.43-3.42-1.23-.73-3.98-.71-5.13,0-.28,0-.57,0-.85,0-.67-.71-2.74-.72-3.42,0-.24.24,0,5.85,0,6.84-.55.29-.37.81-.43,1.28l-1.28.86c-.02-.42.05-.87,0-1.28-.02-.14.03-.29,0-.43-.1-.51-.17-.5-.43-.86-.08-.11-.34-.38-.43-.43-1.2-.64-1.44-.34-2.56-.43-.61-.05-1.76-.44-2.14,0-.82.32-1.2-.68-.83-1.25.56-.86,4.49.08,5.53-.89.86-.8.8-3.25-1.28-3.42-1.42-.26-6.41-.97-7.44-.78-.36.07-.59.44-.68.78ZM341.18,352.37c-.14.03-.4-.05-.43,0-.59.7-.61,2.31-.61,3.21,0,3.76.02,8.06.61,11.76.03.05.28-.03.43,0,1.44.72,2.75,1.02,2.99-.43.04-.26-.01-.58,0-.86,1.76.36.1-2.96.85-4.28,1.37-.16,1.84.02,3.42-.43.5-.14.68.09,1.28-.43,1.15-.98.47-5.66,0-7.27-.03-.33.06-1.23,0-1.28-2.48-.72-6.1-.72-8.55,0ZM356.57,352.37c-.69,0-4.13-.15-4.28,0-.53.53-.06,14.41.43,14.97.9,1.03,8.05.12,9.83.42.09-.31-.44-.39-.43-.42.45-2.08.34-4.59.43-6.84.07-1.83,1.21-6.17,0-7.7-.05-.07-.4-.42-.43-.43-1.29-.71-4.18-.73-5.56,0ZM375.8,352.37c.28,2.33-.7,13.53-.03,14.69.38.66,2.29.12,3.02.28v-5.99c0-.11,2.06-.08,2.14,0,.28.28-.31,5.07,0,5.99.24.7,2.66.71,2.99,0,.04-.09-.02-.27,0-.43h.43c.73-.81.71-3.35,0-4.28,0-1.07.33-2.7-.43-3.42.02-.79.55-3.3.43-3.42-.18-.16-1.99.15-2.14,0-.12-.12-.21-2.44-.42-3.42,0-.03.53-.11.43-.42l-2.14.42h-.43c-1.07-.92-2.95-.24-4.27-.42l.43.42ZM386.48,352.37c-.38.38-.02,9.25,0,10.69-.36.89-1.47,4.41,0,3.85.02.15-.04.34,0,.43.4.83,2.4.58,2.99,0,1.04-1.03-.28-4.95.18-5.58.79-1.1,5.42.39,5.75-1.08-.82-1.15.65-8.05-.37-8.31-2.48-.72-6.1-.72-8.55,0ZM418.96,358.36c-.28,0-.58.02-.85,0-.05,0-.56-.68-.85-.43-.26.23-.26,2.17-.52,2.47-.11.13-1.97.6-2.04.52-.08-.09,0-1.71-.29-2.48-.49-1.3-.91.51-.57-2.65,2.5.05,4.49.87,3.85-2.14.3-.23.02-.34,0-.43-.06-.3.25-.74-.27-.87-4.08-1-3.3.96-3.57,3.44-.28,0-.57.02-.85,0-.47-.03-2.06.08-2.14,0-.26-.26.61-2.94-.7-3.36-2.51-.81-1.79.71-1.86,2.5-.07.55-1.33.9-1.28,1.06.04.13,1.13,2.16,1.28,2.36.13.16.29.28.43.43.3.33,1.1.37,1.19.51.37.59-.31,1.64.52,2.06.09.05.27-.02.43,0,.82.87,1.95.85,2.99.43,0,.87-.17,5.34,0,5.56.05.07.66-.03.85,0,.48.06,2.87.08,2.97-.02.5-.48-.21-5.01.02-5.97.54-.03,2.48.09,2.57,0,.15-.15-.16-1.98,0-2.14s2.4.17,2.57,0c.2-.2-.07-4.59,0-5.56,0-.09.74-.84.43-1.28-.2-.27-3.3-.67-3.78-.37-1.2.75.25,5.08-.49,6.35ZM450.16,352.37c-.4.05-.75-.23-.86.26-.37,1.56-.21,10.81-.01,12.82.06.6.04,1.44.45,1.9.93,1.06,4.63.29,5.98,0,.42-.09,1.6.12,1.71,0s.12-3.31,0-3.43c-.24-.24-3.55.25-4.28,0-.83-3.89,2.37-1.08,3.85-2.57.54-.55.63-2.79.43-3s-4.51.2-4.71,0c-.09-.09-.09-2.48,0-2.57.19-.2,4.51.2,4.71,0,.15-.15-.12-2.73,0-3.42,0-.04.54-.08.43-.42-2.45.24-5.4-.55-7.69.42ZM365.11,367.34c.4.63.25-.02.43,0,.28.03.57,0,.85,0,.82.6,6.57.63,6.84.43.07-.05-.03-.66,0-.85.06-.48.11-2.89,0-3-.26-.27-4.47.34-5.09-.04-.79-.47.24-9.78-.08-10.8s-3.25-.84-3.38-.71c-.53.53.03,14.34.43,14.97ZM459.99,358.78c-.02.57,0,1.14,0,1.71-.64.87-.62,6.38-.37,6.78.43.68,8.25.8,8.49.06.09-.27.12-3.3,0-3.42-.2-.2-4.51.21-4.71,0-.41-.41.48-11.09,0-11.55-.11-.1-2.52-.06-2.99,0-.19.02-.8-.07-.85,0-.19.26-.18,5.66.43,6.42ZM489.05,359.64c-.46-.31-1.17.2-.85.42.46.31,1.17-.2.85-.42ZM488.63,361.35l-.85-.85c-.12.89-.04.97.85.85ZM490.12,360.92v.43l.21-.21-.21-.21ZM504.93,362.54c-.21-.12.23-.95-.49-.76-.82,2.5,3.63,3.07,1.3.67-.32-.33-.63.2-.81.1ZM395.46,363.92c-.12-.12-3.31-.13-3.42,0-.19.2-.91,3.29,1.06,3.46,2.78.24,3.04-2.78,2.36-3.46ZM506.36,364.34v.43l.21-.21-.21-.21ZM536.71,366.91v.43l.21-.21-.21-.21ZM536.92,368.63c-.46-.31-1.17.2-.85.42.46.31,1.17-.2.85-.42ZM538.2,369.05c-.46-.31-1.17.2-.85.42.46.31,1.17-.2.85-.42ZM540.12,370.76v.43l.21-.21-.21-.21ZM538.62,375.89c.31-.46-.2-1.17-.42-.85-.31.46.2,1.17.42.85ZM538.42,378.89v.43l.21-.21-.21-.21ZM378.36,387.01c-.15.02-.38-.05-.43,0-.71,2.6-.72,6.34,0,8.98.32.32,8.66.32,8.98,0,.23-.23.18-5.54,0-6.42.05-.7-.07-1.44,0-2.14.01-.14-.03-.3,0-.43,0-.04.56-.09.43-.42-2.88.25-6.24-.55-8.97.42ZM539.48,395.56l-1.5-1.27c.12,1.62.28,2.35-1.06,3.41,3.21-.09,1.39-.72,1.76-1.21.04-.05,1.31-.15.8-.5-.23-.16-1.02.33-.85-.43h.85ZM535.85,397.71v.43l.21-.21-.21-.21ZM536.28,398.56v.43l.21-.21-.21-.21Z"/>
      <polygon class="st5" points="492.9 352.8 492.47 352.8 492.69 352.37 492.9 352.8"/>
      <polygon class="st5" points="518.33 429.36 518.54 429.57 518.33 429.79 518.33 429.36"/>
      <polygon class="st5" points="509.35 429.36 509.57 429.57 509.35 429.79 509.35 429.36"/>
      <path class="st5" d="M520.68,421.66c-.62.03-1.18.32-1.7.22.28-1.14,2.78-1.26,1.7-2.78-.13-.19-4.17,2.21-4.27.64-.16-2.41,3.39-.09,4.28-1.07.09-.1-.47-.77-.45-1.04.01-.13,2.44-1.01.02-.88,1.48-.77.28-3.51.42-3.64.28-.26,1.54.48,1.67.37.19-.16-.28-.97.46-.8-.16,1.55.71.44,1.49.51,1.88.16,1.83.99,3.21-.94-.7,2.3-.12,1.54,1.71,2.57,0,.14,0,.29,0,.43-.66.18-.64,1.57,0,1.71-.07,1.04.34,4-.4,4.52-.69.48-6.66.13-8.15.19Z"/>
      <polygon class="st5" points="537.99 372.47 538.2 372.69 537.99 372.9 537.99 372.47"/>
      <polygon class="st5" points="533.71 368.19 533.93 368.41 533.71 368.62 533.71 368.19"/>
      <polygon class="st5" points="523.03 411.82 523.24 412.04 523.03 412.25 523.03 411.82"/>
      <path class="st7" d="M74.5,429.36c-.5-.64.38-14.18,0-16.25h8.55c.45,0-.02-8.98.43-8.98h57.91s.64.6.64.64v8.34c0,.45,8-.19,8.97,0v-8.34s.6-.64.64-.64h74.15v8.98h-8.76c-.47,0-.61,1.04-.66,1.48-.4,3.38-.38,12.67.02,16.06-.18.07-.4.24-.43.43-2.6-.73-5.44-.08-8.12,0-1.17.04-3.65-.59-4.51-.26-.43.16-1.47,2.69-1.26.26-.97.04-1.93.04-2.89-.1-7.7-1.13-19.92.58-28.74.12-1.29-.07-2.73-.82-3.44-.85-.13,0,.08.38-2.11.49-4.88.25-9.67.22-14.53.35-.59-2.58-.43-.65-.96-.46-.43.15-7.19.94-7.57.9s-.19-.83-.24-.87c-.67-1.4.88-17.54,0-17.54h-8.97c-.75,0-.46,13.64-.43,14.97,0,.14,0,.29,0,.43.01.43-.01.86,0,1.28-1.14-.2-.87.27-.85,1.28-.28,0-.57.01-.85,0,.24-1.34-1.12-1.27-.85,0-.28-.01-.57.02-.85,0-.03,0-.13-.4-.43-.43-.53-.05-1.17-.03-1.71,0-.47.02-1.06-.13-1.28.43-.56.03-1.15.03-1.71,0-10.63-.52-21.79.03-32.71,0-3.77,0-6.13.11-9.88.25-1.71.07-5.36.13-6.55-.9,2.31-1.02.08-.97,0-1.07ZM81.12,430.21v.43l.21-.21-.21-.21Z"/>
      <path class="st5" d="M283.91,431.07h.43s.02.03-.43,0Z"/>
      <path class="st5" d="M234.34,413.1c.05-1.37-.32-8.67,0-8.98.61-.61,14.83,0,17.29-.01,18.31-.06,36.63.08,54.94.01-.25,1.25.32,8.67,0,8.99-.11.1-2.43-.03-2.99,0h-.43c-1.05.02-6.6-.24-6.84,0-.07.07.02,1.3,0,1.71v1.28c-.01.42-.01.86,0,1.28v.43c0,.29,0,.57,0,.86l.43.43c0,.43,0,.86,0,1.28l-.43,1.71c-.03,1.56.04,3.14,0,4.7l.43.43c0,.28.02.57,0,.86l-.43.43c-.06.26.08.65,0,.86-.23.62-.69,1.37-1.28,1.71-.56-.04-1.14.03-1.71,0-.45-1.07-1.5-1.38-1.28,0-.85-.03-1.71.02-2.56,0,.24-1.34-1.12-1.27-.85,0-.28,0-.57,0-.85,0-.36-.01-.67,0-.85,0-.85-.03-1.71.04-2.56,0h-.43c-4.01-.31-7.24-.56-11.27-.32-.4.02-.75.7-.91.74-.38.1-.07-.84-.45-.88s-1.55.51-2.52.47c-6.29-.22-12.5-.34-18.78-.4-1.79-.02-3.35.52-5.17.42-2.12-.11-3.89-.82-6.2-.04l.85.85c-1.2.61-1.35-.9-1.49-.86-.46.13-.07.68-.22.86-.36.46-.43-.69-.5-.74-.31-.22-6.94-.2-7.56-.02-.16.05.14.66-.27.76-.53.14-.49-2.58-.85-2.58-.51,0,.52,2.54-1.71,1.72.39-1.59-.19-.65-1.07-.43-.04-.56.06-1.15,0-1.71.96-.65.96-1.49,0-2.14.02-.28,0-.57,0-.86l.43-1.28c.01-.28,0-.57,0-.86.63-.69-.14-2.04,1.28-1.71.57.03,1.14-.03,1.71,0,.76.04,2.05.26,2.56-.43.71-.01,1.42,0,2.14,0,.14,0,.28,0,.43,0-.25,1.24.69.89,1.49.87,1.12-.03,7.25-.21,7.48-.87.43,0,.85,0,1.28,0h.43c.57,0,1.14,0,1.71,0h.85c.42.01.88-.05,1.28,0-.08.25.24.43.43.43.69,0,1.61-.39,2.56-.43,2.68-.11,5.43,0,8.12,0,9.24.03,18.49.26,27.78,0v-8.55c-9.11.03-18.24-.04-27.35,0-2.7.01-5.42-.03-8.12,0-1.81.02-7.05-.38-8.27-.02-.15.04-.68,1.15-.7,1.3.55-1.98-1.75-1.25-3.42-1.28-.42-.69-2.12-.7-2.56,0h-2.99ZM227.29,427.65v.43l.21-.21-.21-.21Z"/>
      <path class="st12" d="M237.33,413.1c.85,0,1.71-.02,2.56,0,1.66.04,3.97-.69,3.42,1.28-.34,1.82.48,5.91,0,7.27-2.99,0-5.99,0-8.97,0-.14,0-.28,0-.43,0-.37-2.86.33-5.83.43-8.55h2.99Z"/>
      <path class="st1" d="M227.5,422.09c-1.42-.33-.66,1.03-1.28,1.71,0-.31-.81-1.74-.43-2.14.43-.43,1.57.42,1.71.43Z"/>
      <path class="st1" d="M225.79,428.93c-.13-1.17-.06-1.12,0-2.14.96.65.96,1.49,0,2.14Z"/>
      <path class="st10" d="M64.67,429.36c-.11.66-.11,1.05-.85,1.28-.86-1.24-.54-1.44.85-1.28Z"/>
      <path class="st1" d="M231.77,421.66c-.51.69-1.8.47-2.56.43.54-.73,1.77-.42,2.56-.43Z"/>
      <path class="st10" d="M64.67,419.52c-1.19-.35-.67-1.4,0-2.14,0,.71,0,1.43,0,2.14Z"/>
      <path class="st10" d="M62.96,430.64c-.49.54-1.08.39-1.71.43-.24-1.64.81-.43,1.71-.43Z"/>
      <path class="st14" d="M72.79,396c-.22,0-.77,0-.85,0l.59-.37.26.37Z"/>
      <path class="st1" d="M296.31,422.09l.43-1.71c0,1-.43,1.62-.43,1.71Z"/>
      <path class="st14" d="M216.81,431.07c-.16.03-.53.45-.85.43,0-.14-.02-.29,0-.43.03-.18.25-.36.43-.43,0,.08.35.27.43.43Z"/>
      <path class="st10" d="M59.11,431.07c-.24-1.34,1.12-1.27.85,0-.28,0-.58.02-.85,0Z"/>
      <path class="st1" d="M296.31,416.1v-1.28c0,.21.01.83,0,1.28Z"/>
      <path class="st1" d="M225.79,425.94c.03-.95.42-1.22.43-1.28l-.43,1.28Z"/>
      <path class="st10" d="M64.67,421.23l-.43-.22.43-.64c0,.29,0,.57,0,.86Z"/>
      <path class="st1" d="M296.31,428.5l.43-.43c-.02.28-.42.4-.43.43Z"/>
      <path class="st1" d="M296.73,427.22l-.43-.43s.43.16.43.43Z"/>
      <path class="st10" d="M64.67,427.22l-.42-.21.42-.21c0,.14,0,.29,0,.43Z"/>
      <path class="st10" d="M64.67,424.65l-.42-.21.42-.21c0,.14,0,.29,0,.43Z"/>
      <path class="st10" d="M64.67,423.37l-.42-.21.42-.21c0,.14,0,.29,0,.43Z"/>
      <path class="st1" d="M296.73,419.09l-.43-.43s.43.16.43.43Z"/>
      <path class="st1" d="M296.31,417.81v-.43c0,.17,0,.27,0,.43Z"/>
      <path class="st1" d="M303.14,413.1h.43c-.17,0-.28,0-.43,0Z"/>
      <path class="st14" d="M71.08,396c-.14,0-.28,0-.43,0h.43Z"/>
      <path class="st5" d="M407.42,299.33c-.78,1.14-2.01.12-2.56,0,.85,0,1.71,0,2.56,0Z"/>
      <path class="st6" d="M412.55,246.3c-5.55-.03-11.12-.01-16.67,0v-.43l16.67.43Z"/>
      <path class="st14" d="M389.47,264.26c-3.4.58-7.44.62-10.9.61-1.42,0-3.65-.02-4.91-.61,5.26,0,10.55,0,15.81,0Z"/>
      <path class="st14" d="M365.54,264.26h-15.39c5.12,0,10.26,0,15.39,0Z"/>
      <path class="st13" d="M448.03,264.26l-.85,1.71c1.2-3.28-2.01.06-2.81-.09-.14-.03-1.17-1.67-2.32-1.62,1.99,0,3.99,0,5.98,0Z"/>
      <path class="st14" d="M386.06,246.3c-3.98.02-7.98-.05-11.97,0,3.66-.71,8.3-.71,11.97,0Z"/>
      <path class="st13" d="M467.68,264.26c-1.1,1.32-4.96.63-6.41,0,2.13,0,4.28,0,6.41,0Z"/>
      <path class="st14" d="M367.68,246.3c-2.69.06-5.44-.14-8.12,0,2.33-.72,5.83-.72,8.12,0Z"/>
      <path class="st13" d="M424.52,264.26c-1.06.72-3.6.73-4.7,0,1.56,0,3.14,0,4.7,0Z"/>
      <path class="st13" d="M479.22,264.26c-1.06.72-3.6.73-4.7,0,1.56.01,3.14-.02,4.7,0Z"/>
      <path class="st14" d="M371.52,264.26c-1.06.72-3.6.73-4.7,0,1.56,0,3.14,0,4.7,0Z"/>
      <path class="st14" d="M397.59,264.26c-.8.72-3.04.72-3.85,0,1.28,0,2.57,0,3.85,0Z"/>
      <path class="st13" d="M412.55,264.26c-.8.72-3.04.72-3.85,0,1.28,0,2.57,0,3.85,0Z"/>
      <path class="st13" d="M474.09,264.26c-.81.53-2.99,1.54-2.56,0,.85,0,1.71,0,2.56,0Z"/>
      <path class="st14" d="M373.23,246.3c-1.14.01-2.28-.02-3.42,0,.68-.72,2.75-.71,3.42,0Z"/>
      <path class="st13" d="M426.23,264.26c.33,1.36-1.66,1.27-1.28,0,.43,0,.85,0,1.28,0Z"/>
      <path class="st14" d="M393.32,264.26c-.29.67-1.85.67-2.14,0,.71,0,1.42,0,2.14,0Z"/>
      <path class="st13" d="M450.59,264.26c-.29.67-1.85.67-2.14,0,.71,0,1.42,0,2.14,0Z"/>
      <path class="st14" d="M399.73,264.26c-.14.64-1.53.66-1.71,0,.57,0,1.14,0,1.71,0Z"/>
      <path class="st13" d="M481.36,264.26c-.14.64-1.53.66-1.71,0,.57,0,1.14-.01,1.71,0Z"/>
      <path class="st13" d="M407.85,264.26c-.14.64-1.53.66-1.71,0,.57,0,1.14,0,1.71,0Z"/>
      <path class="st13" d="M428.37,264.26c-.06.64-1.22.64-1.28,0,.43,0,.85,0,1.28,0Z"/>
      <path class="st14" d="M369.39,246.3c-.43,0-.86,0-1.28,0,.06-.64,1.22-.64,1.28,0Z"/>
      <path class="st13" d="M482.64,264.26l-.22.43-.64-.43c.28,0,.57-.02.85,0Z"/>
      <path class="st13" d="M404.86,264.26c.14,0,.28,0,.43,0l-.21.42-.21-.42Z"/>
      <path class="st14" d="M365.97,264.26c.14,0,.28,0,.43,0l-.21.42-.21-.42Z"/>
      <path class="st6" d="M395.03,272.81c.21.7.37,1.4.43,2.14-.64.06-.64,1.22,0,1.28,0,4.83-.43,9.75,0,14.54-2.99.02-5.99,0-8.97,0-1.33,0-9.49.36-9.83,0-.61-.66.02-15.72,0-17.97,6.13,0,12.25.16,18.38,0Z"/>
      <path class="st6" d="M422.38,272.81c.31,1.01.9,17.96,0,17.96h-18.38v-17.96h18.38Z"/>
      <path class="st6" d="M449.73,290.78h-18.38v-17.54c0-.08,1.42-.43,1.5-.43h16.24c.47,0,.61,1.04.66,1.48.6,5.13-.56,11.26-.02,16.49Z"/>
      <path class="st13" d="M402.77,297.55c.1.09.76-.41.8-.36.91,1.1-2.2,1.47-1.27-.42.3-.6.43.74.47.78Z"/>
      <path class="st0" d="M412.55,298.9c-.08.08-.93-.04-1.28,0,.93-2.04,2.03-.75,1.28,0Z"/>
      <path class="st13" d="M446.74,265.97c.45.18-1.15,1.04-1.71.85.12-.72,1.11-1.09,1.71-.85Z"/>
      <path class="st13" d="M412.55,294.2c-.21.46-.72-.62-.42-1.28.21-.46.72.62.42,1.28Z"/>
      <path class="st13" d="M395.46,276.24c-.64-.06-.64-1.22,0-1.28.03.42,0,.86,0,1.28Z"/>
      <path class="st13" d="M400.16,279.66c.32.21-.39.72-.85.42-.32-.21.39-.72.85-.42Z"/>
      <path class="st13" d="M402.29,291.21c.32.21-.39.72-.85.42-.32-.21.39-.72.85-.42Z"/>
      <path class="st13" d="M401.02,292.48c-.43-.35.78-.8,1.27.22-.23.08-1.22-.18-1.27-.22Z"/>
      <path class="st13" d="M462.99,267.25c-.41-.21.84-.82,1.27-.64-.29.37-.78.9-1.27.64Z"/>
      <polygon class="st13" points="396.95 273.24 397.17 273.46 396.95 273.67 396.95 273.24"/>
      <path class="st5" d="M268.1,392.58c.65.84-1.52,1.49-1.7,1.28-1.11-1.22,1.61-1.4,1.7-1.28Z"/>
      <path class="st5" d="M128.77,390.01c.6.25-1.01.7-1.7.42-.6-.25,1.01-.7,1.7-.42Z"/>
      <path class="st5" d="M123.22,392.58l-.85.85c-.12-.89-.04-.97.85-.85Z"/>
      <path class="st5" d="M129.2,388.3c.17,1.21-.6,1.21-.43,0,.14,0,.28,0,.43,0Z"/>
      <path class="st5" d="M121.08,393.43c.32.21-.39.72-.85.42-.32-.21.39-.72.85-.42Z"/>
      <polygon class="st5" points="265.75 394.29 265.96 394.5 265.75 394.71 265.75 394.29"/>
      <polygon class="st5" points="122.15 391.72 122.36 391.93 122.15 392.15 122.15 391.72"/>
      <polygon class="st5" points="119.59 391.29 119.8 391.5 119.59 391.72 119.59 391.29"/>
      <polygon class="st5" points="129.84 390.01 130.06 390.22 129.84 390.44 129.84 390.01"/>
      <polygon class="st5" points="266.18 388.72 266.39 388.94 266.18 389.15 266.18 388.72"/>
      <polygon class="st5" points="127.71 388.72 127.92 388.94 127.71 389.15 127.71 388.72"/>
      <polygon class="st6" points="368.11 273.24 368.11 290.78 349.3 290.78 349.3 272.81 368.11 273.24"/>
      <path class="st12" d="M38.17,413.1h.85c1.09,0,6.49-.18,6.84,0,.05.03-.03.28,0,.43.14.63.29,7.84,0,8.13-.3.3-7.34-.23-8.55,0-.47-1.96.34-5.52,0-7.7v-.43c.1-.04.24-.33.43-.43h.43Z"/>
      <path class="st10" d="M45.86,413.53c1.3-.24.82.65.86,1.48.04.96.03,7.03-.41,7.31-.49.31-8.7.58-9-.66,1.21-.23,8.25.3,8.55,0s.14-7.5,0-8.13Z"/>
      <path class="st1" d="M37.32,413.53v.43c-.84,2.11-.36,4.8-.43,7.06-.01.37.18,1.54-.43.85.32-1.46-.43-8.05,0-8.77.1-.16.77.46.85.43Z"/>
      <path class="st1" d="M45.86,413.1c-.35-.18-5.75,0-6.84,0,1.73-.71,5.02-.72,6.84,0Z"/>
      <path class="st10" d="M56.55,428.93c.32.21-.39.72-.85.42-.32-.21.39-.72.85-.42Z"/>
      <path class="st1" d="M38.17,413.1h-.43c.08-.04.08-.31.21-.42l.22.42Z"/>
      <path class="st8" d="M414.26,202.24c-.14,0-.29,0-.43,0l.21-.42.21.42Z"/>
      <path class="st13" d="M331.78,299.33c.04-.09,1.4-1.3,1.5-1.29.48.08-.04.9.42.86.22-.02,1.02-.81,1.3-.85.14-.02.87,1.34,2.34,1.29h-5.56Z"/>
      <path class="st1" d="M287.76,431.07c.35.88-.4,2.01-.43,2.57-1.67.32-.18-1.33-.43-2.57.19,0,.5-.01.85,0Z"/>
      <path class="st14" d="M215.96,437.48c-1.53.25-.81-1.03,0-1.71,0,.73.09.66,0,1.71Z"/>
      <path class="st14" d="M215.96,433.63c0,.14,0,.29,0,.43-1.43.25-1.21-1.46,0-.43Z"/>
      <path class="st1" d="M285.62,434.07c.32.21-.39.72-.85.42-.32-.21.39-.72.85-.42Z"/>
      <path class="st1" d="M132.19,429.79c0,.07.4.59.43,1.28-.43,0-.86.01-1.28,0-.02-1.01-.29-1.48.85-1.28Z"/>
      <path class="st1" d="M129.63,431.07c-.26-1.27,1.09-1.34.85,0-.28-.01-.57.01-.85,0Z"/>
      <path class="st1" d="M126.64,430.64c-.22.56-.81.4-1.28.43.22-.56.81-.4,1.28-.43Z"/>
      <path class="st1" d="M128.78,431.07l-.43-.43c.3.03.4.43.43.43Z"/>
      <path class="st1" d="M293.31,431.07c-.43-.02-.86.01-1.28,0-.22-1.38.83-1.07,1.28,0Z"/>
      <path class="st1" d="M288.61,431.07c-.26-1.27,1.09-1.34.85,0-.28,0-.57,0-.85,0Z"/>
      <path class="st7" d="M358.7,357.07l.43,1.28c.04,1.4.17,3.39,0,4.7-.58.19-2.73.68-2.99.43-.24-.24-.12-6.49.06-6.78.34-.53,2.36-.75,2.5.36Z"/>
      <path class="st1" d="M359.13,363.06c-.16,1.25-1.25,1.14-2.78.86-1.61-.3-.54-1.44-.6-2.77-.03-.57-.45-4.76-.28-4.94.52-.54,3.48-.57,3.66-.41.08.07-.04.94,0,1.28h-.43c-.14-1.11-2.16-.89-2.5-.36-.18.29-.31,6.54-.06,6.78.26.25,2.41-.24,2.99-.43Z"/>
      <path class="st10" d="M359.13,358.36l-.43-1.28h.43c.04.42-.01.86,0,1.28Z"/>
      <path class="st10" d="M380.93,355.79c.09.09.09,2.48,0,2.57-.08.08-2.07.08-2.14,0-.09-.09-.09-2.48,0-2.57.08-.08,2.07-.08,2.14,0Z"/>
      <path class="st10" d="M346.31,355.79c.09.09.54,2.48.43,2.56s-2.48.1-2.57,0-.09-2.48,0-2.57c.08-.08,2.06-.07,2.14,0Z"/>
      <path class="st5" d="M392.04,355.79c.11.11.09,2.88,0,2.99-.08.1-2.44-.36-2.53-.45s-.12-2.45-.03-2.54,2.48-.09,2.57,0Z"/>
      <path class="st12" d="M378.79,391.29c-.49,1.21-.49-3.35,0-2.13.07.17.07,1.96,0,2.13Z"/>
      <path class="st2" d="M414.26,359.21c-.69.42-.42,1.46-.43,2.14h-.85c-.61-.76.48-1.06.43-2.57.42-.04.72-.05.85.43Z"/>
      <path class="st7" d="M438.62,362.21c1.13-.35,5.02-.79,4.27,1.28-.81-.61-4.68-.11-4.7-.85l.43-.43Z"/>
      <path class="st5" d="M437.77,362.63c-2.12.14-.91-.16-.85-1.28h.43c0,.21.5.79.43,1.28Z"/>
      <path class="st5" d="M438.2,362.63c-.01-.45.16-.35.43-.43l-.43.43Z"/>
      <path class="st0" d="M384.77,387.44h-2.56c.44-.7,2.15-.69,2.56,0Z"/>
      <path class="st0" d="M381.35,387.44h-1.28c.06-.64,1.22-.64,1.28,0Z"/>
      <polygon class="st10" points="81.12 430.21 81.34 430.43 81.12 430.64 81.12 430.21"/>
      <path class="st1" d="M132.19,428.5c0-.14,0-.29,0-.43l.42.21-.42.21Z"/>
      <path class="st6" d="M260.41,413.1c9.11-.04,18.24.03,27.35,0v8.55c-9.29.26-18.54.03-27.78,0l.43-8.55Z"/>
      <path class="st6" d="M252.29,413.1c-.15,2.84.39,5.8-.43,8.55-.96.04-1.87.42-2.56.43-.06-.19-.24-.4-.43-.43-.41-.05-.86.01-1.28,0-.28,0-.57,0-.85,0-.57,0-1.14,0-1.71,0-.14,0-.28,0-.43,0-.43,0-.85,0-1.28,0,.48-1.36-.34-5.45,0-7.27.03-.15.56-1.26.7-1.3,1.22-.36,6.46.04,8.27.02Z"/>
      <path class="st13" d="M260.41,413.1l-.43,8.55c-2.69,0-5.44-.11-8.12,0,.82-2.76.28-5.72.43-8.55,2.7-.03,5.42.01,8.12,0Z"/>
      <path class="st1" d="M243.31,421.66c-.23.66-6.36.85-7.48.87-.81.02-1.75.37-1.49-.87,2.99,0,5.99,0,8.97,0Z"/>
      <path class="st1" d="M239.89,413.1c-.85-.02-1.71,0-2.56,0,.44-.7,2.15-.69,2.56,0Z"/>
      <path class="st1" d="M247.59,421.66h-.85c.28,0,.57,0,.85,0Z"/>
      <polygon class="st10" points="227.29 427.65 227.5 427.86 227.29 428.07 227.29 427.65"/>
      <path class="st1" d="M249.3,422.09c-.19,0-.51-.17-.43-.43.19.02.37.24.43.43Z"/>
      <path class="st1" d="M244.59,421.66c.14,0,.28,0,.43,0h-.43Z"/>
    </g>
  </g>
</svg>